<?xml version="1.0" encoding="utf-8" standalone="no"?>
<!DOCTYPE svg PUBLIC "-//W3C//DTD SVG 1.1//EN"
  "http://www.w3.org/Graphics/SVG/1.1/DTD/svg11.dtd">
<svg xmlns:xlink="http://www.w3.org/1999/xlink" width="720pt" height="720pt" viewBox="0 0 720 720" xmlns="http://www.w3.org/2000/svg" version="1.1">
 <metadata>
  <rdf:RDF xmlns:dc="http://purl.org/dc/elements/1.1/" xmlns:cc="http://creativecommons.org/ns#" xmlns:rdf="http://www.w3.org/1999/02/22-rdf-syntax-ns#">
   <cc:Work>
    <dc:type rdf:resource="http://purl.org/dc/dcmitype/StillImage"/>
    <dc:date>2022-10-27T13:53:12.952155</dc:date>
    <dc:format>image/svg+xml</dc:format>
    <dc:creator>
     <cc:Agent>
      <dc:title>Matplotlib v3.5.2, https://matplotlib.org/</dc:title>
     </cc:Agent>
    </dc:creator>
   </cc:Work>
  </rdf:RDF>
 </metadata>
 <defs>
  <style type="text/css">*{stroke-linejoin: round; stroke-linecap: butt}</style>
 </defs>
 <g id="figure_1">
  <g id="patch_1">
   <path d="M 0 720 
L 720 720 
L 720 0 
L 0 0 
z
" style="fill: #ffffff"/>
  </g>
  <g id="axes_1">
   <g id="patch_2">
    <path d="M 139.8 620.01375 
L 686.972058 620.01375 
L 686.972058 60 
L 139.8 60 
z
" style="fill: #ffffff"/>
   </g>
   <g id="matplotlib.axis_1">
    <g id="xtick_1">
     <g id="line2d_1">
      <path d="M 164.671457 620.01375 
L 164.671457 60 
" clip-path="url(#p64637490c9)" style="fill: none; stroke: #cccccc; stroke-width: 0.8; stroke-linecap: round"/>
     </g>
     <g id="line2d_2"/>
     <g id="text_1">
      <!-- 0 -->
      <g style="fill: #262626" transform="translate(156.330051 644.987188)scale(0.3 -0.3)">
       <defs>
        <path id="ArialMT-30" d="M 266 2259 
Q 266 3072 433 3567 
Q 600 4063 929 4331 
Q 1259 4600 1759 4600 
Q 2128 4600 2406 4451 
Q 2684 4303 2865 4023 
Q 3047 3744 3150 3342 
Q 3253 2941 3253 2259 
Q 3253 1453 3087 958 
Q 2922 463 2592 192 
Q 2263 -78 1759 -78 
Q 1097 -78 719 397 
Q 266 969 266 2259 
z
M 844 2259 
Q 844 1131 1108 757 
Q 1372 384 1759 384 
Q 2147 384 2411 759 
Q 2675 1134 2675 2259 
Q 2675 3391 2411 3762 
Q 2147 4134 1753 4134 
Q 1366 4134 1134 3806 
Q 844 3388 844 2259 
z
" transform="scale(0.015625)"/>
       </defs>
       <use xlink:href="#ArialMT-30"/>
      </g>
     </g>
    </g>
    <g id="xtick_2">
     <g id="line2d_3">
      <path d="M 264.356656 620.01375 
L 264.356656 60 
" clip-path="url(#p64637490c9)" style="fill: none; stroke: #cccccc; stroke-width: 0.8; stroke-linecap: round"/>
     </g>
     <g id="line2d_4"/>
     <g id="text_2">
      <!-- 100 -->
      <g style="fill: #262626" transform="translate(239.332438 644.987188)scale(0.3 -0.3)">
       <defs>
        <path id="ArialMT-31" d="M 2384 0 
L 1822 0 
L 1822 3584 
Q 1619 3391 1289 3197 
Q 959 3003 697 2906 
L 697 3450 
Q 1169 3672 1522 3987 
Q 1875 4303 2022 4600 
L 2384 4600 
L 2384 0 
z
" transform="scale(0.015625)"/>
       </defs>
       <use xlink:href="#ArialMT-31"/>
       <use xlink:href="#ArialMT-30" x="55.615234"/>
       <use xlink:href="#ArialMT-30" x="111.230469"/>
      </g>
     </g>
    </g>
    <g id="xtick_3">
     <g id="line2d_5">
      <path d="M 364.041855 620.01375 
L 364.041855 60 
" clip-path="url(#p64637490c9)" style="fill: none; stroke: #cccccc; stroke-width: 0.8; stroke-linecap: round"/>
     </g>
     <g id="line2d_6"/>
     <g id="text_3">
      <!-- 200 -->
      <g style="fill: #262626" transform="translate(339.017637 644.987188)scale(0.3 -0.3)">
       <defs>
        <path id="ArialMT-32" d="M 3222 541 
L 3222 0 
L 194 0 
Q 188 203 259 391 
Q 375 700 629 1000 
Q 884 1300 1366 1694 
Q 2113 2306 2375 2664 
Q 2638 3022 2638 3341 
Q 2638 3675 2398 3904 
Q 2159 4134 1775 4134 
Q 1369 4134 1125 3890 
Q 881 3647 878 3216 
L 300 3275 
Q 359 3922 746 4261 
Q 1134 4600 1788 4600 
Q 2447 4600 2831 4234 
Q 3216 3869 3216 3328 
Q 3216 3053 3103 2787 
Q 2991 2522 2730 2228 
Q 2469 1934 1863 1422 
Q 1356 997 1212 845 
Q 1069 694 975 541 
L 3222 541 
z
" transform="scale(0.015625)"/>
       </defs>
       <use xlink:href="#ArialMT-32"/>
       <use xlink:href="#ArialMT-30" x="55.615234"/>
       <use xlink:href="#ArialMT-30" x="111.230469"/>
      </g>
     </g>
    </g>
    <g id="xtick_4">
     <g id="line2d_7">
      <path d="M 463.727054 620.01375 
L 463.727054 60 
" clip-path="url(#p64637490c9)" style="fill: none; stroke: #cccccc; stroke-width: 0.8; stroke-linecap: round"/>
     </g>
     <g id="line2d_8"/>
     <g id="text_4">
      <!-- 300 -->
      <g style="fill: #262626" transform="translate(438.702836 644.987188)scale(0.3 -0.3)">
       <defs>
        <path id="ArialMT-33" d="M 269 1209 
L 831 1284 
Q 928 806 1161 595 
Q 1394 384 1728 384 
Q 2125 384 2398 659 
Q 2672 934 2672 1341 
Q 2672 1728 2419 1979 
Q 2166 2231 1775 2231 
Q 1616 2231 1378 2169 
L 1441 2663 
Q 1497 2656 1531 2656 
Q 1891 2656 2178 2843 
Q 2466 3031 2466 3422 
Q 2466 3731 2256 3934 
Q 2047 4138 1716 4138 
Q 1388 4138 1169 3931 
Q 950 3725 888 3313 
L 325 3413 
Q 428 3978 793 4289 
Q 1159 4600 1703 4600 
Q 2078 4600 2393 4439 
Q 2709 4278 2876 4000 
Q 3044 3722 3044 3409 
Q 3044 3113 2884 2869 
Q 2725 2625 2413 2481 
Q 2819 2388 3044 2092 
Q 3269 1797 3269 1353 
Q 3269 753 2831 336 
Q 2394 -81 1725 -81 
Q 1122 -81 723 278 
Q 325 638 269 1209 
z
" transform="scale(0.015625)"/>
       </defs>
       <use xlink:href="#ArialMT-33"/>
       <use xlink:href="#ArialMT-30" x="55.615234"/>
       <use xlink:href="#ArialMT-30" x="111.230469"/>
      </g>
     </g>
    </g>
    <g id="xtick_5">
     <g id="line2d_9">
      <path d="M 563.412253 620.01375 
L 563.412253 60 
" clip-path="url(#p64637490c9)" style="fill: none; stroke: #cccccc; stroke-width: 0.8; stroke-linecap: round"/>
     </g>
     <g id="line2d_10"/>
     <g id="text_5">
      <!-- 400 -->
      <g style="fill: #262626" transform="translate(538.388035 644.987188)scale(0.3 -0.3)">
       <defs>
        <path id="ArialMT-34" d="M 2069 0 
L 2069 1097 
L 81 1097 
L 81 1613 
L 2172 4581 
L 2631 4581 
L 2631 1613 
L 3250 1613 
L 3250 1097 
L 2631 1097 
L 2631 0 
L 2069 0 
z
M 2069 1613 
L 2069 3678 
L 634 1613 
L 2069 1613 
z
" transform="scale(0.015625)"/>
       </defs>
       <use xlink:href="#ArialMT-34"/>
       <use xlink:href="#ArialMT-30" x="55.615234"/>
       <use xlink:href="#ArialMT-30" x="111.230469"/>
      </g>
     </g>
    </g>
    <g id="xtick_6">
     <g id="line2d_11">
      <path d="M 663.097453 620.01375 
L 663.097453 60 
" clip-path="url(#p64637490c9)" style="fill: none; stroke: #cccccc; stroke-width: 0.8; stroke-linecap: round"/>
     </g>
     <g id="line2d_12"/>
     <g id="text_6">
      <!-- 500 -->
      <g style="fill: #262626" transform="translate(638.073234 644.987188)scale(0.3 -0.3)">
       <defs>
        <path id="ArialMT-35" d="M 266 1200 
L 856 1250 
Q 922 819 1161 601 
Q 1400 384 1738 384 
Q 2144 384 2425 690 
Q 2706 997 2706 1503 
Q 2706 1984 2436 2262 
Q 2166 2541 1728 2541 
Q 1456 2541 1237 2417 
Q 1019 2294 894 2097 
L 366 2166 
L 809 4519 
L 3088 4519 
L 3088 3981 
L 1259 3981 
L 1013 2750 
Q 1425 3038 1878 3038 
Q 2478 3038 2890 2622 
Q 3303 2206 3303 1553 
Q 3303 931 2941 478 
Q 2500 -78 1738 -78 
Q 1113 -78 717 272 
Q 322 622 266 1200 
z
" transform="scale(0.015625)"/>
       </defs>
       <use xlink:href="#ArialMT-35"/>
       <use xlink:href="#ArialMT-30" x="55.615234"/>
       <use xlink:href="#ArialMT-30" x="111.230469"/>
      </g>
     </g>
    </g>
    <g id="text_7">
     <!-- Episode # -->
     <g style="fill: #262626" transform="translate(335.554779 680.428594)scale(0.35 -0.35)">
      <defs>
       <path id="ArialMT-45" d="M 506 0 
L 506 4581 
L 3819 4581 
L 3819 4041 
L 1113 4041 
L 1113 2638 
L 3647 2638 
L 3647 2100 
L 1113 2100 
L 1113 541 
L 3925 541 
L 3925 0 
L 506 0 
z
" transform="scale(0.015625)"/>
       <path id="ArialMT-70" d="M 422 -1272 
L 422 3319 
L 934 3319 
L 934 2888 
Q 1116 3141 1344 3267 
Q 1572 3394 1897 3394 
Q 2322 3394 2647 3175 
Q 2972 2956 3137 2557 
Q 3303 2159 3303 1684 
Q 3303 1175 3120 767 
Q 2938 359 2589 142 
Q 2241 -75 1856 -75 
Q 1575 -75 1351 44 
Q 1128 163 984 344 
L 984 -1272 
L 422 -1272 
z
M 931 1641 
Q 931 1000 1190 694 
Q 1450 388 1819 388 
Q 2194 388 2461 705 
Q 2728 1022 2728 1688 
Q 2728 2322 2467 2637 
Q 2206 2953 1844 2953 
Q 1484 2953 1207 2617 
Q 931 2281 931 1641 
z
" transform="scale(0.015625)"/>
       <path id="ArialMT-69" d="M 425 3934 
L 425 4581 
L 988 4581 
L 988 3934 
L 425 3934 
z
M 425 0 
L 425 3319 
L 988 3319 
L 988 0 
L 425 0 
z
" transform="scale(0.015625)"/>
       <path id="ArialMT-73" d="M 197 991 
L 753 1078 
Q 800 744 1014 566 
Q 1228 388 1613 388 
Q 2000 388 2187 545 
Q 2375 703 2375 916 
Q 2375 1106 2209 1216 
Q 2094 1291 1634 1406 
Q 1016 1563 777 1677 
Q 538 1791 414 1992 
Q 291 2194 291 2438 
Q 291 2659 392 2848 
Q 494 3038 669 3163 
Q 800 3259 1026 3326 
Q 1253 3394 1513 3394 
Q 1903 3394 2198 3281 
Q 2494 3169 2634 2976 
Q 2775 2784 2828 2463 
L 2278 2388 
Q 2241 2644 2061 2787 
Q 1881 2931 1553 2931 
Q 1166 2931 1000 2803 
Q 834 2675 834 2503 
Q 834 2394 903 2306 
Q 972 2216 1119 2156 
Q 1203 2125 1616 2013 
Q 2213 1853 2448 1751 
Q 2684 1650 2818 1456 
Q 2953 1263 2953 975 
Q 2953 694 2789 445 
Q 2625 197 2315 61 
Q 2006 -75 1616 -75 
Q 969 -75 630 194 
Q 291 463 197 991 
z
" transform="scale(0.015625)"/>
       <path id="ArialMT-6f" d="M 213 1659 
Q 213 2581 725 3025 
Q 1153 3394 1769 3394 
Q 2453 3394 2887 2945 
Q 3322 2497 3322 1706 
Q 3322 1066 3130 698 
Q 2938 331 2570 128 
Q 2203 -75 1769 -75 
Q 1072 -75 642 372 
Q 213 819 213 1659 
z
M 791 1659 
Q 791 1022 1069 705 
Q 1347 388 1769 388 
Q 2188 388 2466 706 
Q 2744 1025 2744 1678 
Q 2744 2294 2464 2611 
Q 2184 2928 1769 2928 
Q 1347 2928 1069 2612 
Q 791 2297 791 1659 
z
" transform="scale(0.015625)"/>
       <path id="ArialMT-64" d="M 2575 0 
L 2575 419 
Q 2259 -75 1647 -75 
Q 1250 -75 917 144 
Q 584 363 401 755 
Q 219 1147 219 1656 
Q 219 2153 384 2558 
Q 550 2963 881 3178 
Q 1213 3394 1622 3394 
Q 1922 3394 2156 3267 
Q 2391 3141 2538 2938 
L 2538 4581 
L 3097 4581 
L 3097 0 
L 2575 0 
z
M 797 1656 
Q 797 1019 1065 703 
Q 1334 388 1700 388 
Q 2069 388 2326 689 
Q 2584 991 2584 1609 
Q 2584 2291 2321 2609 
Q 2059 2928 1675 2928 
Q 1300 2928 1048 2622 
Q 797 2316 797 1656 
z
" transform="scale(0.015625)"/>
       <path id="ArialMT-65" d="M 2694 1069 
L 3275 997 
Q 3138 488 2766 206 
Q 2394 -75 1816 -75 
Q 1088 -75 661 373 
Q 234 822 234 1631 
Q 234 2469 665 2931 
Q 1097 3394 1784 3394 
Q 2450 3394 2872 2941 
Q 3294 2488 3294 1666 
Q 3294 1616 3291 1516 
L 816 1516 
Q 847 969 1125 678 
Q 1403 388 1819 388 
Q 2128 388 2347 550 
Q 2566 713 2694 1069 
z
M 847 1978 
L 2700 1978 
Q 2663 2397 2488 2606 
Q 2219 2931 1791 2931 
Q 1403 2931 1139 2672 
Q 875 2413 847 1978 
z
" transform="scale(0.015625)"/>
       <path id="ArialMT-20" transform="scale(0.015625)"/>
       <path id="ArialMT-23" d="M 322 -78 
L 594 1253 
L 66 1253 
L 66 1719 
L 688 1719 
L 919 2853 
L 66 2853 
L 66 3319 
L 1013 3319 
L 1284 4659 
L 1753 4659 
L 1481 3319 
L 2466 3319 
L 2738 4659 
L 3209 4659 
L 2938 3319 
L 3478 3319 
L 3478 2853 
L 2844 2853 
L 2609 1719 
L 3478 1719 
L 3478 1253 
L 2516 1253 
L 2244 -78 
L 1775 -78 
L 2044 1253 
L 1063 1253 
L 791 -78 
L 322 -78 
z
M 1156 1719 
L 2138 1719 
L 2372 2853 
L 1388 2853 
L 1156 1719 
z
" transform="scale(0.015625)"/>
      </defs>
      <use xlink:href="#ArialMT-45"/>
      <use xlink:href="#ArialMT-70" x="66.699219"/>
      <use xlink:href="#ArialMT-69" x="122.314453"/>
      <use xlink:href="#ArialMT-73" x="144.53125"/>
      <use xlink:href="#ArialMT-6f" x="194.53125"/>
      <use xlink:href="#ArialMT-64" x="250.146484"/>
      <use xlink:href="#ArialMT-65" x="305.761719"/>
      <use xlink:href="#ArialMT-20" x="361.376953"/>
      <use xlink:href="#ArialMT-23" x="389.160156"/>
     </g>
    </g>
   </g>
   <g id="matplotlib.axis_2">
    <g id="ytick_1">
     <g id="line2d_13">
      <path d="M 139.8 553.231002 
L 686.972058 553.231002 
" clip-path="url(#p64637490c9)" style="fill: none; stroke: #cccccc; stroke-width: 0.8; stroke-linecap: round"/>
     </g>
     <g id="line2d_14"/>
     <g id="text_8">
      <!-- −300 -->
      <g style="fill: #262626" transform="translate(68.729688 563.967721)scale(0.3 -0.3)">
       <defs>
        <path id="ArialMT-2212" d="M 3381 1997 
L 356 1997 
L 356 2522 
L 3381 2522 
L 3381 1997 
z
" transform="scale(0.015625)"/>
       </defs>
       <use xlink:href="#ArialMT-2212"/>
       <use xlink:href="#ArialMT-33" x="58.398438"/>
       <use xlink:href="#ArialMT-30" x="114.013672"/>
       <use xlink:href="#ArialMT-30" x="169.628906"/>
      </g>
     </g>
    </g>
    <g id="ytick_2">
     <g id="line2d_15">
      <path d="M 139.8 478.891351 
L 686.972058 478.891351 
" clip-path="url(#p64637490c9)" style="fill: none; stroke: #cccccc; stroke-width: 0.8; stroke-linecap: round"/>
     </g>
     <g id="line2d_16"/>
     <g id="text_9">
      <!-- −250 -->
      <g style="fill: #262626" transform="translate(68.729688 489.62807)scale(0.3 -0.3)">
       <use xlink:href="#ArialMT-2212"/>
       <use xlink:href="#ArialMT-32" x="58.398438"/>
       <use xlink:href="#ArialMT-35" x="114.013672"/>
       <use xlink:href="#ArialMT-30" x="169.628906"/>
      </g>
     </g>
    </g>
    <g id="ytick_3">
     <g id="line2d_17">
      <path d="M 139.8 404.5517 
L 686.972058 404.5517 
" clip-path="url(#p64637490c9)" style="fill: none; stroke: #cccccc; stroke-width: 0.8; stroke-linecap: round"/>
     </g>
     <g id="line2d_18"/>
     <g id="text_10">
      <!-- −200 -->
      <g style="fill: #262626" transform="translate(68.729688 415.288418)scale(0.3 -0.3)">
       <use xlink:href="#ArialMT-2212"/>
       <use xlink:href="#ArialMT-32" x="58.398438"/>
       <use xlink:href="#ArialMT-30" x="114.013672"/>
       <use xlink:href="#ArialMT-30" x="169.628906"/>
      </g>
     </g>
    </g>
    <g id="ytick_4">
     <g id="line2d_19">
      <path d="M 139.8 330.212048 
L 686.972058 330.212048 
" clip-path="url(#p64637490c9)" style="fill: none; stroke: #cccccc; stroke-width: 0.8; stroke-linecap: round"/>
     </g>
     <g id="line2d_20"/>
     <g id="text_11">
      <!-- −150 -->
      <g style="fill: #262626" transform="translate(68.729688 340.948767)scale(0.3 -0.3)">
       <use xlink:href="#ArialMT-2212"/>
       <use xlink:href="#ArialMT-31" x="58.398438"/>
       <use xlink:href="#ArialMT-35" x="114.013672"/>
       <use xlink:href="#ArialMT-30" x="169.628906"/>
      </g>
     </g>
    </g>
    <g id="ytick_5">
     <g id="line2d_21">
      <path d="M 139.8 255.872397 
L 686.972058 255.872397 
" clip-path="url(#p64637490c9)" style="fill: none; stroke: #cccccc; stroke-width: 0.8; stroke-linecap: round"/>
     </g>
     <g id="line2d_22"/>
     <g id="text_12">
      <!-- −100 -->
      <g style="fill: #262626" transform="translate(68.729688 266.609116)scale(0.3 -0.3)">
       <use xlink:href="#ArialMT-2212"/>
       <use xlink:href="#ArialMT-31" x="58.398438"/>
       <use xlink:href="#ArialMT-30" x="114.013672"/>
       <use xlink:href="#ArialMT-30" x="169.628906"/>
      </g>
     </g>
    </g>
    <g id="ytick_6">
     <g id="line2d_23">
      <path d="M 139.8 181.532746 
L 686.972058 181.532746 
" clip-path="url(#p64637490c9)" style="fill: none; stroke: #cccccc; stroke-width: 0.8; stroke-linecap: round"/>
     </g>
     <g id="line2d_24"/>
     <g id="text_13">
      <!-- −50 -->
      <g style="fill: #262626" transform="translate(85.4125 192.269465)scale(0.3 -0.3)">
       <use xlink:href="#ArialMT-2212"/>
       <use xlink:href="#ArialMT-35" x="58.398438"/>
       <use xlink:href="#ArialMT-30" x="114.013672"/>
      </g>
     </g>
    </g>
    <g id="ytick_7">
     <g id="line2d_25">
      <path d="M 139.8 107.193095 
L 686.972058 107.193095 
" clip-path="url(#p64637490c9)" style="fill: none; stroke: #cccccc; stroke-width: 0.8; stroke-linecap: round"/>
     </g>
     <g id="line2d_26"/>
     <g id="text_14">
      <!-- 0 -->
      <g style="fill: #262626" transform="translate(119.617188 117.929813)scale(0.3 -0.3)">
       <use xlink:href="#ArialMT-30"/>
      </g>
     </g>
    </g>
    <g id="text_15">
     <!-- Reward -->
     <g style="fill: #262626" transform="translate(57.773438 400.305313)rotate(-90)scale(0.35 -0.35)">
      <defs>
       <path id="ArialMT-52" d="M 503 0 
L 503 4581 
L 2534 4581 
Q 3147 4581 3465 4457 
Q 3784 4334 3975 4021 
Q 4166 3709 4166 3331 
Q 4166 2844 3850 2509 
Q 3534 2175 2875 2084 
Q 3116 1969 3241 1856 
Q 3506 1613 3744 1247 
L 4541 0 
L 3778 0 
L 3172 953 
Q 2906 1366 2734 1584 
Q 2563 1803 2427 1890 
Q 2291 1978 2150 2013 
Q 2047 2034 1813 2034 
L 1109 2034 
L 1109 0 
L 503 0 
z
M 1109 2559 
L 2413 2559 
Q 2828 2559 3062 2645 
Q 3297 2731 3419 2920 
Q 3541 3109 3541 3331 
Q 3541 3656 3305 3865 
Q 3069 4075 2559 4075 
L 1109 4075 
L 1109 2559 
z
" transform="scale(0.015625)"/>
       <path id="ArialMT-77" d="M 1034 0 
L 19 3319 
L 600 3319 
L 1128 1403 
L 1325 691 
Q 1338 744 1497 1375 
L 2025 3319 
L 2603 3319 
L 3100 1394 
L 3266 759 
L 3456 1400 
L 4025 3319 
L 4572 3319 
L 3534 0 
L 2950 0 
L 2422 1988 
L 2294 2553 
L 1622 0 
L 1034 0 
z
" transform="scale(0.015625)"/>
       <path id="ArialMT-61" d="M 2588 409 
Q 2275 144 1986 34 
Q 1697 -75 1366 -75 
Q 819 -75 525 192 
Q 231 459 231 875 
Q 231 1119 342 1320 
Q 453 1522 633 1644 
Q 813 1766 1038 1828 
Q 1203 1872 1538 1913 
Q 2219 1994 2541 2106 
Q 2544 2222 2544 2253 
Q 2544 2597 2384 2738 
Q 2169 2928 1744 2928 
Q 1347 2928 1158 2789 
Q 969 2650 878 2297 
L 328 2372 
Q 403 2725 575 2942 
Q 747 3159 1072 3276 
Q 1397 3394 1825 3394 
Q 2250 3394 2515 3294 
Q 2781 3194 2906 3042 
Q 3031 2891 3081 2659 
Q 3109 2516 3109 2141 
L 3109 1391 
Q 3109 606 3145 398 
Q 3181 191 3288 0 
L 2700 0 
Q 2613 175 2588 409 
z
M 2541 1666 
Q 2234 1541 1622 1453 
Q 1275 1403 1131 1340 
Q 988 1278 909 1158 
Q 831 1038 831 891 
Q 831 666 1001 516 
Q 1172 366 1500 366 
Q 1825 366 2078 508 
Q 2331 650 2450 897 
Q 2541 1088 2541 1459 
L 2541 1666 
z
" transform="scale(0.015625)"/>
       <path id="ArialMT-72" d="M 416 0 
L 416 3319 
L 922 3319 
L 922 2816 
Q 1116 3169 1280 3281 
Q 1444 3394 1641 3394 
Q 1925 3394 2219 3213 
L 2025 2691 
Q 1819 2813 1613 2813 
Q 1428 2813 1281 2702 
Q 1134 2591 1072 2394 
Q 978 2094 978 1738 
L 978 0 
L 416 0 
z
" transform="scale(0.015625)"/>
      </defs>
      <use xlink:href="#ArialMT-52"/>
      <use xlink:href="#ArialMT-65" x="72.216797"/>
      <use xlink:href="#ArialMT-77" x="127.832031"/>
      <use xlink:href="#ArialMT-61" x="200.048828"/>
      <use xlink:href="#ArialMT-72" x="255.664062"/>
      <use xlink:href="#ArialMT-64" x="288.964844"/>
     </g>
    </g>
   </g>
   <g id="PolyCollection_1">
    <path d="M 164.671457 303.108087 
L 164.671457 594.55858 
L 165.668309 571.621167 
L 166.665161 550.547162 
L 167.662013 531.22865 
L 168.658865 513.557719 
L 169.655717 497.426455 
L 170.652569 482.726944 
L 171.649421 469.351274 
L 172.646273 457.191531 
L 173.643125 446.139801 
L 174.639977 432.273471 
L 175.636829 422.887783 
L 176.633681 414.083234 
L 177.630533 406.244975 
L 178.627385 398.456644 
L 179.624237 390.983816 
L 180.621089 390.532945 
L 181.617941 383.300126 
L 182.614793 381.977155 
L 183.611645 376.054164 
L 184.608497 377.513597 
L 185.605349 372.618947 
L 186.602201 367.737201 
L 187.599053 361.49893 
L 188.595905 362.464312 
L 189.592757 359.261976 
L 190.589609 358.110435 
L 191.586461 353.251401 
L 192.583313 351.649489 
L 193.580165 347.225846 
L 194.577017 340.263904 
L 195.573869 339.193516 
L 196.570721 337.04457 
L 197.567573 331.243342 
L 198.564425 327.52194 
L 199.561277 322.156905 
L 200.558129 317.646521 
L 201.554981 317.08258 
L 202.551833 314.627867 
L 203.548685 312.942822 
L 204.545537 307.849124 
L 205.542389 304.482306 
L 206.539241 300.893866 
L 207.536093 298.259653 
L 208.532945 297.408806 
L 209.529797 296.663867 
L 210.526649 295.481767 
L 211.523501 294.045414 
L 212.520353 292.301172 
L 213.517205 291.084728 
L 214.514057 291.107975 
L 215.510909 289.852349 
L 216.507761 289.881821 
L 217.504613 289.207183 
L 218.501465 290.267984 
L 219.498317 290.030591 
L 220.495169 291.339398 
L 221.492021 289.695044 
L 222.488873 288.616801 
L 223.485725 287.544823 
L 224.482577 286.516156 
L 225.479429 284.899435 
L 226.476281 284.135106 
L 227.473133 285.081179 
L 228.469985 283.530939 
L 229.466837 282.557453 
L 230.463689 279.465892 
L 231.460541 278.614248 
L 232.457393 275.454653 
L 233.454245 273.536369 
L 234.451097 272.182441 
L 235.447949 271.205962 
L 236.444801 268.350405 
L 237.441652 268.622438 
L 238.438504 266.417168 
L 239.435356 265.786685 
L 240.432208 265.144035 
L 241.42906 266.404879 
L 242.425912 264.65069 
L 243.422764 264.274766 
L 244.419616 262.985116 
L 245.416468 264.407799 
L 246.41332 264.074887 
L 247.410172 262.971404 
L 248.407024 262.433315 
L 249.403876 261.156836 
L 250.400728 260.038363 
L 251.39758 258.10371 
L 252.394432 256.897168 
L 253.391284 255.870255 
L 254.388136 254.617528 
L 255.384988 255.739193 
L 256.38184 256.63736 
L 257.378692 256.067732 
L 258.375544 256.328336 
L 259.372396 256.210423 
L 260.369248 255.897588 
L 261.3661 254.510445 
L 262.362952 255.023348 
L 263.359804 255.3661 
L 264.356656 256.678863 
L 265.353508 255.98537 
L 266.35036 256.271012 
L 267.347212 257.117836 
L 268.344064 254.861075 
L 269.340916 253.352251 
L 270.337768 252.751474 
L 271.33462 249.362145 
L 272.331472 247.98381 
L 273.328324 247.794441 
L 274.325176 248.038418 
L 275.322028 246.547281 
L 276.31888 247.242224 
L 277.315732 246.131357 
L 278.312584 244.690931 
L 279.309436 244.354522 
L 280.306288 244.920386 
L 281.30314 246.923417 
L 282.299992 247.938451 
L 283.296844 247.905813 
L 284.293696 247.414653 
L 285.290548 247.611189 
L 286.2874 246.641717 
L 287.284252 243.387005 
L 288.281104 242.58447 
L 289.277956 241.022018 
L 290.274808 238.834035 
L 291.27166 238.640718 
L 292.268512 237.94498 
L 293.265364 236.962056 
L 294.262216 236.751115 
L 295.259068 235.728985 
L 296.25592 232.617471 
L 297.252772 232.287256 
L 298.249624 231.953029 
L 299.246476 233.234654 
L 300.243328 233.771698 
L 301.24018 233.999681 
L 302.237032 234.288631 
L 303.233884 234.072183 
L 304.230736 232.983274 
L 305.227588 232.041729 
L 306.22444 230.926551 
L 307.221292 232.865667 
L 308.218144 233.868793 
L 309.214996 236.202652 
L 310.211848 236.28062 
L 311.2087 235.967712 
L 312.205552 235.848706 
L 313.202404 234.853981 
L 314.199256 233.388342 
L 315.196108 232.842987 
L 316.19296 234.330448 
L 317.189812 235.017329 
L 318.186664 235.272584 
L 319.183516 232.937944 
L 320.180368 233.544194 
L 321.17722 233.982915 
L 322.174072 233.079878 
L 323.170924 232.463605 
L 324.167776 233.606184 
L 325.164628 234.180185 
L 326.16148 236.240021 
L 327.158332 237.023965 
L 328.155184 236.570505 
L 329.152036 236.169806 
L 330.148888 235.69581 
L 331.14574 233.497358 
L 332.142592 231.215351 
L 333.139444 230.191863 
L 334.136296 228.245966 
L 335.133148 228.289584 
L 336.13 226.496932 
L 337.126852 224.423841 
L 338.123704 223.669771 
L 339.120556 226.635547 
L 340.117408 227.542289 
L 341.11426 227.283037 
L 342.111112 227.305095 
L 343.107964 227.540714 
L 344.104816 228.753914 
L 345.101668 230.557106 
L 346.098519 231.746347 
L 347.095371 231.70038 
L 348.092223 233.718867 
L 349.089075 231.556855 
L 350.085927 231.167964 
L 351.082779 231.104898 
L 352.079631 231.290859 
L 353.076483 230.086343 
L 354.073335 230.227686 
L 355.070187 229.602192 
L 356.067039 230.196361 
L 357.063891 230.55729 
L 358.060743 229.834115 
L 359.057595 229.11222 
L 360.054447 228.10297 
L 361.051299 226.127942 
L 362.048151 224.792887 
L 363.045003 227.29166 
L 364.041855 228.463645 
L 365.038707 227.715148 
L 366.035559 225.828169 
L 367.032411 226.596427 
L 368.029263 226.685965 
L 369.026115 229.700921 
L 370.022967 229.923483 
L 371.019819 229.009429 
L 372.016671 228.378597 
L 373.013523 228.190807 
L 374.010375 229.190345 
L 375.007227 228.809742 
L 376.004079 225.75962 
L 377.000931 224.470492 
L 377.997783 226.321828 
L 378.994635 225.636864 
L 379.991487 224.753883 
L 380.988339 226.326851 
L 381.985191 228.691593 
L 382.982043 230.536354 
L 383.978895 229.194148 
L 384.975747 230.425357 
L 385.972599 232.217485 
L 386.969451 232.741404 
L 387.966303 235.114631 
L 388.963155 234.694674 
L 389.960007 234.9776 
L 390.956859 235.256437 
L 391.953711 236.595752 
L 392.950563 237.095302 
L 393.947415 234.277373 
L 394.944267 233.264753 
L 395.941119 233.469967 
L 396.937971 233.847685 
L 397.934823 230.665762 
L 398.931675 232.48978 
L 399.928527 233.521757 
L 400.925379 233.919392 
L 401.922231 233.48988 
L 402.919083 231.414494 
L 403.915935 231.985711 
L 404.912787 231.499672 
L 405.909639 231.784658 
L 406.906491 232.640381 
L 407.903343 230.428637 
L 408.900195 231.007098 
L 409.897047 230.990777 
L 410.893899 232.282271 
L 411.890751 231.793677 
L 412.887603 229.390183 
L 413.884455 227.778857 
L 414.881307 225.80425 
L 415.878159 224.552219 
L 416.875011 225.186138 
L 417.871863 227.516249 
L 418.868715 228.418982 
L 419.865567 227.931097 
L 420.862419 227.278982 
L 421.859271 228.299931 
L 422.856123 229.603277 
L 423.852975 229.741195 
L 424.849827 229.392414 
L 425.846679 228.395478 
L 426.843531 227.783481 
L 427.840383 227.698005 
L 428.837235 227.102951 
L 429.834087 227.86888 
L 430.830939 227.372696 
L 431.827791 225.438458 
L 432.824643 227.069612 
L 433.821495 228.949344 
L 434.818347 229.635057 
L 435.815199 232.299448 
L 436.812051 232.505544 
L 437.808903 234.620819 
L 438.805755 233.603162 
L 439.802607 235.345352 
L 440.799459 236.585715 
L 441.796311 235.846387 
L 442.793163 236.080339 
L 443.790015 235.329943 
L 444.786867 234.413557 
L 445.783719 233.33213 
L 446.780571 233.3734 
L 447.777423 234.50668 
L 448.774275 234.972429 
L 449.771127 233.604481 
L 450.767979 233.431292 
L 451.764831 234.030476 
L 452.761683 233.218552 
L 453.758535 232.837497 
L 454.755386 233.5225 
L 455.752238 232.034657 
L 456.74909 230.65456 
L 457.745942 230.734478 
L 458.742794 231.573437 
L 459.739646 229.916886 
L 460.736498 229.830348 
L 461.73335 232.04356 
L 462.730202 231.093642 
L 463.727054 231.719778 
L 464.723906 231.559137 
L 465.720758 233.747337 
L 466.71761 234.177596 
L 467.714462 234.120474 
L 468.711314 234.228434 
L 469.708166 236.719277 
L 470.705018 238.178882 
L 471.70187 240.460411 
L 472.698722 240.004816 
L 473.695574 240.520672 
L 474.692426 240.038304 
L 475.689278 239.343991 
L 476.68613 240.768895 
L 477.682982 239.94325 
L 478.679834 239.361073 
L 479.676686 239.358012 
L 480.673538 238.147348 
L 481.67039 237.845607 
L 482.667242 237.684312 
L 483.664094 237.432559 
L 484.660946 237.368139 
L 485.657798 236.233198 
L 486.65465 235.840027 
L 487.651502 236.1163 
L 488.648354 237.820561 
L 489.645206 237.486448 
L 490.642058 236.24429 
L 491.63891 236.109972 
L 492.635762 236.63943 
L 493.632614 236.239275 
L 494.629466 234.691944 
L 495.626318 235.404975 
L 496.62317 236.832621 
L 497.620022 236.182917 
L 498.616874 235.14314 
L 499.613726 236.473147 
L 500.610578 236.934176 
L 501.60743 236.163635 
L 502.604282 235.627412 
L 503.601134 233.626499 
L 504.597986 231.946365 
L 505.594838 232.750818 
L 506.59169 233.95981 
L 507.588542 234.787479 
L 508.585394 235.397554 
L 509.582246 235.400394 
L 510.579098 237.819381 
L 511.57595 237.541047 
L 512.572802 238.470637 
L 513.569654 238.958776 
L 514.566506 241.176794 
L 515.563358 241.511141 
L 516.56021 240.162115 
L 517.557062 240.781513 
L 518.553914 241.438478 
L 519.550766 239.414503 
L 520.547618 240.375406 
L 521.54447 239.332037 
L 522.541322 238.072835 
L 523.538174 238.852508 
L 524.535026 239.723231 
L 525.531878 241.520442 
L 526.52873 241.321367 
L 527.525582 241.29978 
L 528.522434 240.598576 
L 529.519286 240.674001 
L 530.516138 240.780555 
L 531.51299 240.659068 
L 532.509842 239.485728 
L 533.506694 237.3144 
L 534.503546 234.57827 
L 535.500398 235.694406 
L 536.49725 236.90115 
L 537.494102 237.254927 
L 538.490954 235.298138 
L 539.487806 236.49465 
L 540.484658 236.047517 
L 541.48151 237.771273 
L 542.478362 238.111324 
L 543.475214 239.466101 
L 544.472066 240.8425 
L 545.468918 240.569133 
L 546.46577 241.009248 
L 547.462622 240.48191 
L 548.459474 241.473709 
L 549.456326 241.901898 
L 550.453178 240.104035 
L 551.45003 238.250219 
L 552.446882 235.778968 
L 553.443734 235.517021 
L 554.440586 237.481541 
L 555.437438 236.812456 
L 556.43429 234.549918 
L 557.431142 233.845821 
L 558.427994 234.694354 
L 559.424846 235.213031 
L 560.421698 235.396635 
L 561.41855 235.016339 
L 562.415402 236.618082 
L 563.412253 234.796109 
L 564.409105 235.442352 
L 565.405957 235.660447 
L 566.402809 234.387838 
L 567.399661 235.072031 
L 568.396513 234.874827 
L 569.393365 232.862239 
L 570.390217 231.853529 
L 571.387069 230.335129 
L 572.383921 230.454664 
L 573.380773 230.252186 
L 574.377625 231.851693 
L 575.374477 233.925414 
L 576.371329 235.592431 
L 577.368181 236.224469 
L 578.365033 237.44989 
L 579.361885 236.910823 
L 580.358737 237.739874 
L 581.355589 238.662317 
L 582.352441 238.806945 
L 583.349293 241.421895 
L 584.346145 242.074352 
L 585.342997 241.780877 
L 586.339849 241.222057 
L 587.336701 240.625797 
L 588.333553 239.097394 
L 589.330405 237.487579 
L 590.327257 236.049471 
L 591.324109 235.000479 
L 592.320961 235.315455 
L 593.317813 237.603518 
L 594.314665 237.371037 
L 595.311517 235.895031 
L 596.308369 235.757308 
L 597.305221 234.821284 
L 598.302073 232.913365 
L 599.298925 233.396064 
L 600.295777 234.903359 
L 601.292629 234.846388 
L 602.289481 235.25971 
L 603.286333 236.111778 
L 604.283185 237.007657 
L 605.280037 237.022138 
L 606.276889 237.838588 
L 607.273741 238.033358 
L 608.270593 236.779998 
L 609.267445 237.237515 
L 610.264297 236.102745 
L 611.261149 236.853601 
L 612.258001 235.203929 
L 613.254853 234.350203 
L 614.251705 233.811004 
L 615.248557 233.45386 
L 616.245409 232.706814 
L 617.242261 231.310253 
L 618.239113 231.59222 
L 619.235965 232.25973 
L 620.232817 230.734654 
L 621.229669 230.267382 
L 622.226521 230.511516 
L 623.223373 229.130333 
L 624.220225 226.46876 
L 625.217077 225.201031 
L 626.213929 223.4147 
L 627.210781 223.175158 
L 628.207633 222.827735 
L 629.204485 221.76078 
L 630.201337 222.352147 
L 631.198189 221.098523 
L 632.195041 223.41229 
L 633.191893 224.874355 
L 634.188745 225.021977 
L 635.185597 225.805755 
L 636.182449 226.875364 
L 637.179301 226.360557 
L 638.176153 226.443705 
L 639.173005 225.914057 
L 640.169857 225.233832 
L 641.166709 225.274659 
L 642.163561 222.626925 
L 643.160413 222.060008 
L 644.157265 222.529756 
L 645.154117 222.258891 
L 646.150969 222.307807 
L 647.147821 221.471272 
L 648.144673 220.671802 
L 649.141525 221.581788 
L 650.138377 220.556466 
L 651.135229 221.046612 
L 652.132081 219.71138 
L 653.128933 218.801397 
L 654.125785 217.352162 
L 655.122637 215.931977 
L 656.119489 214.61999 
L 657.116341 213.495344 
L 658.113193 212.637186 
L 659.110045 212.124661 
L 660.106897 212.036915 
L 661.103749 212.453094 
L 662.100601 213.452342 
L 662.100601 126.208783 
L 662.100601 126.208783 
L 661.103749 124.314064 
L 660.106897 123.013302 
L 659.110045 122.227299 
L 658.113193 121.876854 
L 657.116341 121.882768 
L 656.119489 122.165841 
L 655.122637 122.646875 
L 654.125785 123.246669 
L 653.128933 123.886024 
L 652.132081 123.996583 
L 651.135229 124.542792 
L 650.138377 123.273972 
L 649.141525 123.530914 
L 648.144673 121.862789 
L 647.147821 121.914307 
L 646.150969 122.013021 
L 645.154117 121.236363 
L 644.157265 120.789511 
L 643.160413 119.612016 
L 642.163561 119.481104 
L 641.166709 121.440871 
L 640.169857 120.721885 
L 639.173005 120.733707 
L 638.176153 120.604653 
L 637.179301 119.87245 
L 636.182449 119.747795 
L 635.185597 118.048263 
L 634.188745 116.644048 
L 633.191893 115.88542 
L 632.195041 113.821726 
L 631.198189 110.915654 
L 630.201337 111.586242 
L 629.204485 110.421055 
L 628.207633 110.923352 
L 627.210781 110.715224 
L 626.213929 110.40827 
L 625.217077 111.657105 
L 624.220225 112.396282 
L 623.223373 114.538197 
L 622.226521 115.408559 
L 621.229669 114.662389 
L 620.232817 114.636354 
L 619.235965 115.676801 
L 618.239113 114.533282 
L 617.242261 113.783877 
L 616.245409 114.721514 
L 615.248557 115.018095 
L 614.251705 114.933182 
L 613.254853 115.038676 
L 612.258001 115.466996 
L 611.261149 116.699507 
L 610.264297 115.539681 
L 609.267445 116.273619 
L 608.270593 115.423351 
L 607.273741 116.291991 
L 606.276889 115.720474 
L 605.280037 114.5352 
L 604.283185 114.159761 
L 603.286333 112.910739 
L 602.289481 111.713287 
L 601.292629 110.962286 
L 600.295777 110.68923 
L 599.298925 108.859505 
L 598.302073 108.06192 
L 597.305221 109.662443 
L 596.308369 110.298508 
L 595.311517 110.143652 
L 594.314665 111.334408 
L 593.317813 111.288913 
L 592.320961 108.730095 
L 591.324109 108.151528 
L 590.327257 108.944043 
L 589.330405 110.132731 
L 588.333553 111.500132 
L 587.336701 112.793071 
L 586.339849 113.160763 
L 585.342997 113.497858 
L 584.346145 113.576397 
L 583.349293 112.715738 
L 582.352441 109.899268 
L 581.355589 109.559745 
L 580.358737 108.448981 
L 579.361885 107.438128 
L 578.365033 107.801859 
L 577.368181 106.407512 
L 576.371329 105.612906 
L 575.374477 103.789623 
L 574.377625 101.565887 
L 573.380773 99.822559 
L 572.383921 99.887359 
L 571.387069 99.636232 
L 570.390217 101.029075 
L 569.393365 101.918207 
L 568.396513 103.817142 
L 567.399661 103.906566 
L 566.402809 103.12041 
L 565.405957 104.296821 
L 564.409105 103.988237 
L 563.412253 103.257161 
L 562.415402 104.999905 
L 561.41855 103.324479 
L 560.421698 103.636588 
L 559.424846 103.390236 
L 558.427994 102.814199 
L 557.431142 101.913637 
L 556.43429 102.570985 
L 555.437438 104.791998 
L 554.440586 105.424729 
L 553.443734 103.42897 
L 552.446882 103.664743 
L 551.45003 106.114828 
L 550.453178 107.952434 
L 549.456326 109.738986 
L 548.459474 109.304335 
L 547.462622 108.310866 
L 546.46577 108.841274 
L 545.468918 108.408915 
L 544.472066 108.694667 
L 543.475214 107.335233 
L 542.478362 106.001943 
L 541.48151 105.68785 
L 540.484658 103.994467 
L 539.487806 104.476333 
L 538.490954 103.318864 
L 537.494102 105.31895 
L 536.49725 105.012668 
L 535.500398 103.857566 
L 534.503546 102.797164 
L 533.506694 105.593067 
L 532.509842 107.828151 
L 531.51299 109.069179 
L 530.516138 109.262229 
L 529.519286 109.23106 
L 528.522434 109.234789 
L 527.525582 110.018862 
L 526.52873 110.126978 
L 525.531878 110.41619 
L 524.535026 108.712667 
L 523.538174 107.939132 
L 522.541322 107.26009 
L 521.54447 108.623316 
L 520.547618 109.774045 
L 519.550766 108.923786 
L 518.553914 111.061634 
L 517.557062 110.521716 
L 516.56021 110.022487 
L 515.563358 111.49475 
L 514.566506 111.286652 
L 513.569654 109.197844 
L 512.572802 108.841821 
L 511.57595 108.047196 
L 510.579098 108.463295 
L 509.582246 106.184816 
L 508.585394 106.325174 
L 507.588542 105.860933 
L 506.59169 105.18168 
L 505.594838 104.123631 
L 504.597986 103.472596 
L 503.601134 105.308569 
L 502.604282 107.467686 
L 501.60743 108.164426 
L 500.610578 109.097742 
L 499.613726 108.801692 
L 498.616874 107.638815 
L 497.620022 108.847819 
L 496.62317 109.668792 
L 495.626318 108.414404 
L 494.629466 107.876565 
L 493.632614 109.600971 
L 492.635762 110.180026 
L 491.63891 109.831242 
L 490.642058 110.147952 
L 489.645206 111.574168 
L 488.648354 112.09395 
L 487.651502 110.576915 
L 486.65465 110.489372 
L 485.657798 111.072721 
L 484.660946 112.399237 
L 483.664094 112.656573 
L 482.667242 113.102529 
L 481.67039 113.459262 
L 480.673538 113.957619 
L 479.676686 115.366026 
L 478.679834 115.567901 
L 477.682982 116.349911 
L 476.68613 117.376353 
L 475.689278 116.153155 
L 474.692426 117.05003 
L 473.695574 117.735764 
L 472.698722 117.424021 
L 471.70187 118.084424 
L 470.705018 116.008342 
L 469.708166 114.754772 
L 468.711314 112.470496 
L 467.714462 112.569582 
L 466.71761 112.834174 
L 465.720758 112.611756 
L 464.723906 110.631714 
L 463.727054 111.000776 
L 462.730202 110.58327 
L 461.73335 111.741972 
L 460.736498 109.737646 
L 459.739646 110.033117 
L 458.742794 111.898595 
L 457.745942 111.268501 
L 456.74909 111.397333 
L 455.752238 112.986013 
L 454.755386 114.682216 
L 453.758535 114.205296 
L 452.761683 114.794104 
L 451.764831 115.813397 
L 450.767979 115.421144 
L 449.771127 115.800771 
L 448.774275 117.374611 
L 447.777423 117.114154 
L 446.780571 116.185513 
L 445.783719 116.348173 
L 444.786867 117.632769 
L 443.790015 118.751507 
L 442.793163 119.703387 
L 441.796311 119.669994 
L 440.799459 120.608904 
L 439.802607 119.567091 
L 438.805755 118.022366 
L 437.808903 119.236349 
L 436.812051 117.316206 
L 435.815199 117.303995 
L 434.818347 114.832189 
L 433.821495 114.337704 
L 432.824643 112.647792 
L 431.827791 111.204995 
L 430.830939 113.326074 
L 429.834087 114.007527 
L 428.837235 113.425242 
L 427.840383 114.202262 
L 426.843531 114.467971 
L 425.846679 115.258416 
L 424.849827 116.431958 
L 423.852975 116.955451 
L 422.856123 116.990297 
L 421.859271 115.857712 
L 420.862419 115.005468 
L 419.865567 115.824178 
L 418.868715 116.476495 
L 417.871863 115.735974 
L 416.875011 113.565804 
L 415.878159 113.0895 
L 414.881307 114.496767 
L 413.884455 116.624175 
L 412.887603 118.385816 
L 411.890751 120.937082 
L 410.893899 121.570853 
L 409.897047 120.421886 
L 408.900195 120.578031 
L 407.903343 120.136637 
L 406.906491 122.482637 
L 405.909639 121.758304 
L 404.912787 121.601789 
L 403.915935 122.213326 
L 402.919083 121.764581 
L 401.922231 123.959357 
L 400.925379 124.505125 
L 399.928527 124.220556 
L 398.931675 123.298404 
L 397.934823 121.580913 
L 396.937971 124.866013 
L 395.941119 124.588066 
L 394.944267 124.479167 
L 393.947415 125.584588 
L 392.950563 128.491752 
L 391.953711 128.077818 
L 390.956859 126.820443 
L 389.960007 126.619819 
L 388.963155 126.411324 
L 387.966303 126.901876 
L 386.969451 124.595354 
L 385.972599 124.134196 
L 384.975747 122.40083 
L 383.978895 121.224333 
L 382.982043 122.617146 
L 381.985191 120.818831 
L 380.988339 118.496322 
L 379.991487 116.961319 
L 378.994635 117.877944 
L 377.997783 118.592178 
L 377.000931 116.765681 
L 376.004079 118.075165 
L 375.007227 121.141107 
L 374.010375 121.532939 
L 373.013523 120.539984 
L 372.016671 120.729659 
L 371.019819 121.357623 
L 370.022967 122.264001 
L 369.026115 122.028904 
L 368.029263 118.996499 
L 367.032411 118.884542 
L 366.035559 118.088843 
L 365.038707 119.943304 
L 364.041855 120.654153 
L 363.045003 119.439336 
L 362.048151 116.892493 
L 361.051299 118.174185 
L 360.054447 120.090505 
L 359.057595 121.035646 
L 358.060743 121.687978 
L 357.063891 122.336083 
L 356.067039 121.894523 
L 355.070187 121.214105 
L 354.073335 121.747682 
L 353.076483 121.508698 
L 352.079631 122.609796 
L 351.082779 122.314585 
L 350.085927 122.262516 
L 349.089075 122.530331 
L 348.092223 124.565276 
L 347.095371 122.413674 
L 346.098519 122.320424 
L 345.101668 120.985813 
L 344.104816 119.03104 
L 343.107964 117.659997 
L 342.111112 117.260218 
L 341.11426 117.06763 
L 340.117408 117.149926 
L 339.120556 116.05975 
L 338.123704 112.904007 
L 337.126852 113.461525 
L 336.13 115.331422 
L 335.133148 116.914186 
L 334.136296 116.653931 
L 333.139444 118.37639 
L 332.142592 119.169584 
L 331.14574 121.214386 
L 330.148888 123.168669 
L 329.152036 123.391479 
L 328.155184 123.533919 
L 327.158332 123.721994 
L 326.16148 122.665486 
L 325.164628 120.325853 
L 324.167776 119.464767 
L 323.170924 118.02776 
L 322.174072 118.342211 
L 321.17722 118.935976 
L 320.180368 118.180479 
L 319.183516 117.249897 
L 318.186664 119.252593 
L 317.189812 118.65773 
L 316.19296 117.623521 
L 315.196108 115.780959 
L 314.199256 115.963386 
L 313.202404 117.058217 
L 312.205552 117.674198 
L 311.2087 117.406472 
L 310.211848 117.324605 
L 309.214996 116.843766 
L 308.218144 114.098885 
L 307.221292 112.676532 
L 306.22444 110.309931 
L 305.227588 110.989312 
L 304.230736 111.486693 
L 303.233884 112.123018 
L 302.237032 111.878409 
L 301.24018 111.119873 
L 300.243328 110.413722 
L 299.246476 109.389874 
L 298.249624 107.612755 
L 297.252772 107.442745 
L 296.25592 107.259925 
L 295.259068 109.849552 
L 294.262216 110.34089 
L 293.265364 110.012079 
L 292.268512 110.446237 
L 291.27166 110.584143 
L 290.274808 110.210506 
L 289.277956 111.822359 
L 288.281104 112.799453 
L 287.284252 113.007346 
L 286.2874 115.65808 
L 285.290548 116.014183 
L 284.293696 115.194832 
L 283.296844 115.053679 
L 282.299992 114.44445 
L 281.30314 112.777944 
L 280.306288 110.11378 
L 279.309436 108.877067 
L 278.312584 108.53286 
L 277.315732 109.282847 
L 276.31888 109.693399 
L 275.322028 108.28821 
L 274.325176 109.059117 
L 273.328324 108.084872 
L 272.331472 107.533882 
L 271.33462 108.161711 
L 270.337768 110.790333 
L 269.340916 110.620151 
L 268.344064 111.347708 
L 267.347212 112.812838 
L 266.35036 111.163969 
L 265.353508 110.065812 
L 264.356656 109.936267 
L 263.359804 107.789889 
L 262.362952 106.602889 
L 261.3661 105.235054 
L 260.369248 105.756526 
L 259.372396 105.192895 
L 258.375544 104.423496 
L 257.378692 103.264679 
L 256.38184 102.925139 
L 255.384988 101.106794 
L 254.388136 99.053889 
L 253.391284 99.36426 
L 252.394432 99.437645 
L 251.39758 99.679435 
L 250.400728 100.638057 
L 249.403876 100.769167 
L 248.407024 101.046896 
L 247.410172 100.574795 
L 246.41332 100.656593 
L 245.416468 99.956273 
L 244.419616 97.488754 
L 243.422764 97.721914 
L 242.425912 97.029636 
L 241.42906 97.70386 
L 240.432208 95.351233 
L 239.435356 94.890228 
L 238.438504 94.40513 
L 237.441652 95.48284 
L 236.444801 94.071213 
L 235.447949 95.775088 
L 234.451097 95.587744 
L 233.454245 95.765653 
L 232.457393 96.49567 
L 231.460541 98.454693 
L 230.463689 98.093408 
L 229.466837 99.95963 
L 228.469985 99.695311 
L 227.473133 99.995228 
L 226.476281 97.786257 
L 225.479429 97.275062 
L 224.482577 97.603579 
L 223.485725 97.331307 
L 222.488873 97.089557 
L 221.492021 96.841229 
L 220.495169 97.146116 
L 219.498317 94.484891 
L 218.501465 93.356862 
L 217.504613 90.91758 
L 216.507761 90.200625 
L 215.510909 88.766394 
L 214.514057 88.604042 
L 213.517205 87.149541 
L 212.520353 86.921404 
L 211.523501 87.207682 
L 210.526649 87.172636 
L 209.529797 86.869848 
L 208.532945 86.116354 
L 207.536093 85.45517 
L 206.539241 86.563702 
L 205.542389 88.612754 
L 204.545537 90.426425 
L 203.548685 93.953162 
L 202.551833 94.05738 
L 201.554981 94.917344 
L 200.558129 93.872561 
L 199.561277 96.760191 
L 198.564425 100.48839 
L 197.567573 102.558818 
L 196.570721 106.694882 
L 195.573869 107.164418 
L 194.577017 106.541099 
L 193.580165 111.79498 
L 192.583313 114.496156 
L 191.586461 114.361139 
L 190.589609 117.468731 
L 189.592757 116.854261 
L 188.595905 118.275964 
L 187.599053 115.515272 
L 186.602201 119.943502 
L 185.605349 123.000425 
L 184.608497 126.055413 
L 183.611645 122.741425 
L 182.614793 126.794915 
L 181.617941 126.233386 
L 180.621089 131.566651 
L 179.624237 130.10286 
L 178.627385 135.645865 
L 177.630533 141.489157 
L 176.633681 147.367107 
L 175.636829 154.196023 
L 174.639977 161.590701 
L 173.643125 173.45059 
L 172.646273 182.480393 
L 171.649421 192.602671 
L 170.652569 203.925282 
L 169.655717 216.556087 
L 168.658865 230.602944 
L 167.662013 246.173713 
L 166.665161 263.376254 
L 165.668309 282.318426 
L 164.671457 303.108087 
z
" clip-path="url(#p64637490c9)" style="fill: #1f77b4; fill-opacity: 0.5"/>
   </g>
   <g id="line2d_27">
    <path d="M 164.671457 448.833333 
L 166.665161 406.961708 
L 168.658865 372.080331 
L 170.652569 343.326113 
L 172.646273 319.835962 
L 173.643125 309.795196 
L 174.639977 296.932086 
L 176.633681 280.72517 
L 179.624237 260.543338 
L 180.621089 261.049798 
L 181.617941 254.766756 
L 182.614793 254.386035 
L 183.611645 249.397794 
L 184.608497 251.784505 
L 186.602201 243.840352 
L 187.599053 238.507101 
L 188.595905 240.370138 
L 189.592757 238.058118 
L 190.589609 237.789583 
L 191.586461 233.80627 
L 192.583313 233.072822 
L 193.580165 229.510413 
L 194.577017 223.402502 
L 195.573869 223.178967 
L 196.570721 221.869726 
L 197.567573 216.90108 
L 198.564425 214.005165 
L 199.561277 209.458548 
L 200.558129 205.759541 
L 201.554981 205.999962 
L 202.551833 204.342624 
L 203.548685 203.447992 
L 204.545537 199.137774 
L 206.539241 193.728784 
L 207.536093 191.857412 
L 209.529797 191.766858 
L 210.526649 191.327201 
L 211.523501 190.626548 
L 212.520353 189.611288 
L 213.517205 189.117134 
L 214.514057 189.856009 
L 215.510909 189.309372 
L 216.507761 190.041223 
L 217.504613 190.062382 
L 218.501465 191.812423 
L 219.498317 192.257741 
L 220.495169 194.242757 
L 221.492021 193.268136 
L 224.482577 192.059868 
L 225.479429 191.087249 
L 226.476281 190.960681 
L 227.473133 192.538203 
L 228.469985 191.613125 
L 229.466837 191.258541 
L 230.463689 188.77965 
L 231.460541 188.53447 
L 232.457393 185.975162 
L 233.454245 184.651011 
L 234.451097 183.885093 
L 235.447949 183.490525 
L 236.444801 181.210809 
L 237.441652 182.052639 
L 238.438504 180.411149 
L 240.432208 180.247634 
L 241.42906 182.054369 
L 242.425912 180.840163 
L 243.422764 180.99834 
L 244.419616 180.236935 
L 245.416468 182.182036 
L 246.41332 182.36574 
L 247.410172 181.7731 
L 248.407024 181.740106 
L 249.403876 180.963001 
L 250.400728 180.33821 
L 251.39758 178.891572 
L 252.394432 178.167406 
L 253.391284 177.617257 
L 254.388136 176.835708 
L 255.384988 178.422993 
L 256.38184 179.781249 
L 257.378692 179.666205 
L 258.375544 180.375916 
L 259.372396 180.701659 
L 260.369248 180.827057 
L 261.3661 179.872749 
L 262.362952 180.813119 
L 263.359804 181.577995 
L 264.356656 183.307565 
L 265.353508 183.025591 
L 266.35036 183.71749 
L 267.347212 184.965337 
L 268.344064 183.104392 
L 269.340916 181.986201 
L 270.337768 181.770904 
L 271.33462 178.761928 
L 272.331472 177.758846 
L 273.328324 177.939656 
L 274.325176 178.548768 
L 275.322028 177.417745 
L 276.31888 178.467812 
L 277.315732 177.707102 
L 278.312584 176.611896 
L 279.309436 176.615795 
L 280.306288 177.517083 
L 281.30314 179.850681 
L 282.299992 181.191451 
L 283.296844 181.479746 
L 284.293696 181.304743 
L 285.290548 181.812686 
L 286.2874 181.149899 
L 287.284252 178.197176 
L 288.281104 177.691962 
L 289.277956 176.422188 
L 290.274808 174.522271 
L 291.27166 174.61243 
L 292.268512 174.195609 
L 293.265364 173.487068 
L 294.262216 173.546003 
L 295.259068 172.789269 
L 296.25592 169.938698 
L 298.249624 169.782892 
L 299.246476 171.312264 
L 300.243328 172.09271 
L 302.237032 173.08352 
L 303.233884 173.0976 
L 306.22444 170.618241 
L 307.221292 172.7711 
L 308.218144 173.983839 
L 309.214996 176.523209 
L 310.211848 176.802613 
L 311.2087 176.687092 
L 312.205552 176.761452 
L 313.202404 175.956099 
L 314.199256 174.675864 
L 315.196108 174.311973 
L 316.19296 175.976985 
L 317.189812 176.837529 
L 318.186664 177.262589 
L 319.183516 175.09392 
L 320.180368 175.862337 
L 321.17722 176.459446 
L 322.174072 175.711045 
L 323.170924 175.245683 
L 324.167776 176.535475 
L 325.164628 177.253019 
L 326.16148 179.452753 
L 327.158332 180.37298 
L 330.148888 179.432239 
L 332.142592 175.192467 
L 333.139444 174.284126 
L 334.136296 172.449948 
L 335.133148 172.601885 
L 336.13 170.914177 
L 337.126852 168.942683 
L 338.123704 168.286889 
L 339.120556 171.347648 
L 340.117408 172.346107 
L 341.11426 172.175333 
L 342.111112 172.282657 
L 343.107964 172.600355 
L 344.104816 173.892477 
L 345.101668 175.77146 
L 346.098519 177.033385 
L 347.095371 177.057027 
L 348.092223 179.142072 
L 349.089075 177.043593 
L 350.085927 176.71524 
L 351.082779 176.709741 
L 352.079631 176.950328 
L 353.076483 175.797521 
L 354.073335 175.987684 
L 355.070187 175.408148 
L 356.067039 176.045442 
L 357.063891 176.446687 
L 359.057595 175.073933 
L 360.054447 174.096737 
L 361.051299 172.151064 
L 362.048151 170.84269 
L 363.045003 173.365498 
L 364.041855 174.558899 
L 365.038707 173.829226 
L 366.035559 171.958506 
L 367.032411 172.740484 
L 368.029263 172.841232 
L 369.026115 175.864913 
L 370.022967 176.093742 
L 371.019819 175.183526 
L 372.016671 174.554128 
L 373.013523 174.365396 
L 374.010375 175.361642 
L 375.007227 174.975424 
L 376.004079 171.917392 
L 377.000931 170.618086 
L 377.997783 172.457003 
L 378.994635 171.757404 
L 379.991487 170.857601 
L 380.988339 172.411586 
L 381.985191 174.755212 
L 382.982043 176.57675 
L 383.978895 175.209241 
L 384.975747 176.413094 
L 385.972599 178.17584 
L 386.969451 178.668379 
L 387.966303 181.008253 
L 388.963155 180.552999 
L 390.956859 181.03844 
L 391.953711 182.336785 
L 392.950563 182.793527 
L 393.947415 179.930981 
L 394.944267 178.87196 
L 395.941119 179.029016 
L 396.937971 179.356849 
L 397.934823 176.123337 
L 398.931675 177.894092 
L 399.928527 178.871157 
L 400.925379 179.212258 
L 401.922231 178.724619 
L 402.919083 176.589537 
L 403.915935 177.099519 
L 404.912787 176.55073 
L 405.909639 176.771481 
L 406.906491 177.561509 
L 407.903343 175.282637 
L 408.900195 175.792564 
L 409.897047 175.706332 
L 410.893899 176.926562 
L 411.890751 176.365379 
L 412.887603 173.888 
L 413.884455 172.201516 
L 414.881307 170.150509 
L 415.878159 168.820859 
L 416.875011 169.375971 
L 417.871863 171.626112 
L 418.868715 172.447739 
L 419.865567 171.877637 
L 420.862419 171.142225 
L 421.859271 172.078822 
L 422.856123 173.296787 
L 423.852975 173.348323 
L 424.849827 172.912186 
L 425.846679 171.826947 
L 426.843531 171.125726 
L 427.840383 170.950133 
L 428.837235 170.264096 
L 429.834087 170.938204 
L 430.830939 170.349385 
L 431.827791 168.321727 
L 432.824643 169.858702 
L 433.821495 171.643524 
L 434.818347 172.233623 
L 435.815199 174.801722 
L 436.812051 174.910875 
L 437.808903 176.928584 
L 438.805755 175.812764 
L 439.802607 177.456222 
L 440.799459 178.597309 
L 441.796311 177.758191 
L 442.793163 177.891863 
L 443.790015 177.040725 
L 444.786867 176.023163 
L 445.783719 174.840152 
L 446.780571 174.779456 
L 447.777423 175.810417 
L 448.774275 176.17352 
L 449.771127 174.702626 
L 450.767979 174.426218 
L 451.764831 174.921937 
L 452.761683 174.006328 
L 453.758535 173.521396 
L 454.755386 174.102358 
L 456.74909 171.025947 
L 457.745942 171.001489 
L 458.742794 171.736016 
L 459.739646 169.975001 
L 460.736498 169.783997 
L 461.73335 171.892766 
L 462.730202 170.838456 
L 463.727054 171.360277 
L 464.723906 171.095426 
L 465.720758 173.179547 
L 466.71761 173.505885 
L 467.714462 173.345028 
L 468.711314 173.349465 
L 469.708166 175.737025 
L 470.705018 177.093612 
L 471.70187 179.272417 
L 472.698722 178.714418 
L 473.695574 179.128218 
L 474.692426 178.544167 
L 475.689278 177.748573 
L 476.68613 179.072624 
L 477.682982 178.14658 
L 478.679834 177.464487 
L 479.676686 177.362019 
L 480.673538 176.052484 
L 481.67039 175.652434 
L 484.660946 174.883688 
L 485.657798 173.65296 
L 486.65465 173.164699 
L 487.651502 173.346608 
L 488.648354 174.957256 
L 489.645206 174.530308 
L 490.642058 173.196121 
L 491.63891 172.970607 
L 492.635762 173.409728 
L 493.632614 172.920123 
L 494.629466 171.284255 
L 495.626318 171.909689 
L 496.62317 173.250707 
L 497.620022 172.515368 
L 498.616874 171.390977 
L 499.613726 172.63742 
L 500.610578 173.015959 
L 501.60743 172.164031 
L 502.604282 171.547549 
L 503.601134 169.467534 
L 504.597986 167.709481 
L 505.594838 168.437224 
L 506.59169 169.570745 
L 507.588542 170.324206 
L 508.585394 170.861364 
L 509.582246 170.792605 
L 510.579098 173.141338 
L 511.57595 172.794121 
L 512.572802 173.656229 
L 513.569654 174.07831 
L 514.566506 176.231723 
L 515.563358 176.502945 
L 516.56021 175.092301 
L 518.553914 176.250056 
L 519.550766 174.169144 
L 520.547618 175.074725 
L 521.54447 173.977677 
L 522.541322 172.666463 
L 524.535026 174.217949 
L 525.531878 175.968316 
L 526.52873 175.724173 
L 527.525582 175.659321 
L 528.522434 174.916682 
L 530.516138 175.021392 
L 531.51299 174.864123 
L 532.509842 173.65694 
L 533.506694 171.453734 
L 534.503546 168.687717 
L 536.49725 170.956909 
L 537.494102 171.286938 
L 538.490954 169.308501 
L 539.487806 170.485492 
L 540.484658 170.020992 
L 541.48151 171.729561 
L 542.478362 172.056634 
L 544.472066 174.768583 
L 545.468918 174.489024 
L 546.46577 174.925261 
L 547.462622 174.396388 
L 548.459474 175.389022 
L 549.456326 175.820442 
L 551.45003 172.182524 
L 552.446882 169.721855 
L 553.443734 169.472995 
L 554.440586 171.453135 
L 555.437438 170.802227 
L 556.43429 168.560451 
L 557.431142 167.879729 
L 558.427994 168.754276 
L 559.424846 169.301633 
L 560.421698 169.516611 
L 561.41855 169.170409 
L 562.415402 170.808993 
L 563.412253 169.026635 
L 564.409105 169.715295 
L 565.405957 169.978634 
L 566.402809 168.754124 
L 567.399661 169.489299 
L 568.396513 169.345985 
L 569.393365 167.390223 
L 570.390217 166.441302 
L 571.387069 164.98568 
L 572.383921 165.171011 
L 573.380773 165.037373 
L 574.377625 166.70879 
L 575.374477 168.857519 
L 576.371329 170.602669 
L 577.368181 171.315991 
L 578.365033 172.625874 
L 579.361885 172.174476 
L 581.355589 174.111031 
L 582.352441 174.353106 
L 583.349293 177.068816 
L 584.346145 177.825374 
L 585.342997 177.639368 
L 587.336701 176.709434 
L 590.327257 172.496757 
L 591.324109 171.576003 
L 592.320961 172.022775 
L 593.317813 174.446215 
L 594.314665 174.352723 
L 595.311517 173.019341 
L 596.308369 173.027908 
L 597.305221 172.241863 
L 598.302073 170.487643 
L 599.298925 171.127784 
L 600.295777 172.796294 
L 601.292629 172.904337 
L 602.289481 173.486498 
L 604.283185 175.583709 
L 605.280037 175.778669 
L 606.276889 176.779531 
L 607.273741 177.162674 
L 608.270593 176.101674 
L 609.267445 176.755567 
L 610.264297 175.821213 
L 611.261149 176.776554 
L 612.258001 175.335462 
L 613.254853 174.69444 
L 614.251705 174.372093 
L 615.248557 174.235978 
L 616.245409 173.714164 
L 617.242261 172.547065 
L 618.239113 173.062751 
L 619.235965 173.968265 
L 620.232817 172.685504 
L 621.229669 172.464885 
L 622.226521 172.960037 
L 623.223373 171.834265 
L 624.220225 169.432521 
L 625.217077 168.429068 
L 626.213929 166.911485 
L 628.207633 166.875543 
L 629.204485 166.090918 
L 630.201337 166.969195 
L 631.198189 166.007089 
L 632.195041 168.617008 
L 633.191893 170.379888 
L 634.188745 170.833013 
L 635.185597 171.927009 
L 636.182449 173.311579 
L 637.179301 173.116504 
L 638.176153 173.524179 
L 639.173005 173.323882 
L 640.169857 172.977859 
L 641.166709 173.357765 
L 642.163561 171.054015 
L 643.160413 170.836012 
L 644.157265 171.659633 
L 645.154117 171.747627 
L 646.150969 172.160414 
L 648.144673 171.267295 
L 649.141525 172.556351 
L 650.138377 171.915219 
L 651.135229 172.794702 
L 652.132081 171.853981 
L 653.128933 171.34371 
L 655.122637 169.289426 
L 656.119489 168.392915 
L 657.116341 167.689056 
L 658.113193 167.25702 
L 659.110045 167.17598 
L 660.106897 167.525109 
L 661.103749 168.383579 
L 662.100601 169.830562 
L 662.100601 169.830562 
" clip-path="url(#p64637490c9)" style="fill: none; stroke: #1f77b4; stroke-width: 1.5; stroke-linecap: round"/>
   </g>
   <g id="patch_3">
    <path d="M 139.8 620.01375 
L 139.8 60 
" style="fill: none; stroke: #cccccc; stroke-linejoin: miter; stroke-linecap: square"/>
   </g>
   <g id="patch_4">
    <path d="M 686.972058 620.01375 
L 686.972058 60 
" style="fill: none; stroke: #cccccc; stroke-linejoin: miter; stroke-linecap: square"/>
   </g>
   <g id="patch_5">
    <path d="M 139.8 620.01375 
L 686.972058 620.01375 
" style="fill: none; stroke: #cccccc; stroke-linejoin: miter; stroke-linecap: square"/>
   </g>
   <g id="patch_6">
    <path d="M 139.8 60 
L 686.972058 60 
" style="fill: none; stroke: #cccccc; stroke-linejoin: miter; stroke-linecap: square"/>
   </g>
   <g id="text_16">
    <!-- Interaction Training -->
    <g style="fill: #262626" transform="translate(285.820404 53.685938)scale(0.3 -0.3)">
     <defs>
      <path id="ArialMT-49" d="M 597 0 
L 597 4581 
L 1203 4581 
L 1203 0 
L 597 0 
z
" transform="scale(0.015625)"/>
      <path id="ArialMT-6e" d="M 422 0 
L 422 3319 
L 928 3319 
L 928 2847 
Q 1294 3394 1984 3394 
Q 2284 3394 2536 3286 
Q 2788 3178 2913 3003 
Q 3038 2828 3088 2588 
Q 3119 2431 3119 2041 
L 3119 0 
L 2556 0 
L 2556 2019 
Q 2556 2363 2490 2533 
Q 2425 2703 2258 2804 
Q 2091 2906 1866 2906 
Q 1506 2906 1245 2678 
Q 984 2450 984 1813 
L 984 0 
L 422 0 
z
" transform="scale(0.015625)"/>
      <path id="ArialMT-74" d="M 1650 503 
L 1731 6 
Q 1494 -44 1306 -44 
Q 1000 -44 831 53 
Q 663 150 594 308 
Q 525 466 525 972 
L 525 2881 
L 113 2881 
L 113 3319 
L 525 3319 
L 525 4141 
L 1084 4478 
L 1084 3319 
L 1650 3319 
L 1650 2881 
L 1084 2881 
L 1084 941 
Q 1084 700 1114 631 
Q 1144 563 1211 522 
Q 1278 481 1403 481 
Q 1497 481 1650 503 
z
" transform="scale(0.015625)"/>
      <path id="ArialMT-63" d="M 2588 1216 
L 3141 1144 
Q 3050 572 2676 248 
Q 2303 -75 1759 -75 
Q 1078 -75 664 370 
Q 250 816 250 1647 
Q 250 2184 428 2587 
Q 606 2991 970 3192 
Q 1334 3394 1763 3394 
Q 2303 3394 2647 3120 
Q 2991 2847 3088 2344 
L 2541 2259 
Q 2463 2594 2264 2762 
Q 2066 2931 1784 2931 
Q 1359 2931 1093 2626 
Q 828 2322 828 1663 
Q 828 994 1084 691 
Q 1341 388 1753 388 
Q 2084 388 2306 591 
Q 2528 794 2588 1216 
z
" transform="scale(0.015625)"/>
      <path id="ArialMT-54" d="M 1659 0 
L 1659 4041 
L 150 4041 
L 150 4581 
L 3781 4581 
L 3781 4041 
L 2266 4041 
L 2266 0 
L 1659 0 
z
" transform="scale(0.015625)"/>
      <path id="ArialMT-67" d="M 319 -275 
L 866 -356 
Q 900 -609 1056 -725 
Q 1266 -881 1628 -881 
Q 2019 -881 2231 -725 
Q 2444 -569 2519 -288 
Q 2563 -116 2559 434 
Q 2191 0 1641 0 
Q 956 0 581 494 
Q 206 988 206 1678 
Q 206 2153 378 2554 
Q 550 2956 876 3175 
Q 1203 3394 1644 3394 
Q 2231 3394 2613 2919 
L 2613 3319 
L 3131 3319 
L 3131 450 
Q 3131 -325 2973 -648 
Q 2816 -972 2473 -1159 
Q 2131 -1347 1631 -1347 
Q 1038 -1347 672 -1080 
Q 306 -813 319 -275 
z
M 784 1719 
Q 784 1066 1043 766 
Q 1303 466 1694 466 
Q 2081 466 2343 764 
Q 2606 1063 2606 1700 
Q 2606 2309 2336 2618 
Q 2066 2928 1684 2928 
Q 1309 2928 1046 2623 
Q 784 2319 784 1719 
z
" transform="scale(0.015625)"/>
     </defs>
     <use xlink:href="#ArialMT-49"/>
     <use xlink:href="#ArialMT-6e" x="27.783203"/>
     <use xlink:href="#ArialMT-74" x="83.398438"/>
     <use xlink:href="#ArialMT-65" x="111.181641"/>
     <use xlink:href="#ArialMT-72" x="166.796875"/>
     <use xlink:href="#ArialMT-61" x="200.097656"/>
     <use xlink:href="#ArialMT-63" x="255.712891"/>
     <use xlink:href="#ArialMT-74" x="305.712891"/>
     <use xlink:href="#ArialMT-69" x="333.496094"/>
     <use xlink:href="#ArialMT-6f" x="355.712891"/>
     <use xlink:href="#ArialMT-6e" x="411.328125"/>
     <use xlink:href="#ArialMT-20" x="466.943359"/>
     <use xlink:href="#ArialMT-54" x="492.976562"/>
     <use xlink:href="#ArialMT-72" x="550.310547"/>
     <use xlink:href="#ArialMT-61" x="583.611328"/>
     <use xlink:href="#ArialMT-69" x="639.226562"/>
     <use xlink:href="#ArialMT-6e" x="661.443359"/>
     <use xlink:href="#ArialMT-69" x="717.058594"/>
     <use xlink:href="#ArialMT-6e" x="739.275391"/>
     <use xlink:href="#ArialMT-67" x="794.890625"/>
    </g>
   </g>
   <g id="legend_1">
    <g id="line2d_28">
     <path d="M 297.49237 576.55125 
L 327.49237 576.55125 
L 357.49237 576.55125 
" style="fill: none; stroke: #1f77b4; stroke-width: 1.5; stroke-linecap: round"/>
    </g>
    <g id="text_17">
     <!-- Episode Mean Score -->
     <g style="fill: #262626" transform="translate(381.49237 587.05125)scale(0.3 -0.3)">
      <defs>
       <path id="ArialMT-4d" d="M 475 0 
L 475 4581 
L 1388 4581 
L 2472 1338 
Q 2622 884 2691 659 
Q 2769 909 2934 1394 
L 4031 4581 
L 4847 4581 
L 4847 0 
L 4263 0 
L 4263 3834 
L 2931 0 
L 2384 0 
L 1059 3900 
L 1059 0 
L 475 0 
z
" transform="scale(0.015625)"/>
       <path id="ArialMT-53" d="M 288 1472 
L 859 1522 
Q 900 1178 1048 958 
Q 1197 738 1509 602 
Q 1822 466 2213 466 
Q 2559 466 2825 569 
Q 3091 672 3220 851 
Q 3350 1031 3350 1244 
Q 3350 1459 3225 1620 
Q 3100 1781 2813 1891 
Q 2628 1963 1997 2114 
Q 1366 2266 1113 2400 
Q 784 2572 623 2826 
Q 463 3081 463 3397 
Q 463 3744 659 4045 
Q 856 4347 1234 4503 
Q 1613 4659 2075 4659 
Q 2584 4659 2973 4495 
Q 3363 4331 3572 4012 
Q 3781 3694 3797 3291 
L 3216 3247 
Q 3169 3681 2898 3903 
Q 2628 4125 2100 4125 
Q 1550 4125 1298 3923 
Q 1047 3722 1047 3438 
Q 1047 3191 1225 3031 
Q 1400 2872 2139 2705 
Q 2878 2538 3153 2413 
Q 3553 2228 3743 1945 
Q 3934 1663 3934 1294 
Q 3934 928 3725 604 
Q 3516 281 3123 101 
Q 2731 -78 2241 -78 
Q 1619 -78 1198 103 
Q 778 284 539 648 
Q 300 1013 288 1472 
z
" transform="scale(0.015625)"/>
      </defs>
      <use xlink:href="#ArialMT-45"/>
      <use xlink:href="#ArialMT-70" x="66.699219"/>
      <use xlink:href="#ArialMT-69" x="122.314453"/>
      <use xlink:href="#ArialMT-73" x="144.53125"/>
      <use xlink:href="#ArialMT-6f" x="194.53125"/>
      <use xlink:href="#ArialMT-64" x="250.146484"/>
      <use xlink:href="#ArialMT-65" x="305.761719"/>
      <use xlink:href="#ArialMT-20" x="361.376953"/>
      <use xlink:href="#ArialMT-4d" x="389.160156"/>
      <use xlink:href="#ArialMT-65" x="472.460938"/>
      <use xlink:href="#ArialMT-61" x="528.076172"/>
      <use xlink:href="#ArialMT-6e" x="583.691406"/>
      <use xlink:href="#ArialMT-20" x="639.306641"/>
      <use xlink:href="#ArialMT-53" x="667.089844"/>
      <use xlink:href="#ArialMT-63" x="733.789062"/>
      <use xlink:href="#ArialMT-6f" x="783.789062"/>
      <use xlink:href="#ArialMT-72" x="839.404297"/>
      <use xlink:href="#ArialMT-65" x="872.705078"/>
     </g>
    </g>
   </g>
  </g>
 </g>
 <defs>
  <clipPath id="p64637490c9">
   <rect x="139.8" y="60" width="547.172058" height="560.01375"/>
  </clipPath>
 </defs>
</svg>
