<?xml version="1.0" encoding="utf-8" standalone="no"?>
<!DOCTYPE svg PUBLIC "-//W3C//DTD SVG 1.1//EN"
  "http://www.w3.org/Graphics/SVG/1.1/DTD/svg11.dtd">
<svg xmlns:xlink="http://www.w3.org/1999/xlink" width="720pt" height="720pt" viewBox="0 0 720 720" xmlns="http://www.w3.org/2000/svg" version="1.1">
 <metadata>
  <rdf:RDF xmlns:dc="http://purl.org/dc/elements/1.1/" xmlns:cc="http://creativecommons.org/ns#" xmlns:rdf="http://www.w3.org/1999/02/22-rdf-syntax-ns#">
   <cc:Work>
    <dc:type rdf:resource="http://purl.org/dc/dcmitype/StillImage"/>
    <dc:date>2022-10-28T15:10:29.420591</dc:date>
    <dc:format>image/svg+xml</dc:format>
    <dc:creator>
     <cc:Agent>
      <dc:title>Matplotlib v3.5.3, https://matplotlib.org/</dc:title>
     </cc:Agent>
    </dc:creator>
   </cc:Work>
  </rdf:RDF>
 </metadata>
 <defs>
  <style type="text/css">*{stroke-linejoin: round; stroke-linecap: butt}</style>
 </defs>
 <g id="figure_1">
  <g id="patch_1">
   <path d="M 0 720 
L 720 720 
L 720 0 
L 0 0 
z
" style="fill: #ffffff"/>
  </g>
  <g id="axes_1">
   <g id="patch_2">
    <path d="M 156.36 620.01375 
L 687.14177 620.01375 
L 687.14177 65.16 
L 156.36 65.16 
z
" style="fill: #ffffff"/>
   </g>
   <g id="matplotlib.axis_1">
    <g id="xtick_1">
     <g id="line2d_1">
      <path d="M 180.486444 620.01375 
L 180.486444 65.16 
" clip-path="url(#p0f0e65e109)" style="fill: none; stroke: #cccccc; stroke-width: 0.8; stroke-linecap: round"/>
     </g>
     <g id="line2d_2"/>
     <g id="text_1">
      <!-- 0 -->
      <g style="fill: #262626" transform="translate(172.145038 644.987188)scale(0.3 -0.3)">
       <defs>
        <path id="ArialMT-30" d="M 266 2259 
Q 266 3072 433 3567 
Q 600 4063 929 4331 
Q 1259 4600 1759 4600 
Q 2128 4600 2406 4451 
Q 2684 4303 2865 4023 
Q 3047 3744 3150 3342 
Q 3253 2941 3253 2259 
Q 3253 1453 3087 958 
Q 2922 463 2592 192 
Q 2263 -78 1759 -78 
Q 1097 -78 719 397 
Q 266 969 266 2259 
z
M 844 2259 
Q 844 1131 1108 757 
Q 1372 384 1759 384 
Q 2147 384 2411 759 
Q 2675 1134 2675 2259 
Q 2675 3391 2411 3762 
Q 2147 4134 1753 4134 
Q 1366 4134 1134 3806 
Q 844 3388 844 2259 
z
" transform="scale(0.015625)"/>
       </defs>
       <use xlink:href="#ArialMT-30"/>
      </g>
     </g>
    </g>
    <g id="xtick_2">
     <g id="line2d_3">
      <path d="M 341.597924 620.01375 
L 341.597924 65.16 
" clip-path="url(#p0f0e65e109)" style="fill: none; stroke: #cccccc; stroke-width: 0.8; stroke-linecap: round"/>
     </g>
     <g id="line2d_4"/>
     <g id="text_2">
      <!-- 200 -->
      <g style="fill: #262626" transform="translate(316.573705 644.987188)scale(0.3 -0.3)">
       <defs>
        <path id="ArialMT-32" d="M 3222 541 
L 3222 0 
L 194 0 
Q 188 203 259 391 
Q 375 700 629 1000 
Q 884 1300 1366 1694 
Q 2113 2306 2375 2664 
Q 2638 3022 2638 3341 
Q 2638 3675 2398 3904 
Q 2159 4134 1775 4134 
Q 1369 4134 1125 3890 
Q 881 3647 878 3216 
L 300 3275 
Q 359 3922 746 4261 
Q 1134 4600 1788 4600 
Q 2447 4600 2831 4234 
Q 3216 3869 3216 3328 
Q 3216 3053 3103 2787 
Q 2991 2522 2730 2228 
Q 2469 1934 1863 1422 
Q 1356 997 1212 845 
Q 1069 694 975 541 
L 3222 541 
z
" transform="scale(0.015625)"/>
       </defs>
       <use xlink:href="#ArialMT-32"/>
       <use xlink:href="#ArialMT-30" x="55.615234"/>
       <use xlink:href="#ArialMT-30" x="111.230469"/>
      </g>
     </g>
    </g>
    <g id="xtick_3">
     <g id="line2d_5">
      <path d="M 502.709404 620.01375 
L 502.709404 65.16 
" clip-path="url(#p0f0e65e109)" style="fill: none; stroke: #cccccc; stroke-width: 0.8; stroke-linecap: round"/>
     </g>
     <g id="line2d_6"/>
     <g id="text_3">
      <!-- 400 -->
      <g style="fill: #262626" transform="translate(477.685185 644.987188)scale(0.3 -0.3)">
       <defs>
        <path id="ArialMT-34" d="M 2069 0 
L 2069 1097 
L 81 1097 
L 81 1613 
L 2172 4581 
L 2631 4581 
L 2631 1613 
L 3250 1613 
L 3250 1097 
L 2631 1097 
L 2631 0 
L 2069 0 
z
M 2069 1613 
L 2069 3678 
L 634 1613 
L 2069 1613 
z
" transform="scale(0.015625)"/>
       </defs>
       <use xlink:href="#ArialMT-34"/>
       <use xlink:href="#ArialMT-30" x="55.615234"/>
       <use xlink:href="#ArialMT-30" x="111.230469"/>
      </g>
     </g>
    </g>
    <g id="xtick_4">
     <g id="line2d_7">
      <path d="M 663.820884 620.01375 
L 663.820884 65.16 
" clip-path="url(#p0f0e65e109)" style="fill: none; stroke: #cccccc; stroke-width: 0.8; stroke-linecap: round"/>
     </g>
     <g id="line2d_8"/>
     <g id="text_4">
      <!-- 600 -->
      <g style="fill: #262626" transform="translate(638.796665 644.987188)scale(0.3 -0.3)">
       <defs>
        <path id="ArialMT-36" d="M 3184 3459 
L 2625 3416 
Q 2550 3747 2413 3897 
Q 2184 4138 1850 4138 
Q 1581 4138 1378 3988 
Q 1113 3794 959 3422 
Q 806 3050 800 2363 
Q 1003 2672 1297 2822 
Q 1591 2972 1913 2972 
Q 2475 2972 2870 2558 
Q 3266 2144 3266 1488 
Q 3266 1056 3080 686 
Q 2894 316 2569 119 
Q 2244 -78 1831 -78 
Q 1128 -78 684 439 
Q 241 956 241 2144 
Q 241 3472 731 4075 
Q 1159 4600 1884 4600 
Q 2425 4600 2770 4297 
Q 3116 3994 3184 3459 
z
M 888 1484 
Q 888 1194 1011 928 
Q 1134 663 1356 523 
Q 1578 384 1822 384 
Q 2178 384 2434 671 
Q 2691 959 2691 1453 
Q 2691 1928 2437 2201 
Q 2184 2475 1800 2475 
Q 1419 2475 1153 2201 
Q 888 1928 888 1484 
z
" transform="scale(0.015625)"/>
       </defs>
       <use xlink:href="#ArialMT-36"/>
       <use xlink:href="#ArialMT-30" x="55.615234"/>
       <use xlink:href="#ArialMT-30" x="111.230469"/>
      </g>
     </g>
    </g>
    <g id="text_5">
     <!-- Episode # -->
     <g style="fill: #262626" transform="translate(343.919635 680.428594)scale(0.35 -0.35)">
      <defs>
       <path id="ArialMT-45" d="M 506 0 
L 506 4581 
L 3819 4581 
L 3819 4041 
L 1113 4041 
L 1113 2638 
L 3647 2638 
L 3647 2100 
L 1113 2100 
L 1113 541 
L 3925 541 
L 3925 0 
L 506 0 
z
" transform="scale(0.015625)"/>
       <path id="ArialMT-70" d="M 422 -1272 
L 422 3319 
L 934 3319 
L 934 2888 
Q 1116 3141 1344 3267 
Q 1572 3394 1897 3394 
Q 2322 3394 2647 3175 
Q 2972 2956 3137 2557 
Q 3303 2159 3303 1684 
Q 3303 1175 3120 767 
Q 2938 359 2589 142 
Q 2241 -75 1856 -75 
Q 1575 -75 1351 44 
Q 1128 163 984 344 
L 984 -1272 
L 422 -1272 
z
M 931 1641 
Q 931 1000 1190 694 
Q 1450 388 1819 388 
Q 2194 388 2461 705 
Q 2728 1022 2728 1688 
Q 2728 2322 2467 2637 
Q 2206 2953 1844 2953 
Q 1484 2953 1207 2617 
Q 931 2281 931 1641 
z
" transform="scale(0.015625)"/>
       <path id="ArialMT-69" d="M 425 3934 
L 425 4581 
L 988 4581 
L 988 3934 
L 425 3934 
z
M 425 0 
L 425 3319 
L 988 3319 
L 988 0 
L 425 0 
z
" transform="scale(0.015625)"/>
       <path id="ArialMT-73" d="M 197 991 
L 753 1078 
Q 800 744 1014 566 
Q 1228 388 1613 388 
Q 2000 388 2187 545 
Q 2375 703 2375 916 
Q 2375 1106 2209 1216 
Q 2094 1291 1634 1406 
Q 1016 1563 777 1677 
Q 538 1791 414 1992 
Q 291 2194 291 2438 
Q 291 2659 392 2848 
Q 494 3038 669 3163 
Q 800 3259 1026 3326 
Q 1253 3394 1513 3394 
Q 1903 3394 2198 3281 
Q 2494 3169 2634 2976 
Q 2775 2784 2828 2463 
L 2278 2388 
Q 2241 2644 2061 2787 
Q 1881 2931 1553 2931 
Q 1166 2931 1000 2803 
Q 834 2675 834 2503 
Q 834 2394 903 2306 
Q 972 2216 1119 2156 
Q 1203 2125 1616 2013 
Q 2213 1853 2448 1751 
Q 2684 1650 2818 1456 
Q 2953 1263 2953 975 
Q 2953 694 2789 445 
Q 2625 197 2315 61 
Q 2006 -75 1616 -75 
Q 969 -75 630 194 
Q 291 463 197 991 
z
" transform="scale(0.015625)"/>
       <path id="ArialMT-6f" d="M 213 1659 
Q 213 2581 725 3025 
Q 1153 3394 1769 3394 
Q 2453 3394 2887 2945 
Q 3322 2497 3322 1706 
Q 3322 1066 3130 698 
Q 2938 331 2570 128 
Q 2203 -75 1769 -75 
Q 1072 -75 642 372 
Q 213 819 213 1659 
z
M 791 1659 
Q 791 1022 1069 705 
Q 1347 388 1769 388 
Q 2188 388 2466 706 
Q 2744 1025 2744 1678 
Q 2744 2294 2464 2611 
Q 2184 2928 1769 2928 
Q 1347 2928 1069 2612 
Q 791 2297 791 1659 
z
" transform="scale(0.015625)"/>
       <path id="ArialMT-64" d="M 2575 0 
L 2575 419 
Q 2259 -75 1647 -75 
Q 1250 -75 917 144 
Q 584 363 401 755 
Q 219 1147 219 1656 
Q 219 2153 384 2558 
Q 550 2963 881 3178 
Q 1213 3394 1622 3394 
Q 1922 3394 2156 3267 
Q 2391 3141 2538 2938 
L 2538 4581 
L 3097 4581 
L 3097 0 
L 2575 0 
z
M 797 1656 
Q 797 1019 1065 703 
Q 1334 388 1700 388 
Q 2069 388 2326 689 
Q 2584 991 2584 1609 
Q 2584 2291 2321 2609 
Q 2059 2928 1675 2928 
Q 1300 2928 1048 2622 
Q 797 2316 797 1656 
z
" transform="scale(0.015625)"/>
       <path id="ArialMT-65" d="M 2694 1069 
L 3275 997 
Q 3138 488 2766 206 
Q 2394 -75 1816 -75 
Q 1088 -75 661 373 
Q 234 822 234 1631 
Q 234 2469 665 2931 
Q 1097 3394 1784 3394 
Q 2450 3394 2872 2941 
Q 3294 2488 3294 1666 
Q 3294 1616 3291 1516 
L 816 1516 
Q 847 969 1125 678 
Q 1403 388 1819 388 
Q 2128 388 2347 550 
Q 2566 713 2694 1069 
z
M 847 1978 
L 2700 1978 
Q 2663 2397 2488 2606 
Q 2219 2931 1791 2931 
Q 1403 2931 1139 2672 
Q 875 2413 847 1978 
z
" transform="scale(0.015625)"/>
       <path id="ArialMT-20" transform="scale(0.015625)"/>
       <path id="ArialMT-23" d="M 322 -78 
L 594 1253 
L 66 1253 
L 66 1719 
L 688 1719 
L 919 2853 
L 66 2853 
L 66 3319 
L 1013 3319 
L 1284 4659 
L 1753 4659 
L 1481 3319 
L 2466 3319 
L 2738 4659 
L 3209 4659 
L 2938 3319 
L 3478 3319 
L 3478 2853 
L 2844 2853 
L 2609 1719 
L 3478 1719 
L 3478 1253 
L 2516 1253 
L 2244 -78 
L 1775 -78 
L 2044 1253 
L 1063 1253 
L 791 -78 
L 322 -78 
z
M 1156 1719 
L 2138 1719 
L 2372 2853 
L 1388 2853 
L 1156 1719 
z
" transform="scale(0.015625)"/>
      </defs>
      <use xlink:href="#ArialMT-45"/>
      <use xlink:href="#ArialMT-70" x="66.699219"/>
      <use xlink:href="#ArialMT-69" x="122.314453"/>
      <use xlink:href="#ArialMT-73" x="144.53125"/>
      <use xlink:href="#ArialMT-6f" x="194.53125"/>
      <use xlink:href="#ArialMT-64" x="250.146484"/>
      <use xlink:href="#ArialMT-65" x="305.761719"/>
      <use xlink:href="#ArialMT-20" x="361.376953"/>
      <use xlink:href="#ArialMT-23" x="389.160156"/>
     </g>
    </g>
   </g>
   <g id="matplotlib.axis_2">
    <g id="ytick_1">
     <g id="line2d_9">
      <path d="M 156.36 588.884033 
L 687.14177 588.884033 
" clip-path="url(#p0f0e65e109)" style="fill: none; stroke: #cccccc; stroke-width: 0.8; stroke-linecap: round"/>
     </g>
     <g id="line2d_10"/>
     <g id="text_6">
      <!-- −1000 -->
      <g style="fill: #262626" transform="translate(68.606875 599.620751)scale(0.3 -0.3)">
       <defs>
        <path id="ArialMT-2212" d="M 3381 1997 
L 356 1997 
L 356 2522 
L 3381 2522 
L 3381 1997 
z
" transform="scale(0.015625)"/>
        <path id="ArialMT-31" d="M 2384 0 
L 1822 0 
L 1822 3584 
Q 1619 3391 1289 3197 
Q 959 3003 697 2906 
L 697 3450 
Q 1169 3672 1522 3987 
Q 1875 4303 2022 4600 
L 2384 4600 
L 2384 0 
z
" transform="scale(0.015625)"/>
       </defs>
       <use xlink:href="#ArialMT-2212"/>
       <use xlink:href="#ArialMT-31" x="58.398438"/>
       <use xlink:href="#ArialMT-30" x="114.013672"/>
       <use xlink:href="#ArialMT-30" x="169.628906"/>
       <use xlink:href="#ArialMT-30" x="225.244141"/>
      </g>
     </g>
    </g>
    <g id="ytick_2">
     <g id="line2d_11">
      <path d="M 156.36 501.127846 
L 687.14177 501.127846 
" clip-path="url(#p0f0e65e109)" style="fill: none; stroke: #cccccc; stroke-width: 0.8; stroke-linecap: round"/>
     </g>
     <g id="line2d_12"/>
     <g id="text_7">
      <!-- −800 -->
      <g style="fill: #262626" transform="translate(85.289688 511.864564)scale(0.3 -0.3)">
       <defs>
        <path id="ArialMT-38" d="M 1131 2484 
Q 781 2613 612 2850 
Q 444 3088 444 3419 
Q 444 3919 803 4259 
Q 1163 4600 1759 4600 
Q 2359 4600 2725 4251 
Q 3091 3903 3091 3403 
Q 3091 3084 2923 2848 
Q 2756 2613 2416 2484 
Q 2838 2347 3058 2040 
Q 3278 1734 3278 1309 
Q 3278 722 2862 322 
Q 2447 -78 1769 -78 
Q 1091 -78 675 323 
Q 259 725 259 1325 
Q 259 1772 486 2073 
Q 713 2375 1131 2484 
z
M 1019 3438 
Q 1019 3113 1228 2906 
Q 1438 2700 1772 2700 
Q 2097 2700 2305 2904 
Q 2513 3109 2513 3406 
Q 2513 3716 2298 3927 
Q 2084 4138 1766 4138 
Q 1444 4138 1231 3931 
Q 1019 3725 1019 3438 
z
M 838 1322 
Q 838 1081 952 856 
Q 1066 631 1291 507 
Q 1516 384 1775 384 
Q 2178 384 2440 643 
Q 2703 903 2703 1303 
Q 2703 1709 2433 1975 
Q 2163 2241 1756 2241 
Q 1359 2241 1098 1978 
Q 838 1716 838 1322 
z
" transform="scale(0.015625)"/>
       </defs>
       <use xlink:href="#ArialMT-2212"/>
       <use xlink:href="#ArialMT-38" x="58.398438"/>
       <use xlink:href="#ArialMT-30" x="114.013672"/>
       <use xlink:href="#ArialMT-30" x="169.628906"/>
      </g>
     </g>
    </g>
    <g id="ytick_3">
     <g id="line2d_13">
      <path d="M 156.36 413.371659 
L 687.14177 413.371659 
" clip-path="url(#p0f0e65e109)" style="fill: none; stroke: #cccccc; stroke-width: 0.8; stroke-linecap: round"/>
     </g>
     <g id="line2d_14"/>
     <g id="text_8">
      <!-- −600 -->
      <g style="fill: #262626" transform="translate(85.289688 424.108377)scale(0.3 -0.3)">
       <use xlink:href="#ArialMT-2212"/>
       <use xlink:href="#ArialMT-36" x="58.398438"/>
       <use xlink:href="#ArialMT-30" x="114.013672"/>
       <use xlink:href="#ArialMT-30" x="169.628906"/>
      </g>
     </g>
    </g>
    <g id="ytick_4">
     <g id="line2d_15">
      <path d="M 156.36 325.615472 
L 687.14177 325.615472 
" clip-path="url(#p0f0e65e109)" style="fill: none; stroke: #cccccc; stroke-width: 0.8; stroke-linecap: round"/>
     </g>
     <g id="line2d_16"/>
     <g id="text_9">
      <!-- −400 -->
      <g style="fill: #262626" transform="translate(85.289688 336.352191)scale(0.3 -0.3)">
       <use xlink:href="#ArialMT-2212"/>
       <use xlink:href="#ArialMT-34" x="58.398438"/>
       <use xlink:href="#ArialMT-30" x="114.013672"/>
       <use xlink:href="#ArialMT-30" x="169.628906"/>
      </g>
     </g>
    </g>
    <g id="ytick_5">
     <g id="line2d_17">
      <path d="M 156.36 237.859285 
L 687.14177 237.859285 
" clip-path="url(#p0f0e65e109)" style="fill: none; stroke: #cccccc; stroke-width: 0.8; stroke-linecap: round"/>
     </g>
     <g id="line2d_18"/>
     <g id="text_10">
      <!-- −200 -->
      <g style="fill: #262626" transform="translate(85.289688 248.596004)scale(0.3 -0.3)">
       <use xlink:href="#ArialMT-2212"/>
       <use xlink:href="#ArialMT-32" x="58.398438"/>
       <use xlink:href="#ArialMT-30" x="114.013672"/>
       <use xlink:href="#ArialMT-30" x="169.628906"/>
      </g>
     </g>
    </g>
    <g id="ytick_6">
     <g id="line2d_19">
      <path d="M 156.36 150.103098 
L 687.14177 150.103098 
" clip-path="url(#p0f0e65e109)" style="fill: none; stroke: #cccccc; stroke-width: 0.8; stroke-linecap: round"/>
     </g>
     <g id="line2d_20"/>
     <g id="text_11">
      <!-- 0 -->
      <g style="fill: #262626" transform="translate(136.177188 160.839817)scale(0.3 -0.3)">
       <use xlink:href="#ArialMT-30"/>
      </g>
     </g>
    </g>
    <g id="text_12">
     <!-- Reward -->
     <g style="fill: #262626" transform="translate(57.650625 402.885313)rotate(-90)scale(0.35 -0.35)">
      <defs>
       <path id="ArialMT-52" d="M 503 0 
L 503 4581 
L 2534 4581 
Q 3147 4581 3465 4457 
Q 3784 4334 3975 4021 
Q 4166 3709 4166 3331 
Q 4166 2844 3850 2509 
Q 3534 2175 2875 2084 
Q 3116 1969 3241 1856 
Q 3506 1613 3744 1247 
L 4541 0 
L 3778 0 
L 3172 953 
Q 2906 1366 2734 1584 
Q 2563 1803 2427 1890 
Q 2291 1978 2150 2013 
Q 2047 2034 1813 2034 
L 1109 2034 
L 1109 0 
L 503 0 
z
M 1109 2559 
L 2413 2559 
Q 2828 2559 3062 2645 
Q 3297 2731 3419 2920 
Q 3541 3109 3541 3331 
Q 3541 3656 3305 3865 
Q 3069 4075 2559 4075 
L 1109 4075 
L 1109 2559 
z
" transform="scale(0.015625)"/>
       <path id="ArialMT-77" d="M 1034 0 
L 19 3319 
L 600 3319 
L 1128 1403 
L 1325 691 
Q 1338 744 1497 1375 
L 2025 3319 
L 2603 3319 
L 3100 1394 
L 3266 759 
L 3456 1400 
L 4025 3319 
L 4572 3319 
L 3534 0 
L 2950 0 
L 2422 1988 
L 2294 2553 
L 1622 0 
L 1034 0 
z
" transform="scale(0.015625)"/>
       <path id="ArialMT-61" d="M 2588 409 
Q 2275 144 1986 34 
Q 1697 -75 1366 -75 
Q 819 -75 525 192 
Q 231 459 231 875 
Q 231 1119 342 1320 
Q 453 1522 633 1644 
Q 813 1766 1038 1828 
Q 1203 1872 1538 1913 
Q 2219 1994 2541 2106 
Q 2544 2222 2544 2253 
Q 2544 2597 2384 2738 
Q 2169 2928 1744 2928 
Q 1347 2928 1158 2789 
Q 969 2650 878 2297 
L 328 2372 
Q 403 2725 575 2942 
Q 747 3159 1072 3276 
Q 1397 3394 1825 3394 
Q 2250 3394 2515 3294 
Q 2781 3194 2906 3042 
Q 3031 2891 3081 2659 
Q 3109 2516 3109 2141 
L 3109 1391 
Q 3109 606 3145 398 
Q 3181 191 3288 0 
L 2700 0 
Q 2613 175 2588 409 
z
M 2541 1666 
Q 2234 1541 1622 1453 
Q 1275 1403 1131 1340 
Q 988 1278 909 1158 
Q 831 1038 831 891 
Q 831 666 1001 516 
Q 1172 366 1500 366 
Q 1825 366 2078 508 
Q 2331 650 2450 897 
Q 2541 1088 2541 1459 
L 2541 1666 
z
" transform="scale(0.015625)"/>
       <path id="ArialMT-72" d="M 416 0 
L 416 3319 
L 922 3319 
L 922 2816 
Q 1116 3169 1280 3281 
Q 1444 3394 1641 3394 
Q 1925 3394 2219 3213 
L 2025 2691 
Q 1819 2813 1613 2813 
Q 1428 2813 1281 2702 
Q 1134 2591 1072 2394 
Q 978 2094 978 1738 
L 978 0 
L 416 0 
z
" transform="scale(0.015625)"/>
      </defs>
      <use xlink:href="#ArialMT-52"/>
      <use xlink:href="#ArialMT-65" x="72.216797"/>
      <use xlink:href="#ArialMT-77" x="127.832031"/>
      <use xlink:href="#ArialMT-61" x="200.048828"/>
      <use xlink:href="#ArialMT-72" x="255.664062"/>
      <use xlink:href="#ArialMT-64" x="288.964844"/>
     </g>
    </g>
   </g>
   <g id="PolyCollection_1">
    <path d="M 180.486444 250.744741 
L 180.486444 594.793125 
L 181.292002 571.216763 
L 182.097559 551.595542 
L 182.903116 535.508417 
L 183.708674 522.534341 
L 184.514231 512.252271 
L 185.319789 504.241161 
L 186.125346 498.079965 
L 186.930903 493.347639 
L 187.736461 489.623136 
L 188.542018 491.556701 
L 189.347575 484.256151 
L 190.153133 475.266251 
L 190.95869 464.255543 
L 191.764248 459.131795 
L 192.569805 453.731133 
L 193.375362 445.142624 
L 194.18092 440.421904 
L 194.986477 435.315878 
L 195.792035 423.960908 
L 196.597592 417.147933 
L 197.403149 407.593905 
L 198.208707 396.694839 
L 199.014264 393.921017 
L 199.819822 387.141157 
L 200.625379 382.465965 
L 201.430936 376.964323 
L 202.236494 376.884466 
L 203.042051 372.432468 
L 203.847609 369.080036 
L 204.653166 363.608064 
L 205.458723 361.132981 
L 206.264281 359.801713 
L 207.069838 360.270798 
L 207.875396 357.136953 
L 208.680953 353.320157 
L 209.48651 353.570684 
L 210.292068 348.031349 
L 211.097625 345.044006 
L 211.903183 336.601963 
L 212.70874 328.719409 
L 213.514297 326.097397 
L 214.319855 325.160189 
L 215.125412 321.453907 
L 215.93097 317.648492 
L 216.736527 315.027812 
L 217.542084 309.336483 
L 218.347642 302.695442 
L 219.153199 297.990059 
L 219.958757 293.635967 
L 220.764314 293.709267 
L 221.569871 293.892576 
L 222.375429 291.237124 
L 223.180986 292.039575 
L 223.986544 293.05193 
L 224.792101 293.543724 
L 225.597658 292.826318 
L 226.403216 292.009904 
L 227.208773 291.976422 
L 228.014331 293.306533 
L 228.819888 292.55804 
L 229.625445 292.326686 
L 230.431003 291.746277 
L 231.23656 290.540339 
L 232.042118 286.137536 
L 232.847675 282.752823 
L 233.653232 280.099604 
L 234.45879 278.322237 
L 235.264347 276.526936 
L 236.069905 274.984015 
L 236.875462 273.548997 
L 237.681019 272.344362 
L 238.486577 274.327074 
L 239.292134 272.178101 
L 240.097692 270.644984 
L 240.903249 268.146929 
L 241.708806 266.15467 
L 242.514364 263.854118 
L 243.319921 259.627614 
L 244.125479 256.123362 
L 244.931036 254.631823 
L 245.736593 252.135188 
L 246.542151 250.169488 
L 247.347708 246.872821 
L 248.153266 246.080575 
L 248.958823 245.077567 
L 249.76438 244.142872 
L 250.569938 243.682343 
L 251.375495 243.130963 
L 252.181053 243.203541 
L 252.98661 243.717687 
L 253.792167 243.309211 
L 254.597725 242.189184 
L 255.403282 241.164255 
L 256.20884 239.332651 
L 257.014397 238.393182 
L 257.819954 236.14214 
L 258.625512 235.470227 
L 259.431069 233.013479 
L 260.236627 231.10925 
L 261.042184 230.741317 
L 261.847741 229.731797 
L 262.653299 228.460792 
L 263.458856 228.084692 
L 264.264414 227.548354 
L 265.069971 226.911065 
L 265.875528 226.158124 
L 266.681086 225.448358 
L 267.486643 224.794043 
L 268.292201 224.562299 
L 269.097758 222.892127 
L 269.903315 222.301713 
L 270.708873 222.140807 
L 271.51443 221.783853 
L 272.319988 221.215507 
L 273.125545 220.879636 
L 273.931102 220.454641 
L 274.73666 218.72696 
L 275.542217 218.541715 
L 276.347775 217.323727 
L 277.153332 217.056607 
L 277.958889 216.541185 
L 278.764447 217.057384 
L 279.570004 216.06888 
L 280.375562 215.671213 
L 281.181119 215.818785 
L 281.986676 216.48419 
L 282.792234 215.956078 
L 283.597791 216.156349 
L 284.403349 215.654275 
L 285.208906 217.106495 
L 286.014463 217.943177 
L 286.820021 218.00294 
L 287.625578 218.159594 
L 288.431136 218.093823 
L 289.236693 216.799003 
L 290.04225 215.156038 
L 290.847808 214.411169 
L 291.653365 213.017043 
L 292.458923 213.064567 
L 293.26448 212.423237 
L 294.070037 212.413758 
L 294.875595 211.232021 
L 295.681152 211.152943 
L 296.48671 210.561542 
L 297.292267 209.882845 
L 298.097824 208.226881 
L 298.903382 208.907131 
L 299.708939 208.558193 
L 300.514497 208.707653 
L 301.320054 208.599602 
L 302.125611 207.051277 
L 302.931169 206.824003 
L 303.736726 205.527216 
L 304.542284 203.859069 
L 305.347841 202.749151 
L 306.153398 202.296508 
L 306.958956 201.547689 
L 307.764513 201.497104 
L 308.570071 201.088026 
L 309.375628 200.656026 
L 310.181185 199.647723 
L 310.986743 199.233032 
L 311.7923 198.718251 
L 312.597858 197.990791 
L 313.403415 197.038838 
L 314.208972 197.763755 
L 315.01453 196.492829 
L 315.820087 196.329032 
L 316.625645 195.818857 
L 317.431202 194.549134 
L 318.236759 194.974247 
L 319.042317 194.408394 
L 319.847874 193.859534 
L 320.653432 193.833441 
L 321.458989 194.183035 
L 322.264546 193.850072 
L 323.070104 193.726674 
L 323.875661 193.597467 
L 324.681219 193.656301 
L 325.486776 194.034095 
L 326.292333 194.847525 
L 327.097891 194.838072 
L 327.903448 195.153107 
L 328.709006 195.68506 
L 329.514563 196.586844 
L 330.32012 196.307684 
L 331.125678 196.729924 
L 331.931235 196.638485 
L 332.736793 196.284625 
L 333.54235 195.89624 
L 334.347907 195.074431 
L 335.153465 193.468664 
L 335.959022 192.499396 
L 336.76458 190.90973 
L 337.570137 189.982344 
L 338.375694 189.462399 
L 339.181252 189.062001 
L 339.986809 188.63459 
L 340.792367 188.678455 
L 341.597924 189.269333 
L 342.403481 189.286281 
L 343.209039 190.163835 
L 344.014596 190.953628 
L 344.820154 191.238901 
L 345.625711 191.668224 
L 346.431268 192.552618 
L 347.236826 192.920145 
L 348.042383 192.43735 
L 348.847941 191.62859 
L 349.653498 190.402735 
L 350.459055 189.686418 
L 351.264613 189.062596 
L 352.07017 189.060678 
L 352.875728 189.002816 
L 353.681285 188.829411 
L 354.486842 187.61496 
L 355.2924 186.931166 
L 356.097957 186.730408 
L 356.903515 186.385599 
L 357.709072 185.701275 
L 358.514629 185.159256 
L 359.320187 184.982654 
L 360.125744 185.440168 
L 360.931302 185.913697 
L 361.736859 186.745939 
L 362.542416 186.705783 
L 363.347974 186.289927 
L 364.153531 186.517457 
L 364.959089 187.08914 
L 365.764646 187.847479 
L 366.570203 188.175185 
L 367.375761 189.501193 
L 368.181318 189.978034 
L 368.986876 190.799866 
L 369.792433 190.969853 
L 370.59799 191.946582 
L 371.403548 191.903106 
L 372.209105 191.796327 
L 373.014663 191.742938 
L 373.82022 191.645993 
L 374.625777 191.208384 
L 375.431335 190.859325 
L 376.236892 190.650763 
L 377.04245 190.345601 
L 377.848007 188.756956 
L 378.653564 187.23053 
L 379.459122 186.739664 
L 380.264679 186.674605 
L 381.070237 186.081541 
L 381.875794 187.08132 
L 382.681351 187.851068 
L 383.486909 188.908242 
L 384.292466 190.308912 
L 385.098024 191.033673 
L 385.903581 191.717793 
L 386.709138 191.760034 
L 387.514696 192.029609 
L 388.320253 192.715464 
L 389.125811 192.779599 
L 389.931368 192.228451 
L 390.736925 191.860333 
L 391.542483 191.571503 
L 392.34804 190.561654 
L 393.153598 189.60329 
L 393.959155 188.114365 
L 394.764712 187.799237 
L 395.57027 187.800944 
L 396.375827 187.287851 
L 397.181385 187.903015 
L 397.986942 188.256366 
L 398.792499 188.636085 
L 399.598057 189.174893 
L 400.403614 189.323607 
L 401.209172 190.229446 
L 402.014729 189.999581 
L 402.820286 190.727407 
L 403.625844 192.07473 
L 404.431401 192.119901 
L 405.236959 191.700413 
L 406.042516 192.232642 
L 406.848073 192.781868 
L 407.653631 193.107864 
L 408.459188 193.282361 
L 409.264745 192.990511 
L 410.070303 193.415126 
L 410.87586 193.068659 
L 411.681418 192.871729 
L 412.486975 192.61255 
L 413.292532 192.438809 
L 414.09809 191.878643 
L 414.903647 192.338687 
L 415.709205 192.147413 
L 416.514762 191.433454 
L 417.320319 190.651414 
L 418.125877 191.025416 
L 418.931434 190.795117 
L 419.736992 189.849101 
L 420.542549 190.307469 
L 421.348106 191.803104 
L 422.153664 191.948845 
L 422.959221 191.821194 
L 423.764779 192.233254 
L 424.570336 192.653405 
L 425.375893 192.38864 
L 426.181451 192.129903 
L 426.987008 192.09894 
L 427.792566 192.422883 
L 428.598123 192.499938 
L 429.40368 192.375741 
L 430.209238 192.851318 
L 431.014795 192.320521 
L 431.820353 192.311407 
L 432.62591 193.229361 
L 433.431467 192.997922 
L 434.237025 192.83336 
L 435.042582 193.08964 
L 435.84814 193.54561 
L 436.653697 194.157233 
L 437.459254 193.929633 
L 438.264812 194.040834 
L 439.070369 194.435894 
L 439.875927 194.63088 
L 440.681484 194.197264 
L 441.487041 193.900831 
L 442.292599 194.480207 
L 443.098156 194.301043 
L 443.903714 194.132761 
L 444.709271 194.18975 
L 445.514828 194.287861 
L 446.320386 193.985608 
L 447.125943 193.756613 
L 447.931501 193.727439 
L 448.737058 192.550482 
L 449.542615 191.829386 
L 450.348173 191.728819 
L 451.15373 191.284759 
L 451.959288 191.984338 
L 452.764845 191.612683 
L 453.570402 191.80968 
L 454.37596 192.135361 
L 455.181517 192.401968 
L 455.987075 192.660986 
L 456.792632 192.614468 
L 457.598189 192.851468 
L 458.403747 192.491413 
L 459.209304 192.838264 
L 460.014862 192.061993 
L 460.820419 191.997316 
L 461.625976 191.989561 
L 462.431534 191.965051 
L 463.237091 192.60915 
L 464.042649 192.672601 
L 464.848206 191.91082 
L 465.653763 192.532046 
L 466.459321 192.818645 
L 467.264878 192.777528 
L 468.070436 192.845343 
L 468.875993 193.086984 
L 469.68155 193.212646 
L 470.487108 192.919389 
L 471.292665 192.97535 
L 472.098223 192.46149 
L 472.90378 192.29627 
L 473.709337 192.078562 
L 474.514895 191.97406 
L 475.320452 190.840069 
L 476.12601 191.73507 
L 476.931567 192.038827 
L 477.737124 192.515513 
L 478.542682 193.057687 
L 479.348239 192.851752 
L 480.153797 192.258338 
L 480.959354 192.212029 
L 481.764911 191.712459 
L 482.570469 191.359946 
L 483.376026 191.441112 
L 484.181584 191.140174 
L 484.987141 190.339111 
L 485.792698 190.220605 
L 486.598256 190.67889 
L 487.403813 190.133114 
L 488.209371 190.214724 
L 489.014928 189.829558 
L 489.820485 189.904403 
L 490.626043 189.578485 
L 491.4316 189.771777 
L 492.237158 190.60235 
L 493.042715 191.14772 
L 493.848272 191.385731 
L 494.65383 191.86539 
L 495.459387 192.125453 
L 496.264945 192.509832 
L 497.070502 192.679532 
L 497.876059 193.048492 
L 498.681617 192.978778 
L 499.487174 192.31178 
L 500.292732 192.092291 
L 501.098289 193.10762 
L 501.903846 192.642307 
L 502.709404 192.586011 
L 503.514961 192.182153 
L 504.320519 191.583791 
L 505.126076 191.570862 
L 505.931633 190.843425 
L 506.737191 190.14668 
L 507.542748 190.54091 
L 508.348306 189.914994 
L 509.153863 189.800522 
L 509.95942 189.559961 
L 510.764978 189.297717 
L 511.570535 189.318145 
L 512.376093 188.71163 
L 513.18165 189.427866 
L 513.987207 189.373722 
L 514.792765 189.42192 
L 515.598322 189.937626 
L 516.40388 190.644706 
L 517.209437 190.903193 
L 518.014994 191.008334 
L 518.820552 190.884282 
L 519.626109 191.275843 
L 520.431667 191.015 
L 521.237224 190.948376 
L 522.042781 190.746953 
L 522.848339 190.53625 
L 523.653896 190.575346 
L 524.459454 189.880644 
L 525.265011 189.105629 
L 526.070568 188.880515 
L 526.876126 189.099218 
L 527.681683 188.639711 
L 528.487241 188.831084 
L 529.292798 187.971994 
L 530.098355 187.72163 
L 530.903913 187.437472 
L 531.70947 187.609711 
L 532.515028 188.401369 
L 533.320585 188.161468 
L 534.126142 188.612312 
L 534.9317 188.798064 
L 535.737257 189.163898 
L 536.542815 190.000583 
L 537.348372 189.772378 
L 538.153929 190.164004 
L 538.959487 190.122011 
L 539.765044 189.656577 
L 540.570602 190.317869 
L 541.376159 190.553502 
L 542.181716 190.890706 
L 542.987274 190.865511 
L 543.792831 190.930971 
L 544.598389 190.61652 
L 545.403946 191.088582 
L 546.209503 190.646296 
L 547.015061 190.504062 
L 547.820618 190.741546 
L 548.626176 190.413543 
L 549.431733 190.475863 
L 550.23729 190.540938 
L 551.042848 190.295859 
L 551.848405 189.444219 
L 552.653963 188.829279 
L 553.45952 189.051205 
L 554.265077 188.512147 
L 555.070635 188.887366 
L 555.876192 188.996203 
L 556.68175 189.089835 
L 557.487307 189.474664 
L 558.292864 190.002492 
L 559.098422 189.878922 
L 559.903979 189.936456 
L 560.709537 190.038103 
L 561.515094 189.874745 
L 562.320651 190.250579 
L 563.126209 190.683877 
L 563.931766 190.846598 
L 564.737324 190.55135 
L 565.542881 190.182692 
L 566.348438 189.695352 
L 567.153996 189.023809 
L 567.959553 188.945577 
L 568.765111 189.08783 
L 569.570668 188.90019 
L 570.376225 188.911437 
L 571.181783 188.809682 
L 571.98734 189.216928 
L 572.792898 189.15086 
L 573.598455 189.264536 
L 574.404012 189.073858 
L 575.20957 188.815555 
L 576.015127 188.806255 
L 576.820685 189.444955 
L 577.626242 189.612758 
L 578.431799 189.678021 
L 579.237357 189.730996 
L 580.042914 189.443042 
L 580.848472 188.9185 
L 581.654029 188.630725 
L 582.459586 187.961855 
L 583.265144 188.31887 
L 584.070701 188.645171 
L 584.876259 188.877786 
L 585.681816 189.428022 
L 586.487373 190.148344 
L 587.292931 190.272884 
L 588.098488 190.260937 
L 588.904046 190.054015 
L 589.709603 189.548387 
L 590.51516 189.23629 
L 591.320718 188.912201 
L 592.126275 189.397616 
L 592.931833 189.22269 
L 593.73739 189.439294 
L 594.542947 190.097894 
L 595.348505 190.000217 
L 596.154062 189.598968 
L 596.95962 189.986267 
L 597.765177 189.731613 
L 598.570734 190.058207 
L 599.376292 190.045231 
L 600.181849 189.870403 
L 600.987407 190.181911 
L 601.792964 190.081313 
L 602.598521 189.214232 
L 603.404079 188.774846 
L 604.209636 188.511213 
L 605.015194 188.557271 
L 605.820751 187.737143 
L 606.626308 187.845968 
L 607.431866 188.088163 
L 608.237423 188.117038 
L 609.042981 188.577153 
L 609.848538 189.184426 
L 610.654095 188.900991 
L 611.459653 188.943069 
L 612.26521 189.031355 
L 613.070768 188.753322 
L 613.876325 188.757569 
L 614.681882 188.600976 
L 615.48744 188.20802 
L 616.292997 188.23707 
L 617.098555 187.903374 
L 617.904112 187.844118 
L 618.709669 188.258982 
L 619.515227 188.522233 
L 620.320784 187.784089 
L 621.126342 187.323176 
L 621.931899 187.823845 
L 622.737456 187.781463 
L 623.543014 187.83219 
L 624.348571 187.493362 
L 625.154129 187.468994 
L 625.959686 187.309807 
L 626.765243 187.70721 
L 627.570801 187.729431 
L 628.376358 188.063217 
L 629.181915 188.399345 
L 629.987473 187.970612 
L 630.79303 187.920908 
L 631.598588 187.819169 
L 632.404145 187.624922 
L 633.209702 187.938287 
L 634.01526 187.446095 
L 634.820817 187.464103 
L 635.626375 187.123114 
L 636.431932 187.688654 
L 637.237489 187.836783 
L 638.043047 188.123004 
L 638.848604 187.95018 
L 639.654162 187.595186 
L 640.459719 187.762433 
L 641.265276 187.81096 
L 642.070834 188.009983 
L 642.876391 187.997949 
L 643.681949 188.192058 
L 644.487506 188.258985 
L 645.293063 188.114733 
L 646.098621 187.948852 
L 646.904178 187.263767 
L 647.709736 187.087216 
L 648.515293 187.294499 
L 649.32085 186.792757 
L 650.126408 187.008558 
L 650.931965 187.093301 
L 651.737523 186.907957 
L 652.54308 187.083366 
L 653.348637 186.882177 
L 654.154195 186.785393 
L 654.959752 186.740626 
L 655.76531 186.807887 
L 656.570867 186.988216 
L 657.376424 187.193434 
L 658.181982 187.411609 
L 658.987539 187.630809 
L 659.793097 187.839102 
L 660.598654 188.024555 
L 661.404211 188.175235 
L 662.209769 188.27921 
L 663.015326 188.324549 
L 663.015326 150.766877 
L 663.015326 150.766877 
L 662.209769 150.67864 
L 661.404211 150.532162 
L 660.598654 150.339371 
L 659.793097 150.112196 
L 658.987539 149.862567 
L 658.181982 149.602413 
L 657.376424 149.343663 
L 656.570867 149.098247 
L 655.76531 148.878094 
L 654.959752 148.771378 
L 654.154195 148.777058 
L 653.348637 148.835119 
L 652.54308 148.997945 
L 651.737523 148.78453 
L 650.931965 148.932224 
L 650.126408 148.810181 
L 649.32085 148.557429 
L 648.515293 149.022565 
L 647.709736 148.779017 
L 646.904178 148.919643 
L 646.098621 149.569138 
L 645.293063 149.699762 
L 644.487506 149.809086 
L 643.681949 149.707558 
L 642.876391 149.479171 
L 642.070834 149.457246 
L 641.265276 149.224582 
L 640.459719 149.142728 
L 639.654162 148.942464 
L 638.848604 149.264749 
L 638.043047 149.405168 
L 637.237489 149.086844 
L 636.431932 148.906908 
L 635.626375 148.309858 
L 634.820817 148.619629 
L 634.01526 148.570691 
L 633.209702 149.032239 
L 632.404145 148.688512 
L 631.598588 148.852677 
L 630.79303 148.924609 
L 629.987473 148.94478 
L 629.181915 149.344251 
L 628.376358 148.979127 
L 627.570801 148.616608 
L 626.765243 148.565916 
L 625.959686 148.140298 
L 625.154129 148.271525 
L 624.348571 148.268184 
L 623.543014 148.579551 
L 622.737456 148.501609 
L 621.931899 148.517017 
L 621.126342 147.989612 
L 620.320784 148.424025 
L 619.515227 149.135902 
L 618.709669 148.846613 
L 617.904112 148.405937 
L 617.098555 148.439605 
L 616.292997 148.747932 
L 615.48744 148.693729 
L 614.681882 149.061747 
L 613.876325 149.193612 
L 613.070768 149.164844 
L 612.26521 149.418561 
L 611.459653 149.306159 
L 610.654095 149.240164 
L 609.848538 149.499876 
L 609.042981 148.869074 
L 608.237423 148.385617 
L 607.431866 148.333584 
L 606.626308 148.068415 
L 605.820751 147.936795 
L 605.015194 148.734305 
L 604.209636 148.665802 
L 603.404079 148.907158 
L 602.598521 149.324435 
L 601.792964 150.16957 
L 600.987407 150.248383 
L 600.181849 149.915246 
L 599.376292 150.068601 
L 598.570734 150.060254 
L 597.765177 149.712485 
L 596.95962 149.946109 
L 596.154062 149.537923 
L 595.348505 149.918421 
L 594.542947 149.995484 
L 593.73739 149.316402 
L 592.931833 149.079445 
L 592.126275 149.234144 
L 591.320718 148.728625 
L 590.51516 149.03273 
L 589.709603 149.324959 
L 588.904046 149.810834 
L 588.098488 149.998112 
L 587.292931 149.990522 
L 586.487373 149.846549 
L 585.681816 149.106897 
L 584.876259 148.537427 
L 584.070701 148.285673 
L 583.265144 147.940326 
L 582.459586 147.564351 
L 581.654029 148.214348 
L 580.848472 148.483332 
L 580.042914 148.989162 
L 579.237357 149.25848 
L 578.431799 149.186942 
L 577.626242 149.103185 
L 576.820685 148.916955 
L 576.015127 148.259891 
L 575.20957 148.250888 
L 574.404012 148.490945 
L 573.598455 148.663431 
L 572.792898 148.531614 
L 571.98734 148.579589 
L 571.181783 148.154294 
L 570.376225 148.238042 
L 569.570668 148.208826 
L 568.765111 148.378533 
L 567.959553 148.218378 
L 567.153996 148.278738 
L 566.348438 148.932435 
L 565.542881 149.401951 
L 564.737324 149.752805 
L 563.931766 150.030266 
L 563.126209 149.84977 
L 562.320651 149.398709 
L 561.515094 149.005118 
L 560.709537 149.150723 
L 559.903979 149.031324 
L 559.098422 148.956036 
L 558.292864 149.061846 
L 557.487307 148.51625 
L 556.68175 148.113641 
L 555.876192 148.002214 
L 555.070635 147.875565 
L 554.265077 147.482512 
L 553.45952 148.003712 
L 552.653963 147.763901 
L 551.848405 148.360925 
L 551.042848 149.194617 
L 550.23729 149.421709 
L 549.431733 149.338609 
L 548.626176 149.258221 
L 547.820618 149.568109 
L 547.015061 149.31246 
L 546.209503 149.436478 
L 545.403946 149.860492 
L 544.598389 149.3701 
L 543.792831 149.666159 
L 542.987274 149.582242 
L 542.181716 149.588912 
L 541.376159 149.233111 
L 540.570602 148.978808 
L 539.765044 148.298768 
L 538.959487 148.745374 
L 538.153929 148.768455 
L 537.348372 148.35783 
L 536.542815 148.566947 
L 535.737257 147.71108 
L 534.9317 147.325968 
L 534.126142 147.120839 
L 533.320585 146.650516 
L 532.515028 146.870832 
L 531.70947 146.05948 
L 530.903913 145.867435 
L 530.098355 146.131673 
L 529.292798 146.361998 
L 528.487241 147.200928 
L 527.681683 146.989271 
L 526.876126 147.428366 
L 526.070568 147.189121 
L 525.265011 147.393559 
L 524.459454 148.147762 
L 523.653896 148.821511 
L 522.848339 148.76132 
L 522.042781 148.95078 
L 521.237224 149.130812 
L 520.431667 149.175892 
L 519.626109 149.415035 
L 518.820552 149.001616 
L 518.014994 149.103648 
L 517.209437 148.976322 
L 516.40388 148.695482 
L 515.598322 147.965877 
L 514.792765 147.427472 
L 513.987207 147.356398 
L 513.18165 147.387485 
L 512.376093 146.648008 
L 511.570535 147.231094 
L 510.764978 147.187049 
L 509.95942 147.425482 
L 509.153863 147.642036 
L 508.348306 147.732301 
L 507.542748 148.333807 
L 506.737191 147.914963 
L 505.931633 148.586884 
L 505.126076 149.289285 
L 504.320519 149.276963 
L 503.514961 149.849856 
L 502.709404 150.228024 
L 501.903846 150.258404 
L 501.098289 150.697575 
L 500.292732 149.655873 
L 499.487174 149.848755 
L 498.681617 150.488909 
L 497.876059 150.531539 
L 497.070502 150.135251 
L 496.264945 149.937978 
L 495.459387 149.525775 
L 494.65383 149.237636 
L 493.848272 148.729646 
L 493.042715 148.463044 
L 492.237158 147.888821 
L 491.4316 147.029131 
L 490.626043 146.806453 
L 489.820485 147.102713 
L 489.014928 146.997937 
L 488.209371 147.352893 
L 487.403813 147.240793 
L 486.598256 147.755794 
L 485.792698 147.266448 
L 484.987141 147.353602 
L 484.181584 148.12302 
L 483.376026 148.392016 
L 482.570469 148.27861 
L 481.764911 148.598579 
L 480.959354 149.0653 
L 480.153797 149.078451 
L 479.348239 149.638394 
L 478.542682 149.810543 
L 477.737124 149.234265 
L 476.931567 148.723154 
L 476.12601 148.384646 
L 475.320452 147.454568 
L 474.514895 148.55315 
L 473.709337 148.621909 
L 472.90378 148.803537 
L 472.098223 148.932337 
L 471.292665 149.409433 
L 470.487108 149.316362 
L 469.68155 149.57216 
L 468.875993 149.408685 
L 468.070436 149.128876 
L 467.264878 149.022534 
L 466.459321 149.024761 
L 465.653763 148.698907 
L 464.848206 148.038058 
L 464.042649 148.759844 
L 463.237091 148.656023 
L 462.431534 147.971177 
L 461.625976 147.975171 
L 460.820419 148.007136 
L 460.014862 148.11017 
L 459.209304 148.689761 
L 458.403747 148.203397 
L 457.598189 148.579924 
L 456.792632 148.293377 
L 455.987075 148.269845 
L 455.181517 148.000386 
L 454.37596 147.739887 
L 453.570402 147.516239 
L 452.764845 147.227078 
L 451.959288 147.506012 
L 451.15373 146.98995 
L 450.348173 147.316975 
L 449.542615 147.323639 
L 448.737058 147.880941 
L 447.931501 148.94987 
L 447.125943 148.87387 
L 446.320386 149.028704 
L 445.514828 149.479353 
L 444.709271 149.537466 
L 443.903714 149.544824 
L 443.098156 149.784002 
L 442.292599 149.950683 
L 441.487041 149.569405 
L 440.681484 150.162773 
L 439.875927 150.420573 
L 439.070369 150.242406 
L 438.264812 149.786336 
L 437.459254 149.91997 
L 436.653697 150.152445 
L 435.84814 149.362664 
L 435.042582 149.043237 
L 434.237025 148.756941 
L 433.431467 149.157948 
L 432.62591 149.472823 
L 431.820353 148.362619 
L 431.014795 148.696013 
L 430.209238 149.337642 
L 429.40368 148.950929 
L 428.598123 149.471457 
L 427.792566 149.770793 
L 426.987008 149.664962 
L 426.181451 149.708496 
L 425.375893 149.869113 
L 424.570336 149.959389 
L 423.764779 149.34468 
L 422.959221 148.86277 
L 422.153664 148.781834 
L 421.348106 148.850935 
L 420.542549 147.769081 
L 419.736992 147.169545 
L 418.931434 148.175246 
L 418.125877 148.228827 
L 417.320319 147.875091 
L 416.514762 148.678113 
L 415.709205 149.288702 
L 414.903647 149.64926 
L 414.09809 149.326447 
L 413.292532 150.261526 
L 412.486975 150.834406 
L 411.681418 151.112762 
L 410.87586 151.496669 
L 410.070303 151.793815 
L 409.264745 151.679141 
L 408.459188 152.099248 
L 407.653631 152.15822 
L 406.848073 152.389943 
L 406.042516 151.930085 
L 405.236959 151.313387 
L 404.431401 151.69736 
L 403.625844 151.935892 
L 402.820286 150.62267 
L 402.014729 150.173171 
L 401.209172 150.54457 
L 400.403614 149.898909 
L 399.598057 150.002088 
L 398.792499 149.383585 
L 397.986942 149.104165 
L 397.181385 148.952258 
L 396.375827 148.520465 
L 395.57027 149.265802 
L 394.764712 149.665165 
L 393.959155 150.134065 
L 393.153598 152.081152 
L 392.34804 153.367354 
L 391.542483 154.821948 
L 390.736925 155.279511 
L 389.931368 155.966969 
L 389.125811 156.896698 
L 388.320253 156.66256 
L 387.514696 156.554008 
L 386.709138 156.54721 
L 385.903581 156.781649 
L 385.098024 156.431228 
L 384.292466 156.187601 
L 383.486909 154.941178 
L 382.681351 153.910718 
L 381.875794 153.314589 
L 381.070237 152.707669 
L 380.264679 153.426443 
L 379.459122 153.612566 
L 378.653564 154.219772 
L 377.848007 155.857737 
L 377.04245 157.553041 
L 376.236892 157.959904 
L 375.431335 158.26513 
L 374.625777 158.70574 
L 373.82022 159.229707 
L 373.014663 159.40774 
L 372.209105 159.536868 
L 371.403548 159.71396 
L 370.59799 159.822243 
L 369.792433 158.904739 
L 368.986876 158.788317 
L 368.181318 158.01431 
L 367.375761 157.579478 
L 366.570203 156.289582 
L 365.764646 155.992016 
L 364.959089 155.257765 
L 364.153531 154.70404 
L 363.347974 154.488262 
L 362.542416 154.909582 
L 361.736859 154.948841 
L 360.931302 154.109258 
L 360.125744 153.621868 
L 359.320187 153.143896 
L 358.514629 153.293363 
L 357.709072 153.801494 
L 356.903515 154.445097 
L 356.097957 154.742273 
L 355.2924 154.888411 
L 354.486842 155.510518 
L 353.681285 156.656136 
L 352.875728 156.753487 
L 352.07017 156.727993 
L 351.264613 156.639176 
L 350.459055 157.164807 
L 349.653498 157.775396 
L 348.847941 158.88791 
L 348.042383 159.575638 
L 347.236826 159.929631 
L 346.431268 159.425455 
L 345.625711 158.396485 
L 344.820154 157.814583 
L 344.014596 157.368648 
L 343.209039 156.410034 
L 342.403481 155.355421 
L 341.597924 155.153097 
L 340.792367 154.368449 
L 339.986809 154.122341 
L 339.181252 154.338959 
L 338.375694 154.519935 
L 337.570137 154.811751 
L 336.76458 155.502224 
L 335.959022 156.846113 
L 335.153465 157.560664 
L 334.347907 158.902694 
L 333.54235 159.451669 
L 332.736793 159.558045 
L 331.931235 159.620641 
L 331.125678 159.411486 
L 330.32012 158.679241 
L 329.514563 158.63891 
L 328.709006 157.408068 
L 327.903448 156.537413 
L 327.097891 155.873954 
L 326.292333 155.525183 
L 325.486776 154.34365 
L 324.681219 153.587798 
L 323.875661 153.14087 
L 323.070104 152.871872 
L 322.264546 152.586873 
L 321.458989 152.501171 
L 320.653432 151.722565 
L 319.847874 151.309222 
L 319.042317 151.408141 
L 318.236759 151.513473 
L 317.431202 150.61718 
L 316.625645 151.404984 
L 315.820087 151.422426 
L 315.01453 151.082596 
L 314.208972 151.838923 
L 313.403415 150.588358 
L 312.597858 151.003536 
L 311.7923 151.183013 
L 310.986743 151.138528 
L 310.181185 150.98259 
L 309.375628 151.408824 
L 308.570071 151.247238 
L 307.764513 151.051132 
L 306.958956 150.484859 
L 306.153398 150.605068 
L 305.347841 150.417269 
L 304.542284 150.874837 
L 303.736726 151.878647 
L 302.931169 152.499031 
L 302.125611 152.03776 
L 301.320054 152.885318 
L 300.514497 152.280303 
L 299.708939 151.405399 
L 298.903382 151.016439 
L 298.097824 149.585756 
L 297.292267 150.478675 
L 296.48671 150.381638 
L 295.681152 150.184537 
L 294.875595 149.462266 
L 294.070037 149.829731 
L 293.26448 149.011936 
L 292.458923 148.81291 
L 291.653365 147.911873 
L 290.847808 148.439248 
L 290.04225 148.304053 
L 289.236693 149.053561 
L 288.431136 149.441452 
L 287.625578 148.586746 
L 286.820021 147.495988 
L 286.014463 146.488416 
L 285.208906 144.690141 
L 284.403349 142.262467 
L 283.597791 141.775148 
L 282.792234 140.571466 
L 281.986676 140.082071 
L 281.181119 138.384986 
L 280.375562 137.191481 
L 279.570004 136.528887 
L 278.764447 136.44272 
L 277.958889 134.837365 
L 277.153332 134.249067 
L 276.347775 133.397824 
L 275.542217 133.482729 
L 274.73666 132.520092 
L 273.931102 133.085014 
L 273.125545 132.332296 
L 272.319988 131.475421 
L 271.51443 130.835911 
L 270.708873 129.969819 
L 269.903315 128.892412 
L 269.097758 128.229167 
L 268.292201 128.630258 
L 267.486643 127.577419 
L 266.681086 126.931571 
L 265.875528 126.325517 
L 265.069971 125.746901 
L 264.264414 125.036821 
L 263.458856 124.209897 
L 262.653299 123.206766 
L 261.847741 123.082491 
L 261.042184 122.680605 
L 260.236627 121.620928 
L 259.431069 122.081264 
L 258.625512 123.077758 
L 257.819954 122.27298 
L 257.014397 123.030813 
L 256.20884 122.460479 
L 255.403282 122.765606 
L 254.597725 122.247308 
L 253.792167 121.807278 
L 252.98661 120.638791 
L 252.181053 118.530696 
L 251.375495 116.847105 
L 250.569938 115.770331 
L 249.76438 114.585487 
L 248.958823 113.857511 
L 248.153266 113.180472 
L 247.347708 112.275217 
L 246.542151 113.856851 
L 245.736593 114.089908 
L 244.931036 114.836211 
L 244.125479 114.559653 
L 243.319921 116.277963 
L 242.514364 118.700602 
L 241.708806 119.17929 
L 240.903249 119.331604 
L 240.097692 119.971559 
L 239.292134 119.62834 
L 238.486577 119.882665 
L 237.681019 115.986913 
L 236.875462 115.260039 
L 236.069905 114.745002 
L 235.264347 114.319241 
L 234.45879 114.127156 
L 233.653232 113.898357 
L 232.847675 114.52655 
L 232.042118 115.867298 
L 231.23656 118.207122 
L 230.431003 117.330986 
L 229.625445 115.810149 
L 228.819888 113.921006 
L 228.014331 112.529674 
L 227.208773 109.040333 
L 226.403216 106.895099 
L 225.597658 105.513235 
L 224.792101 104.012722 
L 223.986544 101.283291 
L 223.180986 98.013502 
L 222.375429 94.933741 
L 221.569871 95.29193 
L 220.764314 92.791328 
L 219.958757 90.380625 
L 219.153199 92.377127 
L 218.347642 94.704653 
L 217.542084 98.947495 
L 216.736527 102.220203 
L 215.93097 102.401762 
L 215.125412 103.747478 
L 214.319855 104.973405 
L 213.514297 103.409524 
L 212.70874 103.509636 
L 211.903183 108.849398 
L 211.097625 114.727682 
L 210.292068 115.130219 
L 209.48651 118.063622 
L 208.680953 115.185962 
L 207.875396 116.354345 
L 207.069838 116.818416 
L 206.264281 113.658121 
L 205.458723 112.276664 
L 204.653166 112.017428 
L 203.847609 114.733411 
L 203.042051 115.308104 
L 202.236494 116.960536 
L 201.430936 114.218921 
L 200.625379 116.877106 
L 199.819822 118.686781 
L 199.014264 122.578984 
L 198.208707 122.442931 
L 197.403149 130.409825 
L 196.597592 137.009308 
L 195.792035 140.845285 
L 194.986477 149.200727 
L 194.18092 151.284616 
L 193.375362 152.960513 
L 192.569805 158.481435 
L 191.764248 160.791666 
L 190.95869 162.802063 
L 190.153133 170.676419 
L 189.347575 176.506892 
L 188.542018 180.624859 
L 187.736461 175.485479 
L 186.930903 175.980854 
L 186.125346 177.460664 
L 185.319789 180.345875 
L 184.514231 185.057456 
L 183.708674 192.016372 
L 182.903116 201.643591 
L 182.097559 214.360081 
L 181.292002 230.586809 
L 180.486444 250.744741 
z
" clip-path="url(#p0f0e65e109)" style="fill: #1f77b4; fill-opacity: 0.5"/>
   </g>
   <g id="line2d_21">
    <path d="M 180.486444 422.768933 
L 181.292002 400.901786 
L 182.097559 382.977812 
L 182.903116 368.576004 
L 183.708674 357.275357 
L 184.514231 348.654863 
L 185.319789 342.293518 
L 186.125346 337.770315 
L 186.930903 334.664246 
L 187.736461 332.554308 
L 188.542018 336.09078 
L 189.347575 330.381521 
L 190.153133 322.971335 
L 190.95869 313.528803 
L 192.569805 306.106284 
L 193.375362 299.051568 
L 194.986477 292.258303 
L 195.792035 282.403097 
L 196.597592 277.07862 
L 197.403149 269.001865 
L 198.208707 259.568885 
L 199.014264 258.250001 
L 199.819822 252.913969 
L 200.625379 249.671536 
L 201.430936 245.591622 
L 202.236494 246.922501 
L 203.042051 243.870286 
L 203.847609 241.906724 
L 204.653166 237.812746 
L 205.458723 236.704823 
L 206.264281 236.729917 
L 207.069838 238.544607 
L 207.875396 236.745649 
L 208.680953 234.25306 
L 209.48651 235.817153 
L 210.292068 231.580784 
L 211.097625 229.885844 
L 212.70874 216.114523 
L 213.514297 214.75346 
L 214.319855 215.066797 
L 215.93097 210.025127 
L 216.736527 208.624007 
L 217.542084 204.141989 
L 218.347642 198.700048 
L 219.958757 192.008296 
L 221.569871 194.592253 
L 222.375429 193.085433 
L 224.792101 198.778223 
L 226.403216 199.452501 
L 227.208773 200.508377 
L 228.014331 202.918103 
L 228.819888 203.239523 
L 229.625445 204.068418 
L 230.431003 204.538632 
L 231.23656 204.373731 
L 232.042118 201.002417 
L 232.847675 198.639686 
L 233.653232 196.998981 
L 235.264347 195.423088 
L 236.875462 194.404518 
L 237.681019 194.165637 
L 238.486577 197.104869 
L 239.292134 195.903221 
L 240.097692 195.308271 
L 240.903249 193.739267 
L 241.708806 192.66698 
L 242.514364 191.27736 
L 243.319921 187.952789 
L 244.125479 185.341507 
L 244.931036 184.734017 
L 245.736593 183.112548 
L 246.542151 182.01317 
L 247.347708 179.574019 
L 248.153266 179.630523 
L 249.76438 179.364179 
L 251.375495 179.989034 
L 252.181053 180.867119 
L 252.98661 182.178239 
L 253.792167 182.558245 
L 255.403282 181.964931 
L 256.20884 180.896565 
L 257.014397 180.711998 
L 257.819954 179.20756 
L 258.625512 179.273992 
L 259.431069 177.547372 
L 260.236627 176.365089 
L 261.042184 176.710961 
L 261.847741 176.407144 
L 262.653299 175.833779 
L 263.458856 176.147295 
L 265.069971 176.328983 
L 266.681086 176.189965 
L 267.486643 176.185731 
L 268.292201 176.596278 
L 269.097758 175.560647 
L 269.903315 175.597062 
L 270.708873 176.055313 
L 271.51443 176.309882 
L 272.319988 176.345464 
L 273.931102 176.769827 
L 274.73666 175.623526 
L 275.542217 176.012222 
L 276.347775 175.360776 
L 277.153332 175.652837 
L 277.958889 175.689275 
L 278.764447 176.750052 
L 279.570004 176.298884 
L 280.375562 176.431347 
L 281.181119 177.101886 
L 281.986676 178.283131 
L 282.792234 178.263772 
L 283.597791 178.965748 
L 284.403349 178.958371 
L 285.208906 180.898318 
L 286.014463 182.215797 
L 288.431136 183.767637 
L 289.236693 182.926282 
L 290.04225 181.730046 
L 290.847808 181.425208 
L 291.653365 180.464458 
L 292.458923 180.938738 
L 293.26448 180.717587 
L 294.070037 181.121744 
L 294.875595 180.347143 
L 295.681152 180.66874 
L 297.292267 180.18076 
L 298.097824 178.906318 
L 298.903382 179.961785 
L 299.708939 179.981796 
L 300.514497 180.493978 
L 301.320054 180.74246 
L 302.125611 179.544519 
L 302.931169 179.661517 
L 303.736726 178.702931 
L 304.542284 177.366953 
L 305.347841 176.58321 
L 306.153398 176.450788 
L 306.958956 176.016274 
L 307.764513 176.274118 
L 309.375628 176.032425 
L 310.181185 175.315156 
L 311.7923 174.950632 
L 312.597858 174.497164 
L 313.403415 173.813598 
L 314.208972 174.801339 
L 315.01453 173.787713 
L 315.820087 173.875729 
L 316.625645 173.611921 
L 317.431202 172.583157 
L 318.236759 173.24386 
L 319.847874 172.584378 
L 320.653432 172.778003 
L 321.458989 173.342103 
L 322.264546 173.218472 
L 323.875661 173.369168 
L 324.681219 173.622049 
L 325.486776 174.188873 
L 326.292333 175.186354 
L 327.097891 175.356013 
L 327.903448 175.84526 
L 328.709006 176.546564 
L 329.514563 177.612877 
L 330.32012 177.493462 
L 331.125678 178.070705 
L 331.931235 178.129563 
L 333.54235 177.673954 
L 334.347907 176.988562 
L 335.153465 175.514664 
L 335.959022 174.672755 
L 336.76458 173.205977 
L 337.570137 172.397048 
L 339.181252 171.70048 
L 339.986809 171.378465 
L 340.792367 171.523452 
L 341.597924 172.211215 
L 342.403481 172.320851 
L 344.014596 174.161138 
L 344.820154 174.526742 
L 345.625711 175.032354 
L 346.431268 175.989036 
L 347.236826 176.424888 
L 348.042383 176.006494 
L 348.847941 175.25825 
L 349.653498 174.089066 
L 351.264613 172.850886 
L 352.875728 172.878152 
L 353.681285 172.742773 
L 354.486842 171.562739 
L 355.2924 170.909788 
L 356.097957 170.73634 
L 356.903515 170.415348 
L 358.514629 169.226309 
L 359.320187 169.063275 
L 360.931302 170.011477 
L 361.736859 170.84739 
L 362.542416 170.807682 
L 363.347974 170.389095 
L 364.153531 170.610748 
L 364.959089 171.173453 
L 365.764646 171.919747 
L 366.570203 172.232383 
L 367.375761 173.540336 
L 368.181318 173.996172 
L 368.986876 174.794091 
L 369.792433 174.937296 
L 370.59799 175.884412 
L 373.014663 175.575339 
L 373.82022 175.43785 
L 375.431335 174.562227 
L 377.04245 173.949321 
L 378.653564 170.725151 
L 379.459122 170.176115 
L 380.264679 170.050524 
L 381.070237 169.394605 
L 383.486909 171.92471 
L 384.292466 173.248257 
L 385.903581 174.249721 
L 386.709138 174.153622 
L 387.514696 174.291808 
L 388.320253 174.689012 
L 389.125811 174.838148 
L 389.931368 174.09771 
L 390.736925 173.569922 
L 391.542483 173.196726 
L 393.153598 170.842221 
L 393.959155 169.124215 
L 394.764712 168.732201 
L 395.57027 168.533373 
L 396.375827 167.904158 
L 397.181385 168.427637 
L 398.792499 169.009835 
L 399.598057 169.58849 
L 400.403614 169.611258 
L 401.209172 170.387008 
L 402.014729 170.086376 
L 402.820286 170.675039 
L 403.625844 172.005311 
L 404.431401 171.908631 
L 405.236959 171.5069 
L 406.848073 172.585906 
L 408.459188 172.690804 
L 409.264745 172.334826 
L 410.070303 172.60447 
L 413.292532 171.350167 
L 414.09809 170.602545 
L 414.903647 170.993974 
L 415.709205 170.718058 
L 417.320319 169.263253 
L 418.125877 169.627122 
L 418.931434 169.485181 
L 419.736992 168.509323 
L 420.542549 169.038275 
L 421.348106 170.327019 
L 422.959221 170.341982 
L 424.570336 171.306397 
L 426.987008 170.881951 
L 427.792566 171.096838 
L 428.598123 170.985698 
L 429.40368 170.663335 
L 430.209238 171.09448 
L 431.014795 170.508267 
L 431.820353 170.337013 
L 432.62591 171.351092 
L 434.237025 170.79515 
L 435.84814 171.454137 
L 436.653697 172.154839 
L 437.459254 171.924801 
L 438.264812 171.913585 
L 439.070369 172.33915 
L 439.875927 172.525726 
L 441.487041 171.735118 
L 442.292599 172.215445 
L 443.903714 171.838793 
L 445.514828 171.883607 
L 446.320386 171.507156 
L 447.125943 171.315242 
L 447.931501 171.338655 
L 448.737058 170.215711 
L 449.542615 169.576513 
L 450.348173 169.522897 
L 451.15373 169.137355 
L 451.959288 169.745175 
L 452.764845 169.41988 
L 455.987075 170.465416 
L 456.792632 170.453923 
L 457.598189 170.715696 
L 458.403747 170.347405 
L 459.209304 170.764013 
L 460.014862 170.086081 
L 461.625976 169.982366 
L 462.431534 169.968114 
L 463.237091 170.632586 
L 464.042649 170.716223 
L 464.848206 169.974439 
L 465.653763 170.615477 
L 466.459321 170.921703 
L 468.070436 170.987109 
L 469.68155 171.392403 
L 470.487108 171.117875 
L 471.292665 171.192392 
L 472.098223 170.696914 
L 474.514895 170.263605 
L 475.320452 169.147319 
L 476.12601 170.059858 
L 476.931567 170.380991 
L 478.542682 171.434115 
L 479.348239 171.245073 
L 480.153797 170.668395 
L 480.959354 170.638665 
L 481.764911 170.155519 
L 482.570469 169.819278 
L 483.376026 169.916564 
L 484.181584 169.631597 
L 484.987141 168.846356 
L 485.792698 168.743527 
L 486.598256 169.217342 
L 487.403813 168.686953 
L 488.209371 168.783809 
L 489.014928 168.413748 
L 489.820485 168.503558 
L 490.626043 168.192469 
L 491.4316 168.400454 
L 492.237158 169.245585 
L 493.042715 169.805382 
L 493.848272 170.057688 
L 494.65383 170.551513 
L 495.459387 170.825614 
L 496.264945 171.223905 
L 497.070502 171.407392 
L 497.876059 171.790015 
L 498.681617 171.733843 
L 499.487174 171.080268 
L 500.292732 170.874082 
L 501.098289 171.902597 
L 501.903846 171.450356 
L 502.709404 171.407017 
L 503.514961 171.016004 
L 504.320519 170.430377 
L 505.126076 170.430074 
L 506.737191 169.030822 
L 507.542748 169.437358 
L 508.348306 168.823647 
L 509.153863 168.721279 
L 510.764978 168.242383 
L 511.570535 168.27462 
L 512.376093 167.679819 
L 513.18165 168.407675 
L 514.792765 168.424696 
L 515.598322 168.951752 
L 516.40388 169.670094 
L 517.209437 169.939758 
L 518.014994 170.055991 
L 518.820552 169.942949 
L 519.626109 170.345439 
L 520.431667 170.095446 
L 521.237224 170.039594 
L 522.848339 169.648785 
L 523.653896 169.698429 
L 525.265011 168.249594 
L 526.070568 168.034818 
L 526.876126 168.263792 
L 527.681683 167.814491 
L 528.487241 168.016006 
L 529.292798 167.166996 
L 530.903913 166.652454 
L 531.70947 166.834595 
L 532.515028 167.636101 
L 533.320585 167.405992 
L 534.126142 167.866575 
L 534.9317 168.062016 
L 535.737257 168.437489 
L 536.542815 169.283765 
L 537.348372 169.065104 
L 538.153929 169.46623 
L 538.959487 169.433693 
L 539.765044 168.977672 
L 540.570602 169.648339 
L 542.181716 170.239809 
L 543.792831 170.298565 
L 544.598389 169.99331 
L 545.403946 170.474537 
L 546.209503 170.041387 
L 547.015061 169.908261 
L 547.820618 170.154827 
L 548.626176 169.835882 
L 550.23729 169.981324 
L 551.042848 169.745238 
L 551.848405 168.902572 
L 552.653963 168.29659 
L 553.45952 168.527459 
L 554.265077 167.99733 
L 555.070635 168.381466 
L 556.68175 168.601738 
L 557.487307 168.995457 
L 558.292864 169.532169 
L 559.098422 169.417479 
L 560.709537 169.594413 
L 561.515094 169.439931 
L 563.126209 170.266823 
L 563.931766 170.438432 
L 565.542881 169.792322 
L 566.348438 169.313894 
L 567.153996 168.651274 
L 567.959553 168.581978 
L 568.765111 168.733182 
L 569.570668 168.554508 
L 570.376225 168.57474 
L 571.181783 168.481988 
L 571.98734 168.898258 
L 572.792898 168.841237 
L 573.598455 168.963983 
L 576.015127 168.533073 
L 576.820685 169.180955 
L 578.431799 169.432481 
L 579.237357 169.494738 
L 580.042914 169.216102 
L 580.848472 168.700916 
L 581.654029 168.422536 
L 582.459586 167.763103 
L 584.070701 168.465422 
L 584.876259 168.707606 
L 585.681816 169.267459 
L 586.487373 169.997447 
L 587.292931 170.131703 
L 588.098488 170.129524 
L 588.904046 169.932425 
L 589.709603 169.436673 
L 591.320718 168.820413 
L 592.126275 169.31588 
L 592.931833 169.151068 
L 593.73739 169.377848 
L 594.542947 170.046689 
L 595.348505 169.959319 
L 596.154062 169.568446 
L 596.95962 169.966188 
L 597.765177 169.722049 
L 598.570734 170.05923 
L 599.376292 170.056916 
L 600.181849 169.892825 
L 600.987407 170.215147 
L 601.792964 170.125441 
L 602.598521 169.269334 
L 603.404079 168.841002 
L 604.209636 168.588508 
L 605.015194 168.645788 
L 605.820751 167.836969 
L 606.626308 167.957191 
L 607.431866 168.210873 
L 608.237423 168.251327 
L 609.042981 168.723114 
L 609.848538 169.342151 
L 610.654095 169.070578 
L 612.26521 169.224958 
L 613.070768 168.959083 
L 613.876325 168.975591 
L 614.681882 168.831362 
L 615.48744 168.450875 
L 616.292997 168.492501 
L 617.098555 168.171489 
L 617.904112 168.125027 
L 618.709669 168.552797 
L 619.515227 168.829067 
L 620.320784 168.104057 
L 621.126342 167.656394 
L 621.931899 168.170431 
L 623.543014 168.205871 
L 624.348571 167.880773 
L 625.154129 167.87026 
L 625.959686 167.725053 
L 626.765243 168.136563 
L 627.570801 168.173019 
L 629.181915 168.871798 
L 629.987473 168.457696 
L 631.598588 168.335923 
L 632.404145 168.156717 
L 633.209702 168.485263 
L 634.01526 168.008393 
L 634.820817 168.041866 
L 635.626375 167.716486 
L 636.431932 168.297781 
L 637.237489 168.461814 
L 638.043047 168.764086 
L 638.848604 168.607465 
L 639.654162 168.268825 
L 640.459719 168.452581 
L 641.265276 168.517771 
L 642.070834 168.733615 
L 642.876391 168.73856 
L 643.681949 168.949808 
L 644.487506 169.034035 
L 646.098621 168.758995 
L 646.904178 168.091705 
L 647.709736 167.933116 
L 648.515293 168.158532 
L 649.32085 167.675093 
L 650.126408 167.909369 
L 650.931965 168.012763 
L 651.737523 167.846244 
L 652.54308 168.040655 
L 654.154195 167.781225 
L 654.959752 167.756002 
L 655.76531 167.84299 
L 658.987539 168.746688 
L 661.404211 169.353698 
L 663.015326 169.545713 
L 663.015326 169.545713 
" clip-path="url(#p0f0e65e109)" style="fill: none; stroke: #1f77b4; stroke-width: 1.5; stroke-linecap: round"/>
   </g>
   <g id="patch_3">
    <path d="M 156.36 620.01375 
L 156.36 65.16 
" style="fill: none; stroke: #cccccc; stroke-linejoin: miter; stroke-linecap: square"/>
   </g>
   <g id="patch_4">
    <path d="M 687.14177 620.01375 
L 687.14177 65.16 
" style="fill: none; stroke: #cccccc; stroke-linejoin: miter; stroke-linecap: square"/>
   </g>
   <g id="patch_5">
    <path d="M 156.36 620.01375 
L 687.14177 620.01375 
" style="fill: none; stroke: #cccccc; stroke-linejoin: miter; stroke-linecap: square"/>
   </g>
   <g id="patch_6">
    <path d="M 156.36 65.16 
L 687.14177 65.16 
" style="fill: none; stroke: #cccccc; stroke-linejoin: miter; stroke-linecap: square"/>
   </g>
   <g id="text_13">
    <!-- Task Training -->
    <g style="fill: #262626" transform="translate(318.659479 57.793594)scale(0.35 -0.35)">
     <defs>
      <path id="ArialMT-54" d="M 1659 0 
L 1659 4041 
L 150 4041 
L 150 4581 
L 3781 4581 
L 3781 4041 
L 2266 4041 
L 2266 0 
L 1659 0 
z
" transform="scale(0.015625)"/>
      <path id="ArialMT-6b" d="M 425 0 
L 425 4581 
L 988 4581 
L 988 1969 
L 2319 3319 
L 3047 3319 
L 1778 2088 
L 3175 0 
L 2481 0 
L 1384 1697 
L 988 1316 
L 988 0 
L 425 0 
z
" transform="scale(0.015625)"/>
      <path id="ArialMT-6e" d="M 422 0 
L 422 3319 
L 928 3319 
L 928 2847 
Q 1294 3394 1984 3394 
Q 2284 3394 2536 3286 
Q 2788 3178 2913 3003 
Q 3038 2828 3088 2588 
Q 3119 2431 3119 2041 
L 3119 0 
L 2556 0 
L 2556 2019 
Q 2556 2363 2490 2533 
Q 2425 2703 2258 2804 
Q 2091 2906 1866 2906 
Q 1506 2906 1245 2678 
Q 984 2450 984 1813 
L 984 0 
L 422 0 
z
" transform="scale(0.015625)"/>
      <path id="ArialMT-67" d="M 319 -275 
L 866 -356 
Q 900 -609 1056 -725 
Q 1266 -881 1628 -881 
Q 2019 -881 2231 -725 
Q 2444 -569 2519 -288 
Q 2563 -116 2559 434 
Q 2191 0 1641 0 
Q 956 0 581 494 
Q 206 988 206 1678 
Q 206 2153 378 2554 
Q 550 2956 876 3175 
Q 1203 3394 1644 3394 
Q 2231 3394 2613 2919 
L 2613 3319 
L 3131 3319 
L 3131 450 
Q 3131 -325 2973 -648 
Q 2816 -972 2473 -1159 
Q 2131 -1347 1631 -1347 
Q 1038 -1347 672 -1080 
Q 306 -813 319 -275 
z
M 784 1719 
Q 784 1066 1043 766 
Q 1303 466 1694 466 
Q 2081 466 2343 764 
Q 2606 1063 2606 1700 
Q 2606 2309 2336 2618 
Q 2066 2928 1684 2928 
Q 1309 2928 1046 2623 
Q 784 2319 784 1719 
z
" transform="scale(0.015625)"/>
     </defs>
     <use xlink:href="#ArialMT-54"/>
     <use xlink:href="#ArialMT-61" x="49.958984"/>
     <use xlink:href="#ArialMT-73" x="105.574219"/>
     <use xlink:href="#ArialMT-6b" x="155.574219"/>
     <use xlink:href="#ArialMT-20" x="205.574219"/>
     <use xlink:href="#ArialMT-54" x="231.607422"/>
     <use xlink:href="#ArialMT-72" x="288.941406"/>
     <use xlink:href="#ArialMT-61" x="322.242188"/>
     <use xlink:href="#ArialMT-69" x="377.857422"/>
     <use xlink:href="#ArialMT-6e" x="400.074219"/>
     <use xlink:href="#ArialMT-69" x="455.689453"/>
     <use xlink:href="#ArialMT-6e" x="477.90625"/>
     <use xlink:href="#ArialMT-67" x="533.521484"/>
    </g>
   </g>
   <g id="legend_1">
    <g id="line2d_22">
     <path d="M 297.662083 340.025156 
L 327.662083 340.025156 
L 357.662083 340.025156 
" style="fill: none; stroke: #1f77b4; stroke-width: 1.5; stroke-linecap: round"/>
    </g>
    <g id="text_14">
     <!-- Episode Mean Score -->
     <g style="fill: #262626" transform="translate(381.662083 350.525156)scale(0.3 -0.3)">
      <defs>
       <path id="ArialMT-4d" d="M 475 0 
L 475 4581 
L 1388 4581 
L 2472 1338 
Q 2622 884 2691 659 
Q 2769 909 2934 1394 
L 4031 4581 
L 4847 4581 
L 4847 0 
L 4263 0 
L 4263 3834 
L 2931 0 
L 2384 0 
L 1059 3900 
L 1059 0 
L 475 0 
z
" transform="scale(0.015625)"/>
       <path id="ArialMT-53" d="M 288 1472 
L 859 1522 
Q 900 1178 1048 958 
Q 1197 738 1509 602 
Q 1822 466 2213 466 
Q 2559 466 2825 569 
Q 3091 672 3220 851 
Q 3350 1031 3350 1244 
Q 3350 1459 3225 1620 
Q 3100 1781 2813 1891 
Q 2628 1963 1997 2114 
Q 1366 2266 1113 2400 
Q 784 2572 623 2826 
Q 463 3081 463 3397 
Q 463 3744 659 4045 
Q 856 4347 1234 4503 
Q 1613 4659 2075 4659 
Q 2584 4659 2973 4495 
Q 3363 4331 3572 4012 
Q 3781 3694 3797 3291 
L 3216 3247 
Q 3169 3681 2898 3903 
Q 2628 4125 2100 4125 
Q 1550 4125 1298 3923 
Q 1047 3722 1047 3438 
Q 1047 3191 1225 3031 
Q 1400 2872 2139 2705 
Q 2878 2538 3153 2413 
Q 3553 2228 3743 1945 
Q 3934 1663 3934 1294 
Q 3934 928 3725 604 
Q 3516 281 3123 101 
Q 2731 -78 2241 -78 
Q 1619 -78 1198 103 
Q 778 284 539 648 
Q 300 1013 288 1472 
z
" transform="scale(0.015625)"/>
       <path id="ArialMT-63" d="M 2588 1216 
L 3141 1144 
Q 3050 572 2676 248 
Q 2303 -75 1759 -75 
Q 1078 -75 664 370 
Q 250 816 250 1647 
Q 250 2184 428 2587 
Q 606 2991 970 3192 
Q 1334 3394 1763 3394 
Q 2303 3394 2647 3120 
Q 2991 2847 3088 2344 
L 2541 2259 
Q 2463 2594 2264 2762 
Q 2066 2931 1784 2931 
Q 1359 2931 1093 2626 
Q 828 2322 828 1663 
Q 828 994 1084 691 
Q 1341 388 1753 388 
Q 2084 388 2306 591 
Q 2528 794 2588 1216 
z
" transform="scale(0.015625)"/>
      </defs>
      <use xlink:href="#ArialMT-45"/>
      <use xlink:href="#ArialMT-70" x="66.699219"/>
      <use xlink:href="#ArialMT-69" x="122.314453"/>
      <use xlink:href="#ArialMT-73" x="144.53125"/>
      <use xlink:href="#ArialMT-6f" x="194.53125"/>
      <use xlink:href="#ArialMT-64" x="250.146484"/>
      <use xlink:href="#ArialMT-65" x="305.761719"/>
      <use xlink:href="#ArialMT-20" x="361.376953"/>
      <use xlink:href="#ArialMT-4d" x="389.160156"/>
      <use xlink:href="#ArialMT-65" x="472.460938"/>
      <use xlink:href="#ArialMT-61" x="528.076172"/>
      <use xlink:href="#ArialMT-6e" x="583.691406"/>
      <use xlink:href="#ArialMT-20" x="639.306641"/>
      <use xlink:href="#ArialMT-53" x="667.089844"/>
      <use xlink:href="#ArialMT-63" x="733.789062"/>
      <use xlink:href="#ArialMT-6f" x="783.789062"/>
      <use xlink:href="#ArialMT-72" x="839.404297"/>
      <use xlink:href="#ArialMT-65" x="872.705078"/>
     </g>
    </g>
   </g>
  </g>
 </g>
 <defs>
  <clipPath id="p0f0e65e109">
   <rect x="156.36" y="65.16" width="530.78177" height="554.85375"/>
  </clipPath>
 </defs>
</svg>
