<?xml version="1.0" encoding="utf-8" standalone="no"?>
<!DOCTYPE svg PUBLIC "-//W3C//DTD SVG 1.1//EN"
  "http://www.w3.org/Graphics/SVG/1.1/DTD/svg11.dtd">
<svg xmlns:xlink="http://www.w3.org/1999/xlink" width="720pt" height="720pt" viewBox="0 0 720 720" xmlns="http://www.w3.org/2000/svg" version="1.1">
 <metadata>
  <rdf:RDF xmlns:dc="http://purl.org/dc/elements/1.1/" xmlns:cc="http://creativecommons.org/ns#" xmlns:rdf="http://www.w3.org/1999/02/22-rdf-syntax-ns#">
   <cc:Work>
    <dc:type rdf:resource="http://purl.org/dc/dcmitype/StillImage"/>
    <dc:date>2022-10-27T13:53:04.951059</dc:date>
    <dc:format>image/svg+xml</dc:format>
    <dc:creator>
     <cc:Agent>
      <dc:title>Matplotlib v3.5.2, https://matplotlib.org/</dc:title>
     </cc:Agent>
    </dc:creator>
   </cc:Work>
  </rdf:RDF>
 </metadata>
 <defs>
  <style type="text/css">*{stroke-linejoin: round; stroke-linecap: butt}</style>
 </defs>
 <g id="figure_1">
  <g id="patch_1">
   <path d="M 0 720 
L 720 720 
L 720 0 
L 0 0 
z
" style="fill: #ffffff"/>
  </g>
  <g id="axes_1">
   <g id="patch_2">
    <path d="M 156.36 620.01375 
L 687.14177 620.01375 
L 687.14177 60 
L 156.36 60 
z
" style="fill: #ffffff"/>
   </g>
   <g id="matplotlib.axis_1">
    <g id="xtick_1">
     <g id="line2d_1">
      <path d="M 180.486444 620.01375 
L 180.486444 60 
" clip-path="url(#peb2776e221)" style="fill: none; stroke: #cccccc; stroke-width: 0.8; stroke-linecap: round"/>
     </g>
     <g id="line2d_2"/>
     <g id="text_1">
      <!-- 0 -->
      <g style="fill: #262626" transform="translate(172.145038 644.987188)scale(0.3 -0.3)">
       <defs>
        <path id="ArialMT-30" d="M 266 2259 
Q 266 3072 433 3567 
Q 600 4063 929 4331 
Q 1259 4600 1759 4600 
Q 2128 4600 2406 4451 
Q 2684 4303 2865 4023 
Q 3047 3744 3150 3342 
Q 3253 2941 3253 2259 
Q 3253 1453 3087 958 
Q 2922 463 2592 192 
Q 2263 -78 1759 -78 
Q 1097 -78 719 397 
Q 266 969 266 2259 
z
M 844 2259 
Q 844 1131 1108 757 
Q 1372 384 1759 384 
Q 2147 384 2411 759 
Q 2675 1134 2675 2259 
Q 2675 3391 2411 3762 
Q 2147 4134 1753 4134 
Q 1366 4134 1134 3806 
Q 844 3388 844 2259 
z
" transform="scale(0.015625)"/>
       </defs>
       <use xlink:href="#ArialMT-30"/>
      </g>
     </g>
    </g>
    <g id="xtick_2">
     <g id="line2d_3">
      <path d="M 341.597924 620.01375 
L 341.597924 60 
" clip-path="url(#peb2776e221)" style="fill: none; stroke: #cccccc; stroke-width: 0.8; stroke-linecap: round"/>
     </g>
     <g id="line2d_4"/>
     <g id="text_2">
      <!-- 200 -->
      <g style="fill: #262626" transform="translate(316.573705 644.987188)scale(0.3 -0.3)">
       <defs>
        <path id="ArialMT-32" d="M 3222 541 
L 3222 0 
L 194 0 
Q 188 203 259 391 
Q 375 700 629 1000 
Q 884 1300 1366 1694 
Q 2113 2306 2375 2664 
Q 2638 3022 2638 3341 
Q 2638 3675 2398 3904 
Q 2159 4134 1775 4134 
Q 1369 4134 1125 3890 
Q 881 3647 878 3216 
L 300 3275 
Q 359 3922 746 4261 
Q 1134 4600 1788 4600 
Q 2447 4600 2831 4234 
Q 3216 3869 3216 3328 
Q 3216 3053 3103 2787 
Q 2991 2522 2730 2228 
Q 2469 1934 1863 1422 
Q 1356 997 1212 845 
Q 1069 694 975 541 
L 3222 541 
z
" transform="scale(0.015625)"/>
       </defs>
       <use xlink:href="#ArialMT-32"/>
       <use xlink:href="#ArialMT-30" x="55.615234"/>
       <use xlink:href="#ArialMT-30" x="111.230469"/>
      </g>
     </g>
    </g>
    <g id="xtick_3">
     <g id="line2d_5">
      <path d="M 502.709404 620.01375 
L 502.709404 60 
" clip-path="url(#peb2776e221)" style="fill: none; stroke: #cccccc; stroke-width: 0.8; stroke-linecap: round"/>
     </g>
     <g id="line2d_6"/>
     <g id="text_3">
      <!-- 400 -->
      <g style="fill: #262626" transform="translate(477.685185 644.987188)scale(0.3 -0.3)">
       <defs>
        <path id="ArialMT-34" d="M 2069 0 
L 2069 1097 
L 81 1097 
L 81 1613 
L 2172 4581 
L 2631 4581 
L 2631 1613 
L 3250 1613 
L 3250 1097 
L 2631 1097 
L 2631 0 
L 2069 0 
z
M 2069 1613 
L 2069 3678 
L 634 1613 
L 2069 1613 
z
" transform="scale(0.015625)"/>
       </defs>
       <use xlink:href="#ArialMT-34"/>
       <use xlink:href="#ArialMT-30" x="55.615234"/>
       <use xlink:href="#ArialMT-30" x="111.230469"/>
      </g>
     </g>
    </g>
    <g id="xtick_4">
     <g id="line2d_7">
      <path d="M 663.820884 620.01375 
L 663.820884 60 
" clip-path="url(#peb2776e221)" style="fill: none; stroke: #cccccc; stroke-width: 0.8; stroke-linecap: round"/>
     </g>
     <g id="line2d_8"/>
     <g id="text_4">
      <!-- 600 -->
      <g style="fill: #262626" transform="translate(638.796665 644.987188)scale(0.3 -0.3)">
       <defs>
        <path id="ArialMT-36" d="M 3184 3459 
L 2625 3416 
Q 2550 3747 2413 3897 
Q 2184 4138 1850 4138 
Q 1581 4138 1378 3988 
Q 1113 3794 959 3422 
Q 806 3050 800 2363 
Q 1003 2672 1297 2822 
Q 1591 2972 1913 2972 
Q 2475 2972 2870 2558 
Q 3266 2144 3266 1488 
Q 3266 1056 3080 686 
Q 2894 316 2569 119 
Q 2244 -78 1831 -78 
Q 1128 -78 684 439 
Q 241 956 241 2144 
Q 241 3472 731 4075 
Q 1159 4600 1884 4600 
Q 2425 4600 2770 4297 
Q 3116 3994 3184 3459 
z
M 888 1484 
Q 888 1194 1011 928 
Q 1134 663 1356 523 
Q 1578 384 1822 384 
Q 2178 384 2434 671 
Q 2691 959 2691 1453 
Q 2691 1928 2437 2201 
Q 2184 2475 1800 2475 
Q 1419 2475 1153 2201 
Q 888 1928 888 1484 
z
" transform="scale(0.015625)"/>
       </defs>
       <use xlink:href="#ArialMT-36"/>
       <use xlink:href="#ArialMT-30" x="55.615234"/>
       <use xlink:href="#ArialMT-30" x="111.230469"/>
      </g>
     </g>
    </g>
    <g id="text_5">
     <!-- Episode # -->
     <g style="fill: #262626" transform="translate(343.919635 680.428594)scale(0.35 -0.35)">
      <defs>
       <path id="ArialMT-45" d="M 506 0 
L 506 4581 
L 3819 4581 
L 3819 4041 
L 1113 4041 
L 1113 2638 
L 3647 2638 
L 3647 2100 
L 1113 2100 
L 1113 541 
L 3925 541 
L 3925 0 
L 506 0 
z
" transform="scale(0.015625)"/>
       <path id="ArialMT-70" d="M 422 -1272 
L 422 3319 
L 934 3319 
L 934 2888 
Q 1116 3141 1344 3267 
Q 1572 3394 1897 3394 
Q 2322 3394 2647 3175 
Q 2972 2956 3137 2557 
Q 3303 2159 3303 1684 
Q 3303 1175 3120 767 
Q 2938 359 2589 142 
Q 2241 -75 1856 -75 
Q 1575 -75 1351 44 
Q 1128 163 984 344 
L 984 -1272 
L 422 -1272 
z
M 931 1641 
Q 931 1000 1190 694 
Q 1450 388 1819 388 
Q 2194 388 2461 705 
Q 2728 1022 2728 1688 
Q 2728 2322 2467 2637 
Q 2206 2953 1844 2953 
Q 1484 2953 1207 2617 
Q 931 2281 931 1641 
z
" transform="scale(0.015625)"/>
       <path id="ArialMT-69" d="M 425 3934 
L 425 4581 
L 988 4581 
L 988 3934 
L 425 3934 
z
M 425 0 
L 425 3319 
L 988 3319 
L 988 0 
L 425 0 
z
" transform="scale(0.015625)"/>
       <path id="ArialMT-73" d="M 197 991 
L 753 1078 
Q 800 744 1014 566 
Q 1228 388 1613 388 
Q 2000 388 2187 545 
Q 2375 703 2375 916 
Q 2375 1106 2209 1216 
Q 2094 1291 1634 1406 
Q 1016 1563 777 1677 
Q 538 1791 414 1992 
Q 291 2194 291 2438 
Q 291 2659 392 2848 
Q 494 3038 669 3163 
Q 800 3259 1026 3326 
Q 1253 3394 1513 3394 
Q 1903 3394 2198 3281 
Q 2494 3169 2634 2976 
Q 2775 2784 2828 2463 
L 2278 2388 
Q 2241 2644 2061 2787 
Q 1881 2931 1553 2931 
Q 1166 2931 1000 2803 
Q 834 2675 834 2503 
Q 834 2394 903 2306 
Q 972 2216 1119 2156 
Q 1203 2125 1616 2013 
Q 2213 1853 2448 1751 
Q 2684 1650 2818 1456 
Q 2953 1263 2953 975 
Q 2953 694 2789 445 
Q 2625 197 2315 61 
Q 2006 -75 1616 -75 
Q 969 -75 630 194 
Q 291 463 197 991 
z
" transform="scale(0.015625)"/>
       <path id="ArialMT-6f" d="M 213 1659 
Q 213 2581 725 3025 
Q 1153 3394 1769 3394 
Q 2453 3394 2887 2945 
Q 3322 2497 3322 1706 
Q 3322 1066 3130 698 
Q 2938 331 2570 128 
Q 2203 -75 1769 -75 
Q 1072 -75 642 372 
Q 213 819 213 1659 
z
M 791 1659 
Q 791 1022 1069 705 
Q 1347 388 1769 388 
Q 2188 388 2466 706 
Q 2744 1025 2744 1678 
Q 2744 2294 2464 2611 
Q 2184 2928 1769 2928 
Q 1347 2928 1069 2612 
Q 791 2297 791 1659 
z
" transform="scale(0.015625)"/>
       <path id="ArialMT-64" d="M 2575 0 
L 2575 419 
Q 2259 -75 1647 -75 
Q 1250 -75 917 144 
Q 584 363 401 755 
Q 219 1147 219 1656 
Q 219 2153 384 2558 
Q 550 2963 881 3178 
Q 1213 3394 1622 3394 
Q 1922 3394 2156 3267 
Q 2391 3141 2538 2938 
L 2538 4581 
L 3097 4581 
L 3097 0 
L 2575 0 
z
M 797 1656 
Q 797 1019 1065 703 
Q 1334 388 1700 388 
Q 2069 388 2326 689 
Q 2584 991 2584 1609 
Q 2584 2291 2321 2609 
Q 2059 2928 1675 2928 
Q 1300 2928 1048 2622 
Q 797 2316 797 1656 
z
" transform="scale(0.015625)"/>
       <path id="ArialMT-65" d="M 2694 1069 
L 3275 997 
Q 3138 488 2766 206 
Q 2394 -75 1816 -75 
Q 1088 -75 661 373 
Q 234 822 234 1631 
Q 234 2469 665 2931 
Q 1097 3394 1784 3394 
Q 2450 3394 2872 2941 
Q 3294 2488 3294 1666 
Q 3294 1616 3291 1516 
L 816 1516 
Q 847 969 1125 678 
Q 1403 388 1819 388 
Q 2128 388 2347 550 
Q 2566 713 2694 1069 
z
M 847 1978 
L 2700 1978 
Q 2663 2397 2488 2606 
Q 2219 2931 1791 2931 
Q 1403 2931 1139 2672 
Q 875 2413 847 1978 
z
" transform="scale(0.015625)"/>
       <path id="ArialMT-20" transform="scale(0.015625)"/>
       <path id="ArialMT-23" d="M 322 -78 
L 594 1253 
L 66 1253 
L 66 1719 
L 688 1719 
L 919 2853 
L 66 2853 
L 66 3319 
L 1013 3319 
L 1284 4659 
L 1753 4659 
L 1481 3319 
L 2466 3319 
L 2738 4659 
L 3209 4659 
L 2938 3319 
L 3478 3319 
L 3478 2853 
L 2844 2853 
L 2609 1719 
L 3478 1719 
L 3478 1253 
L 2516 1253 
L 2244 -78 
L 1775 -78 
L 2044 1253 
L 1063 1253 
L 791 -78 
L 322 -78 
z
M 1156 1719 
L 2138 1719 
L 2372 2853 
L 1388 2853 
L 1156 1719 
z
" transform="scale(0.015625)"/>
      </defs>
      <use xlink:href="#ArialMT-45"/>
      <use xlink:href="#ArialMT-70" x="66.699219"/>
      <use xlink:href="#ArialMT-69" x="122.314453"/>
      <use xlink:href="#ArialMT-73" x="144.53125"/>
      <use xlink:href="#ArialMT-6f" x="194.53125"/>
      <use xlink:href="#ArialMT-64" x="250.146484"/>
      <use xlink:href="#ArialMT-65" x="305.761719"/>
      <use xlink:href="#ArialMT-20" x="361.376953"/>
      <use xlink:href="#ArialMT-23" x="389.160156"/>
     </g>
    </g>
   </g>
   <g id="matplotlib.axis_2">
    <g id="ytick_1">
     <g id="line2d_9">
      <path d="M 156.36 588.594534 
L 687.14177 588.594534 
" clip-path="url(#peb2776e221)" style="fill: none; stroke: #cccccc; stroke-width: 0.8; stroke-linecap: round"/>
     </g>
     <g id="line2d_10"/>
     <g id="text_6">
      <!-- −1000 -->
      <g style="fill: #262626" transform="translate(68.606875 599.331253)scale(0.3 -0.3)">
       <defs>
        <path id="ArialMT-2212" d="M 3381 1997 
L 356 1997 
L 356 2522 
L 3381 2522 
L 3381 1997 
z
" transform="scale(0.015625)"/>
        <path id="ArialMT-31" d="M 2384 0 
L 1822 0 
L 1822 3584 
Q 1619 3391 1289 3197 
Q 959 3003 697 2906 
L 697 3450 
Q 1169 3672 1522 3987 
Q 1875 4303 2022 4600 
L 2384 4600 
L 2384 0 
z
" transform="scale(0.015625)"/>
       </defs>
       <use xlink:href="#ArialMT-2212"/>
       <use xlink:href="#ArialMT-31" x="58.398438"/>
       <use xlink:href="#ArialMT-30" x="114.013672"/>
       <use xlink:href="#ArialMT-30" x="169.628906"/>
       <use xlink:href="#ArialMT-30" x="225.244141"/>
      </g>
     </g>
    </g>
    <g id="ytick_2">
     <g id="line2d_11">
      <path d="M 156.36 500.022237 
L 687.14177 500.022237 
" clip-path="url(#peb2776e221)" style="fill: none; stroke: #cccccc; stroke-width: 0.8; stroke-linecap: round"/>
     </g>
     <g id="line2d_12"/>
     <g id="text_7">
      <!-- −800 -->
      <g style="fill: #262626" transform="translate(85.289688 510.758955)scale(0.3 -0.3)">
       <defs>
        <path id="ArialMT-38" d="M 1131 2484 
Q 781 2613 612 2850 
Q 444 3088 444 3419 
Q 444 3919 803 4259 
Q 1163 4600 1759 4600 
Q 2359 4600 2725 4251 
Q 3091 3903 3091 3403 
Q 3091 3084 2923 2848 
Q 2756 2613 2416 2484 
Q 2838 2347 3058 2040 
Q 3278 1734 3278 1309 
Q 3278 722 2862 322 
Q 2447 -78 1769 -78 
Q 1091 -78 675 323 
Q 259 725 259 1325 
Q 259 1772 486 2073 
Q 713 2375 1131 2484 
z
M 1019 3438 
Q 1019 3113 1228 2906 
Q 1438 2700 1772 2700 
Q 2097 2700 2305 2904 
Q 2513 3109 2513 3406 
Q 2513 3716 2298 3927 
Q 2084 4138 1766 4138 
Q 1444 4138 1231 3931 
Q 1019 3725 1019 3438 
z
M 838 1322 
Q 838 1081 952 856 
Q 1066 631 1291 507 
Q 1516 384 1775 384 
Q 2178 384 2440 643 
Q 2703 903 2703 1303 
Q 2703 1709 2433 1975 
Q 2163 2241 1756 2241 
Q 1359 2241 1098 1978 
Q 838 1716 838 1322 
z
" transform="scale(0.015625)"/>
       </defs>
       <use xlink:href="#ArialMT-2212"/>
       <use xlink:href="#ArialMT-38" x="58.398438"/>
       <use xlink:href="#ArialMT-30" x="114.013672"/>
       <use xlink:href="#ArialMT-30" x="169.628906"/>
      </g>
     </g>
    </g>
    <g id="ytick_3">
     <g id="line2d_13">
      <path d="M 156.36 411.449939 
L 687.14177 411.449939 
" clip-path="url(#peb2776e221)" style="fill: none; stroke: #cccccc; stroke-width: 0.8; stroke-linecap: round"/>
     </g>
     <g id="line2d_14"/>
     <g id="text_8">
      <!-- −600 -->
      <g style="fill: #262626" transform="translate(85.289688 422.186658)scale(0.3 -0.3)">
       <use xlink:href="#ArialMT-2212"/>
       <use xlink:href="#ArialMT-36" x="58.398438"/>
       <use xlink:href="#ArialMT-30" x="114.013672"/>
       <use xlink:href="#ArialMT-30" x="169.628906"/>
      </g>
     </g>
    </g>
    <g id="ytick_4">
     <g id="line2d_15">
      <path d="M 156.36 322.877642 
L 687.14177 322.877642 
" clip-path="url(#peb2776e221)" style="fill: none; stroke: #cccccc; stroke-width: 0.8; stroke-linecap: round"/>
     </g>
     <g id="line2d_16"/>
     <g id="text_9">
      <!-- −400 -->
      <g style="fill: #262626" transform="translate(85.289688 333.614361)scale(0.3 -0.3)">
       <use xlink:href="#ArialMT-2212"/>
       <use xlink:href="#ArialMT-34" x="58.398438"/>
       <use xlink:href="#ArialMT-30" x="114.013672"/>
       <use xlink:href="#ArialMT-30" x="169.628906"/>
      </g>
     </g>
    </g>
    <g id="ytick_5">
     <g id="line2d_17">
      <path d="M 156.36 234.305345 
L 687.14177 234.305345 
" clip-path="url(#peb2776e221)" style="fill: none; stroke: #cccccc; stroke-width: 0.8; stroke-linecap: round"/>
     </g>
     <g id="line2d_18"/>
     <g id="text_10">
      <!-- −200 -->
      <g style="fill: #262626" transform="translate(85.289688 245.042063)scale(0.3 -0.3)">
       <use xlink:href="#ArialMT-2212"/>
       <use xlink:href="#ArialMT-32" x="58.398438"/>
       <use xlink:href="#ArialMT-30" x="114.013672"/>
       <use xlink:href="#ArialMT-30" x="169.628906"/>
      </g>
     </g>
    </g>
    <g id="ytick_6">
     <g id="line2d_19">
      <path d="M 156.36 145.733047 
L 687.14177 145.733047 
" clip-path="url(#peb2776e221)" style="fill: none; stroke: #cccccc; stroke-width: 0.8; stroke-linecap: round"/>
     </g>
     <g id="line2d_20"/>
     <g id="text_11">
      <!-- 0 -->
      <g style="fill: #262626" transform="translate(136.177188 156.469766)scale(0.3 -0.3)">
       <use xlink:href="#ArialMT-30"/>
      </g>
     </g>
    </g>
    <g id="text_12">
     <!-- Reward -->
     <g style="fill: #262626" transform="translate(57.650625 400.305313)rotate(-90)scale(0.35 -0.35)">
      <defs>
       <path id="ArialMT-52" d="M 503 0 
L 503 4581 
L 2534 4581 
Q 3147 4581 3465 4457 
Q 3784 4334 3975 4021 
Q 4166 3709 4166 3331 
Q 4166 2844 3850 2509 
Q 3534 2175 2875 2084 
Q 3116 1969 3241 1856 
Q 3506 1613 3744 1247 
L 4541 0 
L 3778 0 
L 3172 953 
Q 2906 1366 2734 1584 
Q 2563 1803 2427 1890 
Q 2291 1978 2150 2013 
Q 2047 2034 1813 2034 
L 1109 2034 
L 1109 0 
L 503 0 
z
M 1109 2559 
L 2413 2559 
Q 2828 2559 3062 2645 
Q 3297 2731 3419 2920 
Q 3541 3109 3541 3331 
Q 3541 3656 3305 3865 
Q 3069 4075 2559 4075 
L 1109 4075 
L 1109 2559 
z
" transform="scale(0.015625)"/>
       <path id="ArialMT-77" d="M 1034 0 
L 19 3319 
L 600 3319 
L 1128 1403 
L 1325 691 
Q 1338 744 1497 1375 
L 2025 3319 
L 2603 3319 
L 3100 1394 
L 3266 759 
L 3456 1400 
L 4025 3319 
L 4572 3319 
L 3534 0 
L 2950 0 
L 2422 1988 
L 2294 2553 
L 1622 0 
L 1034 0 
z
" transform="scale(0.015625)"/>
       <path id="ArialMT-61" d="M 2588 409 
Q 2275 144 1986 34 
Q 1697 -75 1366 -75 
Q 819 -75 525 192 
Q 231 459 231 875 
Q 231 1119 342 1320 
Q 453 1522 633 1644 
Q 813 1766 1038 1828 
Q 1203 1872 1538 1913 
Q 2219 1994 2541 2106 
Q 2544 2222 2544 2253 
Q 2544 2597 2384 2738 
Q 2169 2928 1744 2928 
Q 1347 2928 1158 2789 
Q 969 2650 878 2297 
L 328 2372 
Q 403 2725 575 2942 
Q 747 3159 1072 3276 
Q 1397 3394 1825 3394 
Q 2250 3394 2515 3294 
Q 2781 3194 2906 3042 
Q 3031 2891 3081 2659 
Q 3109 2516 3109 2141 
L 3109 1391 
Q 3109 606 3145 398 
Q 3181 191 3288 0 
L 2700 0 
Q 2613 175 2588 409 
z
M 2541 1666 
Q 2234 1541 1622 1453 
Q 1275 1403 1131 1340 
Q 988 1278 909 1158 
Q 831 1038 831 891 
Q 831 666 1001 516 
Q 1172 366 1500 366 
Q 1825 366 2078 508 
Q 2331 650 2450 897 
Q 2541 1088 2541 1459 
L 2541 1666 
z
" transform="scale(0.015625)"/>
       <path id="ArialMT-72" d="M 416 0 
L 416 3319 
L 922 3319 
L 922 2816 
Q 1116 3169 1280 3281 
Q 1444 3394 1641 3394 
Q 1925 3394 2219 3213 
L 2025 2691 
Q 1819 2813 1613 2813 
Q 1428 2813 1281 2702 
Q 1134 2591 1072 2394 
Q 978 2094 978 1738 
L 978 0 
L 416 0 
z
" transform="scale(0.015625)"/>
      </defs>
      <use xlink:href="#ArialMT-52"/>
      <use xlink:href="#ArialMT-65" x="72.216797"/>
      <use xlink:href="#ArialMT-77" x="127.832031"/>
      <use xlink:href="#ArialMT-61" x="200.048828"/>
      <use xlink:href="#ArialMT-72" x="255.664062"/>
      <use xlink:href="#ArialMT-64" x="288.964844"/>
     </g>
    </g>
   </g>
   <g id="PolyCollection_1">
    <path d="M 180.486444 247.310632 
L 180.486444 594.55858 
L 181.292002 570.762963 
L 182.097559 550.95927 
L 182.903116 534.722538 
L 183.708674 521.627808 
L 184.514231 511.250117 
L 185.319789 503.164505 
L 186.125346 496.946012 
L 186.930903 492.169676 
L 187.736461 488.410537 
L 188.542018 490.362083 
L 189.347575 482.993639 
L 190.153133 473.920135 
L 190.95869 462.807031 
L 191.764248 457.635633 
L 192.569805 452.184747 
L 193.375362 443.516366 
L 194.18092 438.751745 
L 194.986477 433.598234 
L 195.792035 422.137666 
L 196.597592 415.261332 
L 197.403149 405.618454 
L 198.208707 394.61803 
L 199.014264 391.818412 
L 199.819822 384.975501 
L 200.625379 380.25683 
L 201.430936 374.704025 
L 202.236494 374.623425 
L 203.042051 370.130025 
L 203.847609 366.746416 
L 204.653166 361.223556 
L 205.458723 358.725455 
L 206.264281 357.381807 
L 207.069838 357.855254 
L 207.875396 354.692266 
L 208.680953 350.839974 
L 209.48651 351.09283 
L 210.292068 345.501981 
L 211.097625 342.486857 
L 211.903183 333.966305 
L 212.70874 326.010445 
L 213.514297 323.364049 
L 214.319855 322.418125 
L 215.125412 318.677375 
L 215.93097 314.836571 
L 216.736527 312.191519 
L 217.542084 306.447262 
L 218.347642 299.744461 
L 219.153199 294.99532 
L 219.958757 290.600736 
L 220.764314 290.674718 
L 221.569871 290.859731 
L 222.375429 288.179585 
L 223.180986 288.989498 
L 223.986544 290.011268 
L 224.792101 290.507635 
L 225.597658 289.783558 
L 226.403216 288.959551 
L 227.208773 288.925757 
L 228.014331 290.268238 
L 228.819888 289.512784 
L 229.625445 289.279279 
L 230.431003 288.693473 
L 231.23656 287.47632 
L 232.042118 283.032571 
L 232.847675 279.616381 
L 233.653232 276.938488 
L 234.45879 275.144592 
L 235.264347 273.332595 
L 236.069905 271.775326 
L 236.875462 270.326962 
L 237.681019 269.111124 
L 238.486577 271.112275 
L 239.292134 268.943317 
L 240.097692 267.395942 
L 240.903249 264.874656 
L 241.708806 262.86387 
L 242.514364 260.541923 
L 243.319921 256.276114 
L 244.125479 252.739273 
L 244.931036 251.233863 
L 245.736593 248.71401 
L 246.542151 246.73003 
L 247.347708 243.402705 
L 248.153266 242.603091 
L 248.958823 241.590755 
L 249.76438 240.647367 
L 250.569938 240.182555 
L 251.375495 239.626048 
L 252.181053 239.699301 
L 252.98661 240.218228 
L 253.792167 239.805954 
L 254.597725 238.675511 
L 255.403282 237.64105 
L 256.20884 235.792413 
L 257.014397 234.844207 
L 257.819954 232.572231 
L 258.625512 231.894069 
L 259.431069 229.414474 
L 260.236627 227.492537 
L 261.042184 227.121182 
L 261.847741 226.102273 
L 262.653299 224.819448 
L 263.458856 224.43985 
L 264.264414 223.898525 
L 265.069971 223.255309 
L 265.875528 222.495366 
L 266.681086 221.778999 
L 267.486643 221.1186 
L 268.292201 220.8847 
L 269.097758 219.198996 
L 269.903315 218.603091 
L 270.708873 218.440689 
L 271.51443 218.080416 
L 272.319988 217.506784 
L 273.125545 217.167789 
L 273.931102 216.738842 
L 274.73666 214.995094 
L 275.542217 214.808126 
L 276.347775 213.578812 
L 277.153332 213.309207 
L 277.958889 212.788992 
L 278.764447 213.309991 
L 279.570004 212.312295 
L 280.375562 211.910929 
L 281.181119 212.059874 
L 281.986676 212.731467 
L 282.792234 212.198444 
L 283.597791 212.400577 
L 284.403349 211.893834 
L 285.208906 213.35956 
L 286.014463 214.204022 
L 286.820021 214.26434 
L 287.625578 214.422452 
L 288.431136 214.356069 
L 289.236693 213.049208 
L 290.04225 211.390964 
L 290.847808 210.639167 
L 291.653365 209.232076 
L 292.458923 209.280042 
L 293.26448 208.632748 
L 294.070037 208.623181 
L 294.875595 207.430454 
L 295.681152 207.350641 
L 296.48671 206.75374 
L 297.292267 206.068731 
L 298.097824 204.397367 
L 298.903382 205.083943 
L 299.708939 204.73176 
L 300.514497 204.88261 
L 301.320054 204.773554 
L 302.125611 203.210831 
L 302.931169 202.981442 
L 303.736726 201.672596 
L 304.542284 199.988936 
L 305.347841 198.868696 
L 306.153398 198.411843 
L 306.958956 197.65606 
L 307.764513 197.605004 
L 308.570071 197.192123 
L 309.375628 196.756105 
L 310.181185 195.738424 
L 310.986743 195.319878 
L 311.7923 194.800309 
L 312.597858 194.066084 
L 313.403415 193.105278 
L 314.208972 193.836936 
L 315.01453 192.554191 
L 315.820087 192.388871 
L 316.625645 191.873951 
L 317.431202 190.592421 
L 318.236759 191.021487 
L 319.042317 190.450372 
L 319.847874 189.896408 
L 320.653432 189.870071 
L 321.458989 190.222916 
L 322.264546 189.886857 
L 323.070104 189.762312 
L 323.875661 189.631903 
L 324.681219 189.691284 
L 325.486776 190.072591 
L 326.292333 190.893586 
L 327.097891 190.884045 
L 327.903448 191.20201 
L 328.709006 191.738911 
L 329.514563 192.649081 
L 330.32012 192.367324 
L 331.125678 192.793491 
L 331.931235 192.701202 
L 332.736793 192.344051 
L 333.54235 191.952054 
L 334.347907 191.122602 
L 335.153465 189.501903 
L 335.959022 188.52362 
L 336.76458 186.919171 
L 337.570137 185.98316 
L 338.375694 185.45838 
L 339.181252 185.054258 
L 339.986809 184.622872 
L 340.792367 184.667146 
L 341.597924 185.263518 
L 342.403481 185.280624 
L 343.209039 186.166339 
L 344.014596 186.963477 
L 344.820154 187.251403 
L 345.625711 187.684718 
L 346.431268 188.577338 
L 347.236826 188.948282 
L 348.042383 188.460997 
L 348.847941 187.644716 
L 349.653498 186.407461 
L 350.459055 185.684483 
L 351.264613 185.054859 
L 352.07017 185.052923 
L 352.875728 184.994523 
L 353.681285 184.819505 
L 354.486842 183.59376 
L 355.2924 182.903607 
L 356.097957 182.700982 
L 356.903515 182.352967 
L 357.709072 181.662279 
L 358.514629 181.115218 
L 359.320187 180.936974 
L 360.125744 181.398743 
L 360.931302 181.876676 
L 361.736859 182.716658 
L 362.542416 182.676128 
L 363.347974 182.256405 
L 364.153531 182.486051 
L 364.959089 183.063051 
L 365.764646 183.828442 
L 366.570203 184.159195 
L 367.375761 185.497535 
L 368.181318 185.97881 
L 368.986876 186.808285 
L 369.792433 186.979852 
L 370.59799 187.965665 
L 371.403548 187.921785 
L 372.209105 187.814013 
L 373.014663 187.760128 
L 373.82022 187.662281 
L 374.625777 187.220602 
L 375.431335 186.868297 
L 376.236892 186.657795 
L 377.04245 186.349796 
L 377.848007 184.746376 
L 378.653564 183.205755 
L 379.459122 182.710324 
L 380.264679 182.64466 
L 381.070237 182.046081 
L 381.875794 183.055158 
L 382.681351 183.832064 
L 383.486909 184.899069 
L 384.292466 186.312765 
L 385.098024 187.044266 
L 385.903581 187.734749 
L 386.709138 187.777383 
L 387.514696 188.049464 
L 388.320253 188.741698 
L 389.125811 188.806429 
L 389.931368 188.250155 
L 390.736925 187.878614 
L 391.542483 187.587099 
L 392.34804 186.567858 
L 393.153598 185.600581 
L 393.959155 184.09781 
L 394.764712 183.779751 
L 395.57027 183.781474 
L 396.375827 183.263609 
L 397.181385 183.884494 
L 397.986942 184.241131 
L 398.792499 184.624381 
L 399.598057 185.1682 
L 400.403614 185.318298 
L 401.209172 186.23256 
L 402.014729 186.000558 
L 402.820286 186.735153 
L 403.625844 188.095005 
L 404.431401 188.140597 
L 405.236959 187.717206 
L 406.042516 188.254386 
L 406.848073 188.808719 
L 407.653631 189.137747 
L 408.459188 189.313866 
L 409.264745 189.019302 
L 410.070303 189.447866 
L 410.87586 189.098177 
L 411.681418 188.899416 
L 412.486975 188.637826 
L 413.292532 188.46247 
L 414.09809 187.897094 
L 414.903647 188.361417 
L 415.709205 188.168364 
L 416.514762 187.447765 
L 417.320319 186.658452 
L 418.125877 187.035933 
L 418.931434 186.803492 
L 419.736992 185.848679 
L 420.542549 186.311309 
L 421.348106 187.820853 
L 422.153664 187.967949 
L 422.959221 187.839111 
L 423.764779 188.255003 
L 424.570336 188.679061 
L 425.375893 188.411834 
L 426.181451 188.150691 
L 426.987008 188.119441 
L 427.792566 188.446396 
L 428.598123 188.524167 
L 429.40368 188.398815 
L 430.209238 188.878815 
L 431.014795 188.343081 
L 431.820353 188.333883 
L 432.62591 189.260374 
L 433.431467 189.026783 
L 434.237025 188.86069 
L 435.042582 189.119354 
L 435.84814 189.579564 
L 436.653697 190.196875 
L 437.459254 189.967158 
L 438.264812 190.079393 
L 439.070369 190.478128 
L 439.875927 190.674926 
L 440.681484 190.237278 
L 441.487041 189.938089 
L 442.292599 190.522852 
L 443.098156 190.342022 
L 443.903714 190.172176 
L 444.709271 190.229694 
L 445.514828 190.328718 
L 446.320386 190.023654 
L 447.125943 189.79253 
L 447.931501 189.763084 
L 448.737058 188.575181 
L 449.542615 187.84738 
L 450.348173 187.745877 
L 451.15373 187.297687 
L 451.959288 188.003772 
L 452.764845 187.628661 
L 453.570402 187.82749 
L 454.37596 188.1562 
L 455.181517 188.425287 
L 455.987075 188.686713 
L 456.792632 188.639763 
L 457.598189 188.878966 
L 458.403747 188.515563 
L 459.209304 188.865639 
L 460.014862 188.082149 
L 460.820419 188.016871 
L 461.625976 188.009044 
L 462.431534 187.984306 
L 463.237091 188.634395 
L 464.042649 188.698436 
L 464.848206 187.929571 
L 465.653763 188.556574 
L 466.459321 188.845838 
L 467.264878 188.804339 
L 468.070436 188.872785 
L 468.875993 189.116673 
L 469.68155 189.243503 
L 470.487108 188.947519 
L 471.292665 189.004001 
L 472.098223 188.485362 
L 472.90378 188.318606 
L 473.709337 188.098872 
L 474.514895 187.993399 
L 475.320452 186.848862 
L 476.12601 187.752186 
L 476.931567 188.058769 
L 477.737124 188.539887 
L 478.542682 189.087104 
L 479.348239 188.879253 
L 480.153797 188.280321 
L 480.959354 188.233581 
L 481.764911 187.729365 
L 482.570469 187.373574 
L 483.376026 187.455494 
L 484.181584 187.151758 
L 484.987141 186.343245 
L 485.792698 186.223638 
L 486.598256 186.686184 
L 487.403813 186.135333 
L 488.209371 186.217702 
L 489.014928 185.828954 
L 489.820485 185.904494 
L 490.626043 185.575546 
L 491.4316 185.770635 
L 492.237158 186.608932 
L 493.042715 187.159374 
L 493.848272 187.399598 
L 494.65383 187.883718 
L 495.459387 188.1462 
L 496.264945 188.534154 
L 497.070502 188.705432 
L 497.876059 189.077823 
L 498.681617 189.00746 
L 499.487174 188.33426 
L 500.292732 188.112729 
L 501.098289 189.1375 
L 501.903846 188.66786 
L 502.709404 188.611041 
L 503.514961 188.203427 
L 504.320519 187.599501 
L 505.126076 187.586452 
L 505.931633 186.85225 
L 506.737191 186.149025 
L 507.542748 186.54692 
L 508.348306 185.915184 
L 509.153863 185.799648 
L 509.95942 185.556849 
L 510.764978 185.292166 
L 511.570535 185.312784 
L 512.376093 184.700629 
L 513.18165 185.423526 
L 513.987207 185.368878 
L 514.792765 185.417525 
L 515.598322 185.938027 
L 516.40388 186.651682 
L 517.209437 186.912573 
L 518.014994 187.018691 
L 518.820552 186.893486 
L 519.626109 187.288688 
L 520.431667 187.02542 
L 521.237224 186.958177 
L 522.042781 186.75488 
L 522.848339 186.542218 
L 523.653896 186.581677 
L 524.459454 185.880515 
L 525.265011 185.098292 
L 526.070568 184.871084 
L 526.876126 185.091822 
L 527.681683 184.628041 
L 528.487241 184.821194 
L 529.292798 183.954114 
L 530.098355 183.701423 
L 530.903913 183.414622 
L 531.70947 183.588463 
L 532.515028 184.387483 
L 533.320585 184.145351 
L 534.126142 184.600387 
L 534.9317 184.787867 
L 535.737257 185.157103 
L 536.542815 186.001569 
L 537.348372 185.771241 
L 538.153929 186.16651 
L 538.959487 186.124126 
L 539.765044 185.654364 
L 540.570602 186.321806 
L 541.376159 186.55963 
L 542.181716 186.89997 
L 542.987274 186.874541 
L 543.792831 186.940609 
L 544.598389 186.623234 
L 545.403946 187.099686 
L 546.209503 186.653287 
L 547.015061 186.50973 
L 547.820618 186.749423 
L 548.626176 186.41837 
L 549.431733 186.481269 
L 550.23729 186.546949 
L 551.042848 186.299591 
L 551.848405 185.440031 
L 552.653963 184.819372 
L 553.45952 185.043362 
L 554.265077 184.499291 
L 555.070635 184.878 
L 555.876192 184.987849 
L 556.68175 185.082351 
L 557.487307 185.470759 
L 558.292864 186.003496 
L 559.098422 185.878777 
L 559.903979 185.936845 
L 560.709537 186.039438 
L 561.515094 185.874561 
L 562.320651 186.25389 
L 563.126209 186.691217 
L 563.931766 186.855452 
L 564.737324 186.557457 
L 565.542881 186.185372 
L 566.348438 185.6935 
L 567.153996 185.015711 
L 567.959553 184.936751 
L 568.765111 185.080328 
L 569.570668 184.890943 
L 570.376225 184.902294 
L 571.181783 184.799592 
L 571.98734 185.210626 
L 572.792898 185.143944 
L 573.598455 185.258676 
L 574.404012 185.066225 
L 575.20957 184.80552 
L 576.015127 184.796134 
L 576.820685 185.440774 
L 577.626242 185.610137 
L 578.431799 185.676007 
L 579.237357 185.729475 
L 580.042914 185.438843 
L 580.848472 184.909423 
L 581.654029 184.618972 
L 582.459586 183.943881 
L 583.265144 184.304217 
L 584.070701 184.633552 
L 584.876259 184.86833 
L 585.681816 185.423684 
L 586.487373 186.150704 
L 587.292931 186.276402 
L 588.098488 186.264344 
L 588.904046 186.055498 
L 589.709603 185.545167 
L 590.51516 185.230168 
L 591.320718 184.903065 
L 592.126275 185.392994 
L 592.931833 185.216442 
L 593.73739 185.43506 
L 594.542947 186.099785 
L 595.348505 186.001199 
L 596.154062 185.59622 
L 596.95962 185.98712 
L 597.765177 185.730097 
L 598.570734 186.059728 
L 599.376292 186.046632 
L 600.181849 185.870178 
L 600.987407 186.184583 
L 601.792964 186.08305 
L 602.598521 185.207905 
L 603.404079 184.764433 
L 604.209636 184.498349 
L 605.015194 184.544834 
L 605.820751 183.717079 
L 606.626308 183.826916 
L 607.431866 184.071363 
L 608.237423 184.100508 
L 609.042981 184.564902 
L 609.848538 185.177821 
L 610.654095 184.891751 
L 611.459653 184.93422 
L 612.26521 185.023327 
L 613.070768 184.742709 
L 613.876325 184.746996 
L 614.681882 184.588946 
L 615.48744 184.192336 
L 616.292997 184.221656 
L 617.098555 183.884857 
L 617.904112 183.825049 
L 618.709669 184.243771 
L 619.515227 184.509471 
L 620.320784 183.764462 
L 621.126342 183.299262 
L 621.931899 183.804588 
L 622.737456 183.761812 
L 623.543014 183.81301 
L 624.348571 183.471031 
L 625.154129 183.446437 
L 625.959686 183.28577 
L 626.765243 183.686868 
L 627.570801 183.709296 
L 628.376358 184.046186 
L 629.181915 184.38544 
L 629.987473 183.952719 
L 630.79303 183.902553 
L 631.598588 183.799869 
L 632.404145 183.603815 
L 633.209702 183.920094 
L 634.01526 183.423325 
L 634.820817 183.4415 
L 635.626375 183.09734 
L 636.431932 183.668139 
L 637.237489 183.817647 
L 638.043047 184.106529 
L 638.848604 183.932098 
L 639.654162 183.573803 
L 640.459719 183.742605 
L 641.265276 183.791583 
L 642.070834 183.992457 
L 642.876391 183.980311 
L 643.681949 184.176225 
L 644.487506 184.243774 
L 645.293063 184.098181 
L 646.098621 183.930758 
L 646.904178 183.239301 
L 647.709736 183.061108 
L 648.515293 183.270319 
L 649.32085 182.763911 
L 650.126408 182.981719 
L 650.931965 183.06725 
L 651.737523 182.880182 
L 652.54308 183.057223 
L 653.348637 182.854163 
L 654.154195 182.756478 
L 654.959752 182.711295 
L 655.76531 182.779182 
L 656.570867 182.961187 
L 657.376424 183.168314 
L 658.181982 183.388518 
L 658.987539 183.609757 
L 659.793097 183.819987 
L 660.598654 184.007164 
L 661.404211 184.159246 
L 662.209769 184.264188 
L 663.015326 184.309948 
L 663.015326 146.402999 
L 663.015326 146.402999 
L 662.209769 146.313942 
L 661.404211 146.166101 
L 660.598654 145.971517 
L 659.793097 145.74223 
L 658.987539 145.490279 
L 658.181982 145.227706 
L 657.376424 144.96655 
L 656.570867 144.718852 
L 655.76531 144.496651 
L 654.959752 144.388943 
L 654.154195 144.394676 
L 653.348637 144.453276 
L 652.54308 144.617616 
L 651.737523 144.402217 
L 650.931965 144.551284 
L 650.126408 144.428106 
L 649.32085 144.173004 
L 648.515293 144.642465 
L 647.709736 144.396653 
L 646.904178 144.538587 
L 646.098621 145.194122 
L 645.293063 145.32596 
L 644.487506 145.436301 
L 643.681949 145.333829 
L 642.876391 145.103318 
L 642.070834 145.081189 
L 641.265276 144.846361 
L 640.459719 144.763746 
L 639.654162 144.56162 
L 638.848604 144.886902 
L 638.043047 145.028627 
L 637.237489 144.707342 
L 636.431932 144.525733 
L 635.626375 143.923131 
L 634.820817 144.235782 
L 634.01526 144.186389 
L 633.209702 144.65223 
L 632.404145 144.305306 
L 631.598588 144.470998 
L 630.79303 144.543599 
L 629.987473 144.563958 
L 629.181915 144.967143 
L 628.376358 144.598624 
L 627.570801 144.232734 
L 626.765243 144.18157 
L 625.959686 143.751994 
L 625.154129 143.884441 
L 624.348571 143.881069 
L 623.543014 144.195332 
L 622.737456 144.116665 
L 621.931899 144.132216 
L 621.126342 143.599906 
L 620.320784 144.038359 
L 619.515227 144.756857 
L 618.709669 144.464877 
L 617.904112 144.020103 
L 617.098555 144.054084 
L 616.292997 144.365278 
L 615.48744 144.310572 
L 614.681882 144.682012 
L 613.876325 144.815103 
L 613.070768 144.786068 
L 612.26521 145.042144 
L 611.459653 144.928697 
L 610.654095 144.862089 
L 609.848538 145.124216 
L 609.042981 144.487547 
L 608.237423 143.999594 
L 607.431866 143.947078 
L 606.626308 143.679443 
L 605.820751 143.546599 
L 605.015194 144.351525 
L 604.209636 144.282384 
L 603.404079 144.525986 
L 602.598521 144.947143 
L 601.792964 145.800137 
L 600.987407 145.879683 
L 600.181849 145.543449 
L 599.376292 145.698229 
L 598.570734 145.689805 
L 597.765177 145.338802 
L 596.95962 145.574599 
L 596.154062 145.162616 
L 595.348505 145.546653 
L 594.542947 145.624432 
L 593.73739 144.939035 
L 592.931833 144.699875 
L 592.126275 144.856012 
L 591.320718 144.345792 
L 590.51516 144.652725 
L 589.709603 144.947672 
L 588.904046 145.438065 
L 588.098488 145.627085 
L 587.292931 145.619425 
L 586.487373 145.474113 
L 585.681816 144.727582 
L 584.876259 144.152816 
L 584.070701 143.898721 
L 583.265144 143.550162 
L 582.459586 143.170691 
L 581.654029 143.826732 
L 580.848472 144.098218 
L 580.042914 144.608752 
L 579.237357 144.880574 
L 578.431799 144.808371 
L 577.626242 144.723835 
L 576.820685 144.535874 
L 576.015127 143.872699 
L 575.20957 143.863613 
L 574.404012 144.105902 
L 573.598455 144.279992 
L 572.792898 144.146949 
L 571.98734 144.19537 
L 571.181783 143.76612 
L 570.376225 143.850647 
L 569.570668 143.82116 
L 568.765111 143.992445 
L 567.959553 143.8308 
L 567.153996 143.891722 
L 566.348438 144.551498 
L 565.542881 145.02538 
L 564.737324 145.379497 
L 563.931766 145.659538 
L 563.126209 145.477364 
L 562.320651 145.022108 
L 561.515094 144.624856 
L 560.709537 144.771816 
L 559.903979 144.651306 
L 559.098422 144.575318 
L 558.292864 144.682112 
L 557.487307 144.131442 
L 556.68175 143.725089 
L 555.876192 143.612626 
L 555.070635 143.484799 
L 554.265077 143.088091 
L 553.45952 143.614138 
L 552.653963 143.372097 
L 551.848405 143.974673 
L 551.042848 144.816117 
L 550.23729 145.045322 
L 549.431733 144.961449 
L 548.626176 144.880313 
L 547.820618 145.193083 
L 547.015061 144.935057 
L 546.209503 145.060228 
L 545.403946 145.488185 
L 544.598389 144.993233 
L 543.792831 145.292045 
L 542.987274 145.207347 
L 542.181716 145.214079 
L 541.376159 144.85497 
L 540.570602 144.598302 
L 539.765044 143.911938 
L 538.959487 144.362697 
L 538.153929 144.385993 
L 537.348372 143.971549 
L 536.542815 144.18261 
L 535.737257 143.318785 
L 534.9317 142.930091 
L 534.126142 142.723054 
L 533.320585 142.248357 
L 532.515028 142.470722 
L 531.70947 141.651824 
L 530.903913 141.457994 
L 530.098355 141.724689 
L 529.292798 141.957156 
L 528.487241 142.803888 
L 527.681683 142.590262 
L 526.876126 143.033442 
L 526.070568 142.791971 
L 525.265011 142.99831 
L 524.459454 143.759527 
L 523.653896 144.439542 
L 522.848339 144.378791 
L 522.042781 144.570013 
L 521.237224 144.75172 
L 520.431667 144.797219 
L 519.626109 145.038586 
L 518.820552 144.621322 
L 518.014994 144.724303 
L 517.209437 144.595793 
L 516.40388 144.312341 
L 515.598322 143.575951 
L 514.792765 143.032539 
L 513.987207 142.960804 
L 513.18165 142.992179 
L 512.376093 142.245826 
L 511.570535 142.834335 
L 510.764978 142.789879 
L 509.95942 143.03053 
L 509.153863 143.249098 
L 508.348306 143.340202 
L 507.542748 143.947303 
L 506.737191 143.524563 
L 505.931633 144.202733 
L 505.126076 144.911667 
L 504.320519 144.89923 
L 503.514961 145.47745 
L 502.709404 145.859135 
L 501.903846 145.889798 
L 501.098289 146.333053 
L 500.292732 145.281663 
L 499.487174 145.476339 
L 498.681617 146.122446 
L 497.876059 146.165473 
L 497.070502 145.7655 
L 496.264945 145.566392 
L 495.459387 145.150356 
L 494.65383 144.859537 
L 493.848272 144.346822 
L 493.042715 144.077741 
L 492.237158 143.498178 
L 491.4316 142.630493 
L 490.626043 142.405745 
L 489.820485 142.70476 
L 489.014928 142.599009 
L 488.209371 142.957266 
L 487.403813 142.844123 
L 486.598256 143.363914 
L 485.792698 142.870017 
L 484.987141 142.957982 
L 484.181584 143.734556 
L 483.376026 144.006053 
L 482.570469 143.891592 
L 481.764911 144.214537 
L 480.959354 144.685598 
L 480.153797 144.698871 
L 479.348239 145.264022 
L 478.542682 145.437772 
L 477.737124 144.856134 
L 476.931567 144.34027 
L 476.12601 143.998614 
L 475.320452 143.059887 
L 474.514895 144.168685 
L 473.709337 144.238083 
L 472.90378 144.421401 
L 472.098223 144.551399 
L 471.292665 145.032932 
L 470.487108 144.938995 
L 469.68155 145.197171 
L 468.875993 145.032177 
L 468.070436 144.749765 
L 467.264878 144.642434 
L 466.459321 144.644682 
L 465.653763 144.315798 
L 464.848206 143.648803 
L 464.042649 144.377302 
L 463.237091 144.272515 
L 462.431534 143.5813 
L 461.625976 143.585331 
L 460.820419 143.617593 
L 460.014862 143.721586 
L 459.209304 144.306567 
L 458.403747 143.81568 
L 457.598189 144.195709 
L 456.792632 143.906497 
L 455.987075 143.882746 
L 455.181517 143.610781 
L 454.37596 143.347859 
L 453.570402 143.122132 
L 452.764845 142.830281 
L 451.959288 143.111809 
L 451.15373 142.590948 
L 450.348173 142.921014 
L 449.542615 142.92774 
L 448.737058 143.490225 
L 447.931501 144.569095 
L 447.125943 144.492388 
L 446.320386 144.648662 
L 445.514828 145.103502 
L 444.709271 145.162155 
L 443.903714 145.169582 
L 443.098156 145.410984 
L 442.292599 145.579215 
L 441.487041 145.194391 
L 440.681484 145.793278 
L 439.875927 146.053474 
L 439.070369 145.873651 
L 438.264812 145.413339 
L 437.459254 145.548216 
L 436.653697 145.782853 
L 435.84814 144.985728 
L 435.042582 144.66333 
L 434.237025 144.374371 
L 433.431467 144.779108 
L 432.62591 145.096911 
L 431.820353 143.976383 
L 431.014795 144.312877 
L 430.209238 144.960473 
L 429.40368 144.570164 
L 428.598123 145.095533 
L 427.792566 145.397652 
L 426.987008 145.290836 
L 426.181451 145.334775 
L 425.375893 145.496887 
L 424.570336 145.588002 
L 423.764779 144.967577 
L 422.959221 144.481185 
L 422.153664 144.399496 
L 421.348106 144.46924 
L 420.542549 143.377324 
L 419.736992 142.772213 
L 418.931434 143.787267 
L 418.125877 143.841346 
L 417.320319 143.484321 
L 416.514762 144.29481 
L 415.709205 144.911078 
L 414.903647 145.274989 
L 414.09809 144.949174 
L 413.292532 145.892948 
L 412.486975 146.471156 
L 411.681418 146.752101 
L 410.87586 147.139578 
L 410.070303 147.439488 
L 409.264745 147.323747 
L 408.459188 147.747761 
L 407.653631 147.807281 
L 406.848073 148.041159 
L 406.042516 147.577025 
L 405.236959 146.954591 
L 404.431401 147.342136 
L 403.625844 147.582886 
L 402.820286 146.257451 
L 402.014729 145.803772 
L 401.209172 146.178625 
L 400.403614 145.52696 
L 399.598057 145.631098 
L 398.792499 145.006843 
L 397.986942 144.724825 
L 397.181385 144.571505 
L 396.375827 144.135697 
L 395.57027 144.887964 
L 394.764712 145.291042 
L 393.959155 145.764302 
L 393.153598 147.729497 
L 392.34804 149.02766 
L 391.542483 150.495782 
L 390.736925 150.9576 
L 389.931368 151.651451 
L 389.125811 152.589826 
L 388.320253 152.353511 
L 387.514696 152.243949 
L 386.709138 152.237088 
L 385.903581 152.473707 
L 385.098024 152.120027 
L 384.292466 151.874135 
L 383.486909 150.61612 
L 382.681351 149.576077 
L 381.875794 148.974405 
L 381.070237 148.361841 
L 380.264679 149.087299 
L 379.459122 149.275152 
L 378.653564 149.888006 
L 377.848007 151.541203 
L 377.04245 153.252273 
L 376.236892 153.662919 
L 375.431335 153.970984 
L 374.625777 154.415692 
L 373.82022 154.944532 
L 373.014663 155.124221 
L 372.209105 155.254549 
L 371.403548 155.433288 
L 370.59799 155.542578 
L 369.792433 154.616542 
L 368.986876 154.499037 
L 368.181318 153.717832 
L 367.375761 153.278955 
L 366.570203 151.977064 
L 365.764646 151.676731 
L 364.959089 150.935652 
L 364.153531 150.376777 
L 363.347974 150.158992 
L 362.542416 150.584231 
L 361.736859 150.623854 
L 360.931302 149.776463 
L 360.125744 149.284542 
L 359.320187 148.802124 
L 358.514629 148.952981 
L 357.709072 149.465837 
L 356.903515 150.115425 
L 356.097957 150.415366 
L 355.2924 150.562863 
L 354.486842 151.190755 
L 353.681285 152.347027 
L 352.875728 152.445283 
L 352.07017 152.419552 
L 351.264613 152.329909 
L 350.459055 152.860428 
L 349.653498 153.476696 
L 348.847941 154.599556 
L 348.042383 155.29368 
L 347.236826 155.650965 
L 346.431268 155.1421 
L 345.625711 154.103561 
L 344.820154 153.516247 
L 344.014596 153.066165 
L 343.209039 152.098636 
L 342.403481 151.034216 
L 341.597924 150.83001 
L 340.792367 150.038065 
L 339.986809 149.789668 
L 339.181252 150.008301 
L 338.375694 150.19096 
L 337.570137 150.48549 
L 336.76458 151.182384 
L 335.959022 152.538771 
L 335.153465 153.259967 
L 334.347907 154.614477 
L 333.54235 155.168558 
L 332.736793 155.275923 
L 331.931235 155.339102 
L 331.125678 155.128001 
L 330.32012 154.388947 
L 329.514563 154.34824 
L 328.709006 153.105952 
L 327.903448 152.2272 
L 327.097891 151.557571 
L 326.292333 151.205556 
L 325.486776 150.013036 
L 324.681219 149.250154 
L 323.875661 148.79907 
L 323.070104 148.52757 
L 322.264546 148.239921 
L 321.458989 148.153422 
L 320.653432 147.367575 
L 319.847874 146.950388 
L 319.042317 147.050227 
L 318.236759 147.156539 
L 317.431202 146.25191 
L 316.625645 147.047041 
L 315.820087 147.064645 
L 315.01453 146.721655 
L 314.208972 147.485016 
L 313.403415 146.22282 
L 312.597858 146.641859 
L 311.7923 146.823006 
L 310.986743 146.778107 
L 310.181185 146.620718 
L 309.375628 147.050917 
L 308.570071 146.887828 
L 307.764513 146.689898 
L 306.958956 146.118359 
L 306.153398 146.239685 
L 305.347841 146.05014 
L 304.542284 146.511964 
L 303.736726 147.525108 
L 302.931169 148.151262 
L 302.125611 147.685702 
L 301.320054 148.541141 
L 300.514497 147.9305 
L 299.708939 147.04746 
L 298.903382 146.654882 
L 298.097824 145.210894 
L 297.292267 146.112118 
L 296.48671 146.014178 
L 295.681152 145.815243 
L 294.875595 145.086256 
L 294.070037 145.457138 
L 293.26448 144.631738 
L 292.458923 144.430861 
L 291.653365 143.521444 
L 290.847808 144.053724 
L 290.04225 143.917272 
L 289.236693 144.67375 
L 288.431136 145.065248 
L 287.625578 144.202594 
L 286.820021 143.101691 
L 286.014463 142.08475 
L 285.208906 140.269752 
L 284.403349 137.819501 
L 283.597791 137.327649 
L 282.792234 136.112774 
L 281.986676 135.618828 
L 281.181119 133.90596 
L 280.375562 132.701356 
L 279.570004 132.0326 
L 278.764447 131.945632 
L 277.958889 130.325347 
L 277.153332 129.731578 
L 276.347775 128.872419 
L 275.542217 128.958113 
L 274.73666 127.986524 
L 273.931102 128.556699 
L 273.125545 127.796981 
L 272.319988 126.932138 
L 271.51443 126.28668 
L 270.708873 125.412534 
L 269.903315 124.325107 
L 269.097758 123.655695 
L 268.292201 124.060515 
L 267.486643 122.997885 
L 266.681086 122.346031 
L 265.875528 121.734341 
L 265.069971 121.150344 
L 264.264414 120.433661 
L 263.458856 119.599046 
L 262.653299 118.586586 
L 261.847741 118.461156 
L 261.042184 118.055532 
L 260.236627 116.986 
L 259.431069 117.450617 
L 258.625512 118.456379 
L 257.819954 117.644116 
L 257.014397 118.408997 
L 256.20884 117.833359 
L 255.403282 118.141324 
L 254.597725 117.618206 
L 253.792167 117.174084 
L 252.98661 115.99473 
L 252.181053 113.86703 
L 251.375495 112.167782 
L 250.569938 111.080995 
L 249.76438 109.885131 
L 248.958823 109.150386 
L 248.153266 108.46705 
L 247.347708 107.553377 
L 246.542151 109.14972 
L 245.736593 109.384944 
L 244.931036 110.138188 
L 244.125479 109.859057 
L 243.319921 111.593347 
L 242.514364 114.038516 
L 241.708806 114.521656 
L 240.903249 114.675387 
L 240.097692 115.321292 
L 239.292134 114.974882 
L 238.486577 115.231572 
L 237.681019 111.29959 
L 236.875462 110.565957 
L 236.069905 110.04613 
L 235.264347 109.616409 
L 234.45879 109.422539 
L 233.653232 109.191612 
L 232.847675 109.825646 
L 232.042118 111.178863 
L 231.23656 113.540447 
L 230.431003 112.656163 
L 229.625445 111.121183 
L 228.819888 109.214471 
L 228.014331 107.8102 
L 227.208773 104.288409 
L 226.403216 102.123225 
L 225.597658 100.72851 
L 224.792101 99.214043 
L 223.986544 96.459229 
L 223.180986 93.159031 
L 222.375429 90.05063 
L 221.569871 90.41215 
L 220.764314 87.888292 
L 219.958757 85.45517 
L 219.153199 87.470239 
L 218.347642 89.819411 
L 217.542084 94.10171 
L 216.736527 97.404853 
L 215.93097 97.588101 
L 215.125412 98.946332 
L 214.319855 100.18366 
L 213.514297 98.605235 
L 212.70874 98.706278 
L 211.903183 104.095699 
L 211.097625 110.028649 
L 210.292068 110.434929 
L 209.48651 113.395613 
L 208.680953 110.491191 
L 207.875396 111.670439 
L 207.069838 112.138826 
L 206.264281 108.949141 
L 205.458723 107.554837 
L 204.653166 107.293191 
L 203.847609 110.034431 
L 203.042051 110.614469 
L 202.236494 112.282268 
L 201.430936 109.515156 
L 200.625379 112.198062 
L 199.819822 114.024567 
L 199.014264 117.952966 
L 198.208707 117.815648 
L 197.403149 125.856632 
L 196.597592 132.517488 
L 195.792035 136.389139 
L 194.986477 144.822285 
L 194.18092 146.925553 
L 193.375362 148.617035 
L 192.569805 154.1893 
L 191.764248 156.521016 
L 190.95869 158.550109 
L 190.153133 166.497695 
L 189.347575 172.38239 
L 188.542018 176.538653 
L 187.736461 171.351478 
L 186.930903 171.85146 
L 186.125346 173.345032 
L 185.319789 176.257075 
L 184.514231 181.012472 
L 183.708674 188.036104 
L 182.903116 197.752854 
L 182.097559 210.587604 
L 181.292002 226.965236 
L 180.486444 247.310632 
z
" clip-path="url(#peb2776e221)" style="fill: #1f77b4; fill-opacity: 0.5"/>
   </g>
   <g id="line2d_21">
    <path d="M 180.486444 420.934606 
L 181.292002 398.8641 
L 182.097559 380.773437 
L 182.903116 366.237696 
L 183.708674 354.831956 
L 184.514231 346.131294 
L 185.319789 339.71079 
L 186.125346 335.145522 
L 186.930903 332.010568 
L 187.736461 329.881007 
L 188.542018 333.450368 
L 189.347575 327.688014 
L 190.153133 320.208915 
L 190.95869 310.67857 
L 192.569805 303.187024 
L 193.375362 296.066701 
L 194.986477 289.21026 
L 195.792035 279.263403 
L 196.597592 273.88941 
L 197.403149 265.737543 
L 198.208707 256.216839 
L 199.014264 254.885689 
L 199.819822 249.500034 
L 200.625379 246.227446 
L 201.430936 242.109591 
L 202.236494 243.452846 
L 203.042051 240.372247 
L 203.847609 238.390424 
L 204.653166 234.258373 
L 205.458723 233.140146 
L 206.264281 233.165474 
L 207.069838 234.99704 
L 207.875396 233.181352 
L 208.680953 230.665582 
L 209.48651 232.244222 
L 210.292068 227.968455 
L 211.097625 226.257753 
L 212.70874 212.358362 
L 213.514297 210.984642 
L 214.319855 211.300892 
L 215.93097 206.212336 
L 216.736527 204.798186 
L 217.542084 200.274486 
L 218.347642 194.781936 
L 219.958757 188.027953 
L 221.569871 190.63594 
L 222.375429 189.115107 
L 224.792101 194.860839 
L 226.403216 195.541388 
L 227.208773 196.607083 
L 228.014331 199.039219 
L 228.819888 199.363628 
L 229.625445 200.200231 
L 230.431003 200.674818 
L 231.23656 200.508383 
L 232.042118 197.105717 
L 232.847675 194.721014 
L 233.653232 193.06505 
L 235.264347 191.474502 
L 236.875462 190.446459 
L 237.681019 190.205357 
L 238.486577 193.171923 
L 239.292134 191.959099 
L 240.097692 191.358617 
L 240.903249 189.775021 
L 241.708806 188.692763 
L 242.514364 187.29022 
L 243.319921 183.934731 
L 244.125479 181.299165 
L 244.931036 180.686025 
L 245.736593 179.049477 
L 246.542151 177.939875 
L 247.347708 175.478041 
L 248.153266 175.53507 
L 249.76438 175.266249 
L 251.375495 175.896915 
L 252.181053 176.783166 
L 252.98661 178.106479 
L 253.792167 178.490019 
L 255.403282 177.891187 
L 256.20884 176.812886 
L 257.014397 176.626602 
L 257.819954 175.108174 
L 258.625512 175.175224 
L 259.431069 173.432546 
L 260.236627 172.239269 
L 261.042184 172.588357 
L 261.847741 172.281714 
L 262.653299 171.703017 
L 263.458856 172.019448 
L 265.069971 172.202827 
L 266.681086 172.062515 
L 267.486643 172.058242 
L 268.292201 172.472608 
L 269.097758 171.427345 
L 269.903315 171.464099 
L 270.708873 171.926611 
L 271.51443 172.183548 
L 272.319988 172.219461 
L 273.931102 172.647771 
L 274.73666 171.490809 
L 275.542217 171.88312 
L 276.347775 171.225615 
L 277.153332 171.520392 
L 277.958889 171.55717 
L 278.764447 172.627812 
L 279.570004 172.172447 
L 280.375562 172.306142 
L 281.181119 172.982917 
L 281.986676 174.175147 
L 282.792234 174.155609 
L 283.597791 174.864113 
L 284.403349 174.856667 
L 285.208906 176.814656 
L 286.014463 178.144386 
L 288.431136 179.710658 
L 289.236693 178.861479 
L 290.04225 177.654118 
L 290.847808 177.346446 
L 291.653365 176.37676 
L 292.458923 176.855451 
L 293.26448 176.632243 
L 294.070037 177.040159 
L 294.875595 176.258355 
L 295.681152 176.582942 
L 297.292267 176.090424 
L 298.097824 174.80413 
L 298.903382 175.869413 
L 299.708939 175.88961 
L 300.514497 176.406555 
L 301.320054 176.657347 
L 302.125611 175.448266 
L 302.931169 175.566352 
L 303.736726 174.598852 
L 304.542284 173.25045 
L 305.347841 172.459418 
L 306.153398 172.325764 
L 306.958956 171.887209 
L 307.764513 172.147451 
L 309.375628 171.903511 
L 310.181185 171.179571 
L 311.7923 170.811657 
L 312.597858 170.353972 
L 313.403415 169.664049 
L 314.208972 170.660976 
L 315.01453 169.637923 
L 315.820087 169.726758 
L 316.625645 169.460496 
L 317.431202 168.422165 
L 318.236759 169.089013 
L 319.847874 168.423398 
L 320.653432 168.618823 
L 321.458989 169.188169 
L 322.264546 169.063389 
L 323.875661 169.215486 
L 324.681219 169.470719 
L 325.486776 170.042814 
L 326.292333 171.049571 
L 327.097891 171.220808 
L 327.903448 171.714605 
L 328.709006 172.422431 
L 329.514563 173.498661 
L 330.32012 173.378135 
L 331.125678 173.960746 
L 331.931235 174.020152 
L 333.54235 173.560306 
L 334.347907 172.86854 
L 335.153465 171.380935 
L 335.959022 170.531196 
L 336.76458 169.050777 
L 337.570137 168.234325 
L 339.181252 167.531279 
L 339.986809 167.20627 
L 340.792367 167.352606 
L 341.597924 168.046764 
L 342.403481 168.15742 
L 344.014596 170.014821 
L 344.820154 170.383825 
L 345.625711 170.894139 
L 346.431268 171.859719 
L 347.236826 172.299623 
L 348.042383 171.877339 
L 348.847941 171.122136 
L 349.653498 169.942079 
L 351.264613 168.692384 
L 352.875728 168.719903 
L 353.681285 168.583266 
L 354.486842 167.392258 
L 355.2924 166.733235 
L 356.097957 166.558174 
L 356.903515 166.234196 
L 358.514629 165.0341 
L 359.320187 164.869549 
L 360.931302 165.82657 
L 361.736859 166.670256 
L 362.542416 166.630179 
L 363.347974 166.207699 
L 364.153531 166.431414 
L 364.959089 166.999351 
L 365.764646 167.752586 
L 366.570203 168.06813 
L 367.375761 169.388245 
L 368.181318 169.848321 
L 368.986876 170.653661 
L 369.792433 170.798197 
L 370.59799 171.754121 
L 373.014663 171.442174 
L 373.82022 171.303406 
L 375.431335 170.419641 
L 377.04245 169.801035 
L 378.653564 166.54688 
L 379.459122 165.992738 
L 380.264679 165.86598 
L 381.070237 165.203961 
L 383.486909 167.757594 
L 384.292466 169.09345 
L 385.903581 170.104228 
L 386.709138 170.007235 
L 387.514696 170.146707 
L 388.320253 170.547604 
L 389.125811 170.698128 
L 389.931368 169.950803 
L 390.736925 169.418107 
L 391.542483 169.04144 
L 393.153598 166.665039 
L 393.959155 164.931056 
L 394.764712 164.535396 
L 395.57027 164.334719 
L 396.375827 163.699653 
L 397.181385 164.228 
L 398.792499 164.815612 
L 399.598057 165.399649 
L 400.403614 165.422629 
L 401.209172 166.205593 
L 402.014729 165.902165 
L 402.820286 166.496302 
L 403.625844 167.838946 
L 404.431401 167.741366 
L 405.236959 167.335899 
L 406.848073 168.424939 
L 408.459188 168.530814 
L 409.264745 168.171525 
L 410.070303 168.443677 
L 413.292532 167.177709 
L 414.09809 166.423134 
L 414.903647 166.818203 
L 415.709205 166.539721 
L 417.320319 165.071387 
L 418.125877 165.43864 
L 418.931434 165.295379 
L 419.736992 164.310446 
L 420.542549 164.844316 
L 421.348106 166.145046 
L 422.959221 166.160148 
L 424.570336 167.133532 
L 426.987008 166.705139 
L 427.792566 166.922024 
L 428.598123 166.80985 
L 429.40368 166.484489 
L 430.209238 166.919644 
L 431.014795 166.327979 
L 431.820353 166.155133 
L 432.62591 167.178642 
L 434.237025 166.617531 
L 435.042582 166.891342 
L 435.84814 167.282646 
L 436.653697 167.989864 
L 437.459254 167.757687 
L 438.264812 167.746366 
L 439.070369 168.175889 
L 439.875927 168.3642 
L 441.487041 167.56624 
L 442.292599 168.051033 
L 443.903714 167.670879 
L 445.514828 167.71611 
L 446.320386 167.336158 
L 447.125943 167.142459 
L 447.931501 167.16609 
L 448.737058 166.032703 
L 449.542615 165.38756 
L 450.348173 165.333446 
L 451.15373 164.944318 
L 451.959288 165.55779 
L 452.764845 165.229471 
L 455.987075 166.284729 
L 456.792632 166.27313 
L 457.598189 166.537338 
L 458.403747 166.165621 
L 459.209304 166.586103 
L 460.014862 165.901868 
L 461.625976 165.797188 
L 462.431534 165.782803 
L 463.237091 166.453455 
L 464.042649 166.537869 
L 464.848206 165.789187 
L 465.653763 166.436186 
L 466.459321 166.74526 
L 468.070436 166.811275 
L 468.875993 167.074425 
L 469.68155 167.220337 
L 470.487108 166.943257 
L 471.292665 167.018466 
L 472.098223 166.51838 
L 474.514895 166.081042 
L 475.320452 164.954374 
L 476.12601 165.8754 
L 476.931567 166.199519 
L 478.542682 167.262438 
L 479.348239 167.071638 
L 480.153797 166.489596 
L 480.959354 166.45959 
L 481.764911 165.971951 
L 482.570469 165.632583 
L 483.376026 165.730774 
L 484.181584 165.443157 
L 484.987141 164.650613 
L 485.792698 164.546827 
L 486.598256 165.025049 
L 487.403813 164.489728 
L 488.209371 164.587484 
L 489.014928 164.213981 
L 489.820485 164.304627 
L 490.626043 163.990645 
L 491.4316 164.200564 
L 492.237158 165.053555 
L 493.042715 165.618558 
L 493.848272 165.87321 
L 494.65383 166.371627 
L 495.459387 166.648278 
L 496.264945 167.050273 
L 497.070502 167.235466 
L 497.876059 167.621648 
L 498.681617 167.564953 
L 499.487174 166.9053 
L 500.292732 166.697196 
L 501.098289 167.735277 
L 501.903846 167.278829 
L 502.709404 167.235088 
L 503.514961 166.840438 
L 504.320519 166.249365 
L 505.126076 166.249059 
L 506.737191 164.836794 
L 507.542748 165.247112 
L 508.348306 164.627693 
L 509.153863 164.524373 
L 510.764978 164.041023 
L 511.570535 164.073559 
L 512.376093 163.473228 
L 513.18165 164.207853 
L 514.792765 164.225032 
L 515.598322 164.756989 
L 516.40388 165.482011 
L 517.209437 165.754183 
L 518.014994 165.871497 
L 518.820552 165.757404 
L 519.626109 166.163637 
L 520.431667 165.911319 
L 521.237224 165.854948 
L 522.848339 165.460504 
L 523.653896 165.51061 
L 525.265011 164.048301 
L 526.070568 163.831528 
L 526.876126 164.062632 
L 527.681683 163.609152 
L 528.487241 163.812541 
L 529.292798 162.955635 
L 530.903913 162.436308 
L 531.70947 162.620143 
L 532.515028 163.429102 
L 533.320585 163.196854 
L 534.126142 163.66172 
L 534.9317 163.858979 
L 535.737257 164.237944 
L 536.542815 165.09209 
L 537.348372 164.871395 
L 538.153929 165.276251 
L 538.959487 165.243412 
L 539.765044 164.783151 
L 540.570602 165.460054 
L 542.181716 166.057025 
L 543.792831 166.116327 
L 544.598389 165.808234 
L 545.403946 166.293936 
L 546.209503 165.856757 
L 547.015061 165.722394 
L 547.820618 165.971253 
L 548.626176 165.649341 
L 550.23729 165.796135 
L 551.042848 165.557854 
L 551.848405 164.707352 
L 552.653963 164.095735 
L 553.45952 164.32875 
L 554.265077 163.793691 
L 555.070635 164.181399 
L 556.68175 164.40372 
L 557.487307 164.801101 
L 558.292864 165.342804 
L 559.098422 165.227047 
L 560.709537 165.405627 
L 561.515094 165.249708 
L 563.126209 166.08429 
L 563.931766 166.257495 
L 565.542881 165.605376 
L 566.348438 165.122499 
L 567.153996 164.453716 
L 567.959553 164.383776 
L 568.765111 164.536386 
L 569.570668 164.356051 
L 570.376225 164.376471 
L 571.181783 164.282856 
L 571.98734 164.702998 
L 572.792898 164.645446 
L 573.598455 164.769334 
L 575.20957 164.334566 
L 576.015127 164.334416 
L 576.820685 164.988324 
L 578.431799 165.242189 
L 579.237357 165.305025 
L 580.042914 165.023798 
L 580.848472 164.50382 
L 581.654029 164.222852 
L 582.459586 163.557286 
L 584.070701 164.266136 
L 584.876259 164.510573 
L 585.681816 165.075633 
L 586.487373 165.812408 
L 587.292931 165.947913 
L 588.098488 165.945715 
L 588.904046 165.746782 
L 589.709603 165.24642 
L 591.320718 164.624428 
L 592.126275 165.124503 
L 592.931833 164.958158 
L 593.73739 165.187048 
L 594.542947 165.862108 
L 595.348505 165.773926 
L 596.154062 165.379418 
L 596.95962 165.780859 
L 597.765177 165.53445 
L 598.570734 165.874767 
L 599.376292 165.872431 
L 600.181849 165.706813 
L 600.987407 166.032133 
L 601.792964 165.941593 
L 602.598521 165.077524 
L 603.404079 164.64521 
L 604.209636 164.390367 
L 605.015194 164.44818 
L 605.820751 163.631839 
L 606.626308 163.753179 
L 607.431866 164.009221 
L 608.237423 164.050051 
L 609.042981 164.526225 
L 609.848538 165.151019 
L 610.654095 164.87692 
L 612.26521 165.032736 
L 613.070768 164.764389 
L 613.876325 164.781049 
L 614.681882 164.635479 
L 615.48744 164.251454 
L 616.292997 164.293467 
L 617.098555 163.96947 
L 617.904112 163.922576 
L 618.709669 164.354324 
L 619.515227 164.633164 
L 620.320784 163.901411 
L 621.126342 163.449584 
L 621.931899 163.968402 
L 623.543014 164.004171 
L 624.348571 163.67605 
L 625.154129 163.665439 
L 625.959686 163.518882 
L 626.765243 163.934219 
L 627.570801 163.971015 
L 629.181915 164.676292 
L 629.987473 164.258339 
L 631.598588 164.135433 
L 632.404145 163.954561 
L 633.209702 164.286162 
L 634.01526 163.804857 
L 634.820817 163.838641 
L 635.626375 163.510235 
L 636.431932 164.096936 
L 637.237489 164.262494 
L 638.043047 164.567578 
L 638.848604 164.4095 
L 639.654162 164.067711 
L 640.459719 164.253176 
L 641.265276 164.318972 
L 642.070834 164.536823 
L 642.876391 164.541815 
L 643.681949 164.755027 
L 644.487506 164.840038 
L 646.098621 164.56244 
L 646.904178 163.888944 
L 647.709736 163.72888 
L 648.515293 163.956392 
L 649.32085 163.468458 
L 650.126408 163.704913 
L 650.931965 163.809267 
L 651.737523 163.6412 
L 652.54308 163.837419 
L 654.154195 163.575577 
L 654.959752 163.550119 
L 655.76531 163.637916 
L 658.987539 164.550018 
L 661.404211 165.162673 
L 663.015326 165.356474 
L 663.015326 165.356474 
" clip-path="url(#peb2776e221)" style="fill: none; stroke: #1f77b4; stroke-width: 1.5; stroke-linecap: round"/>
   </g>
   <g id="patch_3">
    <path d="M 156.36 620.01375 
L 156.36 60 
" style="fill: none; stroke: #cccccc; stroke-linejoin: miter; stroke-linecap: square"/>
   </g>
   <g id="patch_4">
    <path d="M 687.14177 620.01375 
L 687.14177 60 
" style="fill: none; stroke: #cccccc; stroke-linejoin: miter; stroke-linecap: square"/>
   </g>
   <g id="patch_5">
    <path d="M 156.36 620.01375 
L 687.14177 620.01375 
" style="fill: none; stroke: #cccccc; stroke-linejoin: miter; stroke-linecap: square"/>
   </g>
   <g id="patch_6">
    <path d="M 156.36 60 
L 687.14177 60 
" style="fill: none; stroke: #cccccc; stroke-linejoin: miter; stroke-linecap: square"/>
   </g>
   <g id="text_13">
    <!-- Task Training -->
    <g style="fill: #262626" transform="translate(333.386823 53.685938)scale(0.3 -0.3)">
     <defs>
      <path id="ArialMT-54" d="M 1659 0 
L 1659 4041 
L 150 4041 
L 150 4581 
L 3781 4581 
L 3781 4041 
L 2266 4041 
L 2266 0 
L 1659 0 
z
" transform="scale(0.015625)"/>
      <path id="ArialMT-6b" d="M 425 0 
L 425 4581 
L 988 4581 
L 988 1969 
L 2319 3319 
L 3047 3319 
L 1778 2088 
L 3175 0 
L 2481 0 
L 1384 1697 
L 988 1316 
L 988 0 
L 425 0 
z
" transform="scale(0.015625)"/>
      <path id="ArialMT-6e" d="M 422 0 
L 422 3319 
L 928 3319 
L 928 2847 
Q 1294 3394 1984 3394 
Q 2284 3394 2536 3286 
Q 2788 3178 2913 3003 
Q 3038 2828 3088 2588 
Q 3119 2431 3119 2041 
L 3119 0 
L 2556 0 
L 2556 2019 
Q 2556 2363 2490 2533 
Q 2425 2703 2258 2804 
Q 2091 2906 1866 2906 
Q 1506 2906 1245 2678 
Q 984 2450 984 1813 
L 984 0 
L 422 0 
z
" transform="scale(0.015625)"/>
      <path id="ArialMT-67" d="M 319 -275 
L 866 -356 
Q 900 -609 1056 -725 
Q 1266 -881 1628 -881 
Q 2019 -881 2231 -725 
Q 2444 -569 2519 -288 
Q 2563 -116 2559 434 
Q 2191 0 1641 0 
Q 956 0 581 494 
Q 206 988 206 1678 
Q 206 2153 378 2554 
Q 550 2956 876 3175 
Q 1203 3394 1644 3394 
Q 2231 3394 2613 2919 
L 2613 3319 
L 3131 3319 
L 3131 450 
Q 3131 -325 2973 -648 
Q 2816 -972 2473 -1159 
Q 2131 -1347 1631 -1347 
Q 1038 -1347 672 -1080 
Q 306 -813 319 -275 
z
M 784 1719 
Q 784 1066 1043 766 
Q 1303 466 1694 466 
Q 2081 466 2343 764 
Q 2606 1063 2606 1700 
Q 2606 2309 2336 2618 
Q 2066 2928 1684 2928 
Q 1309 2928 1046 2623 
Q 784 2319 784 1719 
z
" transform="scale(0.015625)"/>
     </defs>
     <use xlink:href="#ArialMT-54"/>
     <use xlink:href="#ArialMT-61" x="49.958984"/>
     <use xlink:href="#ArialMT-73" x="105.574219"/>
     <use xlink:href="#ArialMT-6b" x="155.574219"/>
     <use xlink:href="#ArialMT-20" x="205.574219"/>
     <use xlink:href="#ArialMT-54" x="231.607422"/>
     <use xlink:href="#ArialMT-72" x="288.941406"/>
     <use xlink:href="#ArialMT-61" x="322.242188"/>
     <use xlink:href="#ArialMT-69" x="377.857422"/>
     <use xlink:href="#ArialMT-6e" x="400.074219"/>
     <use xlink:href="#ArialMT-69" x="455.689453"/>
     <use xlink:href="#ArialMT-6e" x="477.90625"/>
     <use xlink:href="#ArialMT-67" x="533.521484"/>
    </g>
   </g>
   <g id="legend_1">
    <g id="line2d_22">
     <path d="M 297.662083 576.55125 
L 327.662083 576.55125 
L 357.662083 576.55125 
" style="fill: none; stroke: #1f77b4; stroke-width: 1.5; stroke-linecap: round"/>
    </g>
    <g id="text_14">
     <!-- Episode Mean Score -->
     <g style="fill: #262626" transform="translate(381.662083 587.05125)scale(0.3 -0.3)">
      <defs>
       <path id="ArialMT-4d" d="M 475 0 
L 475 4581 
L 1388 4581 
L 2472 1338 
Q 2622 884 2691 659 
Q 2769 909 2934 1394 
L 4031 4581 
L 4847 4581 
L 4847 0 
L 4263 0 
L 4263 3834 
L 2931 0 
L 2384 0 
L 1059 3900 
L 1059 0 
L 475 0 
z
" transform="scale(0.015625)"/>
       <path id="ArialMT-53" d="M 288 1472 
L 859 1522 
Q 900 1178 1048 958 
Q 1197 738 1509 602 
Q 1822 466 2213 466 
Q 2559 466 2825 569 
Q 3091 672 3220 851 
Q 3350 1031 3350 1244 
Q 3350 1459 3225 1620 
Q 3100 1781 2813 1891 
Q 2628 1963 1997 2114 
Q 1366 2266 1113 2400 
Q 784 2572 623 2826 
Q 463 3081 463 3397 
Q 463 3744 659 4045 
Q 856 4347 1234 4503 
Q 1613 4659 2075 4659 
Q 2584 4659 2973 4495 
Q 3363 4331 3572 4012 
Q 3781 3694 3797 3291 
L 3216 3247 
Q 3169 3681 2898 3903 
Q 2628 4125 2100 4125 
Q 1550 4125 1298 3923 
Q 1047 3722 1047 3438 
Q 1047 3191 1225 3031 
Q 1400 2872 2139 2705 
Q 2878 2538 3153 2413 
Q 3553 2228 3743 1945 
Q 3934 1663 3934 1294 
Q 3934 928 3725 604 
Q 3516 281 3123 101 
Q 2731 -78 2241 -78 
Q 1619 -78 1198 103 
Q 778 284 539 648 
Q 300 1013 288 1472 
z
" transform="scale(0.015625)"/>
       <path id="ArialMT-63" d="M 2588 1216 
L 3141 1144 
Q 3050 572 2676 248 
Q 2303 -75 1759 -75 
Q 1078 -75 664 370 
Q 250 816 250 1647 
Q 250 2184 428 2587 
Q 606 2991 970 3192 
Q 1334 3394 1763 3394 
Q 2303 3394 2647 3120 
Q 2991 2847 3088 2344 
L 2541 2259 
Q 2463 2594 2264 2762 
Q 2066 2931 1784 2931 
Q 1359 2931 1093 2626 
Q 828 2322 828 1663 
Q 828 994 1084 691 
Q 1341 388 1753 388 
Q 2084 388 2306 591 
Q 2528 794 2588 1216 
z
" transform="scale(0.015625)"/>
      </defs>
      <use xlink:href="#ArialMT-45"/>
      <use xlink:href="#ArialMT-70" x="66.699219"/>
      <use xlink:href="#ArialMT-69" x="122.314453"/>
      <use xlink:href="#ArialMT-73" x="144.53125"/>
      <use xlink:href="#ArialMT-6f" x="194.53125"/>
      <use xlink:href="#ArialMT-64" x="250.146484"/>
      <use xlink:href="#ArialMT-65" x="305.761719"/>
      <use xlink:href="#ArialMT-20" x="361.376953"/>
      <use xlink:href="#ArialMT-4d" x="389.160156"/>
      <use xlink:href="#ArialMT-65" x="472.460938"/>
      <use xlink:href="#ArialMT-61" x="528.076172"/>
      <use xlink:href="#ArialMT-6e" x="583.691406"/>
      <use xlink:href="#ArialMT-20" x="639.306641"/>
      <use xlink:href="#ArialMT-53" x="667.089844"/>
      <use xlink:href="#ArialMT-63" x="733.789062"/>
      <use xlink:href="#ArialMT-6f" x="783.789062"/>
      <use xlink:href="#ArialMT-72" x="839.404297"/>
      <use xlink:href="#ArialMT-65" x="872.705078"/>
     </g>
    </g>
   </g>
  </g>
 </g>
 <defs>
  <clipPath id="peb2776e221">
   <rect x="156.36" y="60" width="530.78177" height="560.01375"/>
  </clipPath>
 </defs>
</svg>
