<?xml version="1.0" encoding="utf-8" standalone="no"?>
<!DOCTYPE svg PUBLIC "-//W3C//DTD SVG 1.1//EN"
  "http://www.w3.org/Graphics/SVG/1.1/DTD/svg11.dtd">
<svg xmlns:xlink="http://www.w3.org/1999/xlink" width="720pt" height="720pt" viewBox="0 0 720 720" xmlns="http://www.w3.org/2000/svg" version="1.1">
 <metadata>
  <rdf:RDF xmlns:dc="http://purl.org/dc/elements/1.1/" xmlns:cc="http://creativecommons.org/ns#" xmlns:rdf="http://www.w3.org/1999/02/22-rdf-syntax-ns#">
   <cc:Work>
    <dc:type rdf:resource="http://purl.org/dc/dcmitype/StillImage"/>
    <dc:date>2022-10-28T15:10:49.399901</dc:date>
    <dc:format>image/svg+xml</dc:format>
    <dc:creator>
     <cc:Agent>
      <dc:title>Matplotlib v3.5.3, https://matplotlib.org/</dc:title>
     </cc:Agent>
    </dc:creator>
   </cc:Work>
  </rdf:RDF>
 </metadata>
 <defs>
  <style type="text/css">*{stroke-linejoin: round; stroke-linecap: butt}</style>
 </defs>
 <g id="figure_1">
  <g id="patch_1">
   <path d="M 0 720 
L 720 720 
L 720 0 
L 0 0 
z
" style="fill: #ffffff"/>
  </g>
  <g id="axes_1">
   <g id="patch_2">
    <path d="M 139.8 620.01375 
L 686.972058 620.01375 
L 686.972058 65.16 
L 139.8 65.16 
z
" style="fill: #ffffff"/>
   </g>
   <g id="matplotlib.axis_1">
    <g id="xtick_1">
     <g id="line2d_1">
      <path d="M 164.671457 620.01375 
L 164.671457 65.16 
" clip-path="url(#p056895d25e)" style="fill: none; stroke: #cccccc; stroke-width: 0.8; stroke-linecap: round"/>
     </g>
     <g id="line2d_2"/>
     <g id="text_1">
      <!-- 0 -->
      <g style="fill: #262626" transform="translate(156.330051 644.987188)scale(0.3 -0.3)">
       <defs>
        <path id="ArialMT-30" d="M 266 2259 
Q 266 3072 433 3567 
Q 600 4063 929 4331 
Q 1259 4600 1759 4600 
Q 2128 4600 2406 4451 
Q 2684 4303 2865 4023 
Q 3047 3744 3150 3342 
Q 3253 2941 3253 2259 
Q 3253 1453 3087 958 
Q 2922 463 2592 192 
Q 2263 -78 1759 -78 
Q 1097 -78 719 397 
Q 266 969 266 2259 
z
M 844 2259 
Q 844 1131 1108 757 
Q 1372 384 1759 384 
Q 2147 384 2411 759 
Q 2675 1134 2675 2259 
Q 2675 3391 2411 3762 
Q 2147 4134 1753 4134 
Q 1366 4134 1134 3806 
Q 844 3388 844 2259 
z
" transform="scale(0.015625)"/>
       </defs>
       <use xlink:href="#ArialMT-30"/>
      </g>
     </g>
    </g>
    <g id="xtick_2">
     <g id="line2d_3">
      <path d="M 264.356656 620.01375 
L 264.356656 65.16 
" clip-path="url(#p056895d25e)" style="fill: none; stroke: #cccccc; stroke-width: 0.8; stroke-linecap: round"/>
     </g>
     <g id="line2d_4"/>
     <g id="text_2">
      <!-- 100 -->
      <g style="fill: #262626" transform="translate(239.332438 644.987188)scale(0.3 -0.3)">
       <defs>
        <path id="ArialMT-31" d="M 2384 0 
L 1822 0 
L 1822 3584 
Q 1619 3391 1289 3197 
Q 959 3003 697 2906 
L 697 3450 
Q 1169 3672 1522 3987 
Q 1875 4303 2022 4600 
L 2384 4600 
L 2384 0 
z
" transform="scale(0.015625)"/>
       </defs>
       <use xlink:href="#ArialMT-31"/>
       <use xlink:href="#ArialMT-30" x="55.615234"/>
       <use xlink:href="#ArialMT-30" x="111.230469"/>
      </g>
     </g>
    </g>
    <g id="xtick_3">
     <g id="line2d_5">
      <path d="M 364.041855 620.01375 
L 364.041855 65.16 
" clip-path="url(#p056895d25e)" style="fill: none; stroke: #cccccc; stroke-width: 0.8; stroke-linecap: round"/>
     </g>
     <g id="line2d_6"/>
     <g id="text_3">
      <!-- 200 -->
      <g style="fill: #262626" transform="translate(339.017637 644.987188)scale(0.3 -0.3)">
       <defs>
        <path id="ArialMT-32" d="M 3222 541 
L 3222 0 
L 194 0 
Q 188 203 259 391 
Q 375 700 629 1000 
Q 884 1300 1366 1694 
Q 2113 2306 2375 2664 
Q 2638 3022 2638 3341 
Q 2638 3675 2398 3904 
Q 2159 4134 1775 4134 
Q 1369 4134 1125 3890 
Q 881 3647 878 3216 
L 300 3275 
Q 359 3922 746 4261 
Q 1134 4600 1788 4600 
Q 2447 4600 2831 4234 
Q 3216 3869 3216 3328 
Q 3216 3053 3103 2787 
Q 2991 2522 2730 2228 
Q 2469 1934 1863 1422 
Q 1356 997 1212 845 
Q 1069 694 975 541 
L 3222 541 
z
" transform="scale(0.015625)"/>
       </defs>
       <use xlink:href="#ArialMT-32"/>
       <use xlink:href="#ArialMT-30" x="55.615234"/>
       <use xlink:href="#ArialMT-30" x="111.230469"/>
      </g>
     </g>
    </g>
    <g id="xtick_4">
     <g id="line2d_7">
      <path d="M 463.727054 620.01375 
L 463.727054 65.16 
" clip-path="url(#p056895d25e)" style="fill: none; stroke: #cccccc; stroke-width: 0.8; stroke-linecap: round"/>
     </g>
     <g id="line2d_8"/>
     <g id="text_4">
      <!-- 300 -->
      <g style="fill: #262626" transform="translate(438.702836 644.987188)scale(0.3 -0.3)">
       <defs>
        <path id="ArialMT-33" d="M 269 1209 
L 831 1284 
Q 928 806 1161 595 
Q 1394 384 1728 384 
Q 2125 384 2398 659 
Q 2672 934 2672 1341 
Q 2672 1728 2419 1979 
Q 2166 2231 1775 2231 
Q 1616 2231 1378 2169 
L 1441 2663 
Q 1497 2656 1531 2656 
Q 1891 2656 2178 2843 
Q 2466 3031 2466 3422 
Q 2466 3731 2256 3934 
Q 2047 4138 1716 4138 
Q 1388 4138 1169 3931 
Q 950 3725 888 3313 
L 325 3413 
Q 428 3978 793 4289 
Q 1159 4600 1703 4600 
Q 2078 4600 2393 4439 
Q 2709 4278 2876 4000 
Q 3044 3722 3044 3409 
Q 3044 3113 2884 2869 
Q 2725 2625 2413 2481 
Q 2819 2388 3044 2092 
Q 3269 1797 3269 1353 
Q 3269 753 2831 336 
Q 2394 -81 1725 -81 
Q 1122 -81 723 278 
Q 325 638 269 1209 
z
" transform="scale(0.015625)"/>
       </defs>
       <use xlink:href="#ArialMT-33"/>
       <use xlink:href="#ArialMT-30" x="55.615234"/>
       <use xlink:href="#ArialMT-30" x="111.230469"/>
      </g>
     </g>
    </g>
    <g id="xtick_5">
     <g id="line2d_9">
      <path d="M 563.412253 620.01375 
L 563.412253 65.16 
" clip-path="url(#p056895d25e)" style="fill: none; stroke: #cccccc; stroke-width: 0.8; stroke-linecap: round"/>
     </g>
     <g id="line2d_10"/>
     <g id="text_5">
      <!-- 400 -->
      <g style="fill: #262626" transform="translate(538.388035 644.987188)scale(0.3 -0.3)">
       <defs>
        <path id="ArialMT-34" d="M 2069 0 
L 2069 1097 
L 81 1097 
L 81 1613 
L 2172 4581 
L 2631 4581 
L 2631 1613 
L 3250 1613 
L 3250 1097 
L 2631 1097 
L 2631 0 
L 2069 0 
z
M 2069 1613 
L 2069 3678 
L 634 1613 
L 2069 1613 
z
" transform="scale(0.015625)"/>
       </defs>
       <use xlink:href="#ArialMT-34"/>
       <use xlink:href="#ArialMT-30" x="55.615234"/>
       <use xlink:href="#ArialMT-30" x="111.230469"/>
      </g>
     </g>
    </g>
    <g id="xtick_6">
     <g id="line2d_11">
      <path d="M 663.097453 620.01375 
L 663.097453 65.16 
" clip-path="url(#p056895d25e)" style="fill: none; stroke: #cccccc; stroke-width: 0.8; stroke-linecap: round"/>
     </g>
     <g id="line2d_12"/>
     <g id="text_6">
      <!-- 500 -->
      <g style="fill: #262626" transform="translate(638.073234 644.987188)scale(0.3 -0.3)">
       <defs>
        <path id="ArialMT-35" d="M 266 1200 
L 856 1250 
Q 922 819 1161 601 
Q 1400 384 1738 384 
Q 2144 384 2425 690 
Q 2706 997 2706 1503 
Q 2706 1984 2436 2262 
Q 2166 2541 1728 2541 
Q 1456 2541 1237 2417 
Q 1019 2294 894 2097 
L 366 2166 
L 809 4519 
L 3088 4519 
L 3088 3981 
L 1259 3981 
L 1013 2750 
Q 1425 3038 1878 3038 
Q 2478 3038 2890 2622 
Q 3303 2206 3303 1553 
Q 3303 931 2941 478 
Q 2500 -78 1738 -78 
Q 1113 -78 717 272 
Q 322 622 266 1200 
z
" transform="scale(0.015625)"/>
       </defs>
       <use xlink:href="#ArialMT-35"/>
       <use xlink:href="#ArialMT-30" x="55.615234"/>
       <use xlink:href="#ArialMT-30" x="111.230469"/>
      </g>
     </g>
    </g>
    <g id="text_7">
     <!-- Episode # -->
     <g style="fill: #262626" transform="translate(335.554779 680.428594)scale(0.35 -0.35)">
      <defs>
       <path id="ArialMT-45" d="M 506 0 
L 506 4581 
L 3819 4581 
L 3819 4041 
L 1113 4041 
L 1113 2638 
L 3647 2638 
L 3647 2100 
L 1113 2100 
L 1113 541 
L 3925 541 
L 3925 0 
L 506 0 
z
" transform="scale(0.015625)"/>
       <path id="ArialMT-70" d="M 422 -1272 
L 422 3319 
L 934 3319 
L 934 2888 
Q 1116 3141 1344 3267 
Q 1572 3394 1897 3394 
Q 2322 3394 2647 3175 
Q 2972 2956 3137 2557 
Q 3303 2159 3303 1684 
Q 3303 1175 3120 767 
Q 2938 359 2589 142 
Q 2241 -75 1856 -75 
Q 1575 -75 1351 44 
Q 1128 163 984 344 
L 984 -1272 
L 422 -1272 
z
M 931 1641 
Q 931 1000 1190 694 
Q 1450 388 1819 388 
Q 2194 388 2461 705 
Q 2728 1022 2728 1688 
Q 2728 2322 2467 2637 
Q 2206 2953 1844 2953 
Q 1484 2953 1207 2617 
Q 931 2281 931 1641 
z
" transform="scale(0.015625)"/>
       <path id="ArialMT-69" d="M 425 3934 
L 425 4581 
L 988 4581 
L 988 3934 
L 425 3934 
z
M 425 0 
L 425 3319 
L 988 3319 
L 988 0 
L 425 0 
z
" transform="scale(0.015625)"/>
       <path id="ArialMT-73" d="M 197 991 
L 753 1078 
Q 800 744 1014 566 
Q 1228 388 1613 388 
Q 2000 388 2187 545 
Q 2375 703 2375 916 
Q 2375 1106 2209 1216 
Q 2094 1291 1634 1406 
Q 1016 1563 777 1677 
Q 538 1791 414 1992 
Q 291 2194 291 2438 
Q 291 2659 392 2848 
Q 494 3038 669 3163 
Q 800 3259 1026 3326 
Q 1253 3394 1513 3394 
Q 1903 3394 2198 3281 
Q 2494 3169 2634 2976 
Q 2775 2784 2828 2463 
L 2278 2388 
Q 2241 2644 2061 2787 
Q 1881 2931 1553 2931 
Q 1166 2931 1000 2803 
Q 834 2675 834 2503 
Q 834 2394 903 2306 
Q 972 2216 1119 2156 
Q 1203 2125 1616 2013 
Q 2213 1853 2448 1751 
Q 2684 1650 2818 1456 
Q 2953 1263 2953 975 
Q 2953 694 2789 445 
Q 2625 197 2315 61 
Q 2006 -75 1616 -75 
Q 969 -75 630 194 
Q 291 463 197 991 
z
" transform="scale(0.015625)"/>
       <path id="ArialMT-6f" d="M 213 1659 
Q 213 2581 725 3025 
Q 1153 3394 1769 3394 
Q 2453 3394 2887 2945 
Q 3322 2497 3322 1706 
Q 3322 1066 3130 698 
Q 2938 331 2570 128 
Q 2203 -75 1769 -75 
Q 1072 -75 642 372 
Q 213 819 213 1659 
z
M 791 1659 
Q 791 1022 1069 705 
Q 1347 388 1769 388 
Q 2188 388 2466 706 
Q 2744 1025 2744 1678 
Q 2744 2294 2464 2611 
Q 2184 2928 1769 2928 
Q 1347 2928 1069 2612 
Q 791 2297 791 1659 
z
" transform="scale(0.015625)"/>
       <path id="ArialMT-64" d="M 2575 0 
L 2575 419 
Q 2259 -75 1647 -75 
Q 1250 -75 917 144 
Q 584 363 401 755 
Q 219 1147 219 1656 
Q 219 2153 384 2558 
Q 550 2963 881 3178 
Q 1213 3394 1622 3394 
Q 1922 3394 2156 3267 
Q 2391 3141 2538 2938 
L 2538 4581 
L 3097 4581 
L 3097 0 
L 2575 0 
z
M 797 1656 
Q 797 1019 1065 703 
Q 1334 388 1700 388 
Q 2069 388 2326 689 
Q 2584 991 2584 1609 
Q 2584 2291 2321 2609 
Q 2059 2928 1675 2928 
Q 1300 2928 1048 2622 
Q 797 2316 797 1656 
z
" transform="scale(0.015625)"/>
       <path id="ArialMT-65" d="M 2694 1069 
L 3275 997 
Q 3138 488 2766 206 
Q 2394 -75 1816 -75 
Q 1088 -75 661 373 
Q 234 822 234 1631 
Q 234 2469 665 2931 
Q 1097 3394 1784 3394 
Q 2450 3394 2872 2941 
Q 3294 2488 3294 1666 
Q 3294 1616 3291 1516 
L 816 1516 
Q 847 969 1125 678 
Q 1403 388 1819 388 
Q 2128 388 2347 550 
Q 2566 713 2694 1069 
z
M 847 1978 
L 2700 1978 
Q 2663 2397 2488 2606 
Q 2219 2931 1791 2931 
Q 1403 2931 1139 2672 
Q 875 2413 847 1978 
z
" transform="scale(0.015625)"/>
       <path id="ArialMT-20" transform="scale(0.015625)"/>
       <path id="ArialMT-23" d="M 322 -78 
L 594 1253 
L 66 1253 
L 66 1719 
L 688 1719 
L 919 2853 
L 66 2853 
L 66 3319 
L 1013 3319 
L 1284 4659 
L 1753 4659 
L 1481 3319 
L 2466 3319 
L 2738 4659 
L 3209 4659 
L 2938 3319 
L 3478 3319 
L 3478 2853 
L 2844 2853 
L 2609 1719 
L 3478 1719 
L 3478 1253 
L 2516 1253 
L 2244 -78 
L 1775 -78 
L 2044 1253 
L 1063 1253 
L 791 -78 
L 322 -78 
z
M 1156 1719 
L 2138 1719 
L 2372 2853 
L 1388 2853 
L 1156 1719 
z
" transform="scale(0.015625)"/>
      </defs>
      <use xlink:href="#ArialMT-45"/>
      <use xlink:href="#ArialMT-70" x="66.699219"/>
      <use xlink:href="#ArialMT-69" x="122.314453"/>
      <use xlink:href="#ArialMT-73" x="144.53125"/>
      <use xlink:href="#ArialMT-6f" x="194.53125"/>
      <use xlink:href="#ArialMT-64" x="250.146484"/>
      <use xlink:href="#ArialMT-65" x="305.761719"/>
      <use xlink:href="#ArialMT-20" x="361.376953"/>
      <use xlink:href="#ArialMT-23" x="389.160156"/>
     </g>
    </g>
   </g>
   <g id="matplotlib.axis_2">
    <g id="ytick_1">
     <g id="line2d_13">
      <path d="M 139.8 553.846342 
L 686.972058 553.846342 
" clip-path="url(#p056895d25e)" style="fill: none; stroke: #cccccc; stroke-width: 0.8; stroke-linecap: round"/>
     </g>
     <g id="line2d_14"/>
     <g id="text_8">
      <!-- −300 -->
      <g style="fill: #262626" transform="translate(68.729688 564.583061)scale(0.3 -0.3)">
       <defs>
        <path id="ArialMT-2212" d="M 3381 1997 
L 356 1997 
L 356 2522 
L 3381 2522 
L 3381 1997 
z
" transform="scale(0.015625)"/>
       </defs>
       <use xlink:href="#ArialMT-2212"/>
       <use xlink:href="#ArialMT-33" x="58.398438"/>
       <use xlink:href="#ArialMT-30" x="114.013672"/>
       <use xlink:href="#ArialMT-30" x="169.628906"/>
      </g>
     </g>
    </g>
    <g id="ytick_2">
     <g id="line2d_15">
      <path d="M 139.8 480.191661 
L 686.972058 480.191661 
" clip-path="url(#p056895d25e)" style="fill: none; stroke: #cccccc; stroke-width: 0.8; stroke-linecap: round"/>
     </g>
     <g id="line2d_16"/>
     <g id="text_9">
      <!-- −250 -->
      <g style="fill: #262626" transform="translate(68.729688 490.92838)scale(0.3 -0.3)">
       <use xlink:href="#ArialMT-2212"/>
       <use xlink:href="#ArialMT-32" x="58.398438"/>
       <use xlink:href="#ArialMT-35" x="114.013672"/>
       <use xlink:href="#ArialMT-30" x="169.628906"/>
      </g>
     </g>
    </g>
    <g id="ytick_3">
     <g id="line2d_17">
      <path d="M 139.8 406.53698 
L 686.972058 406.53698 
" clip-path="url(#p056895d25e)" style="fill: none; stroke: #cccccc; stroke-width: 0.8; stroke-linecap: round"/>
     </g>
     <g id="line2d_18"/>
     <g id="text_10">
      <!-- −200 -->
      <g style="fill: #262626" transform="translate(68.729688 417.273699)scale(0.3 -0.3)">
       <use xlink:href="#ArialMT-2212"/>
       <use xlink:href="#ArialMT-32" x="58.398438"/>
       <use xlink:href="#ArialMT-30" x="114.013672"/>
       <use xlink:href="#ArialMT-30" x="169.628906"/>
      </g>
     </g>
    </g>
    <g id="ytick_4">
     <g id="line2d_19">
      <path d="M 139.8 332.882299 
L 686.972058 332.882299 
" clip-path="url(#p056895d25e)" style="fill: none; stroke: #cccccc; stroke-width: 0.8; stroke-linecap: round"/>
     </g>
     <g id="line2d_20"/>
     <g id="text_11">
      <!-- −150 -->
      <g style="fill: #262626" transform="translate(68.729688 343.619017)scale(0.3 -0.3)">
       <use xlink:href="#ArialMT-2212"/>
       <use xlink:href="#ArialMT-31" x="58.398438"/>
       <use xlink:href="#ArialMT-35" x="114.013672"/>
       <use xlink:href="#ArialMT-30" x="169.628906"/>
      </g>
     </g>
    </g>
    <g id="ytick_5">
     <g id="line2d_21">
      <path d="M 139.8 259.227617 
L 686.972058 259.227617 
" clip-path="url(#p056895d25e)" style="fill: none; stroke: #cccccc; stroke-width: 0.8; stroke-linecap: round"/>
     </g>
     <g id="line2d_22"/>
     <g id="text_12">
      <!-- −100 -->
      <g style="fill: #262626" transform="translate(68.729688 269.964336)scale(0.3 -0.3)">
       <use xlink:href="#ArialMT-2212"/>
       <use xlink:href="#ArialMT-31" x="58.398438"/>
       <use xlink:href="#ArialMT-30" x="114.013672"/>
       <use xlink:href="#ArialMT-30" x="169.628906"/>
      </g>
     </g>
    </g>
    <g id="ytick_6">
     <g id="line2d_23">
      <path d="M 139.8 185.572936 
L 686.972058 185.572936 
" clip-path="url(#p056895d25e)" style="fill: none; stroke: #cccccc; stroke-width: 0.8; stroke-linecap: round"/>
     </g>
     <g id="line2d_24"/>
     <g id="text_13">
      <!-- −50 -->
      <g style="fill: #262626" transform="translate(85.4125 196.309655)scale(0.3 -0.3)">
       <use xlink:href="#ArialMT-2212"/>
       <use xlink:href="#ArialMT-35" x="58.398438"/>
       <use xlink:href="#ArialMT-30" x="114.013672"/>
      </g>
     </g>
    </g>
    <g id="ytick_7">
     <g id="line2d_25">
      <path d="M 139.8 111.918255 
L 686.972058 111.918255 
" clip-path="url(#p056895d25e)" style="fill: none; stroke: #cccccc; stroke-width: 0.8; stroke-linecap: round"/>
     </g>
     <g id="line2d_26"/>
     <g id="text_14">
      <!-- 0 -->
      <g style="fill: #262626" transform="translate(119.617188 122.654973)scale(0.3 -0.3)">
       <use xlink:href="#ArialMT-30"/>
      </g>
     </g>
    </g>
    <g id="text_15">
     <!-- Reward -->
     <g style="fill: #262626" transform="translate(57.773438 402.885313)rotate(-90)scale(0.35 -0.35)">
      <defs>
       <path id="ArialMT-52" d="M 503 0 
L 503 4581 
L 2534 4581 
Q 3147 4581 3465 4457 
Q 3784 4334 3975 4021 
Q 4166 3709 4166 3331 
Q 4166 2844 3850 2509 
Q 3534 2175 2875 2084 
Q 3116 1969 3241 1856 
Q 3506 1613 3744 1247 
L 4541 0 
L 3778 0 
L 3172 953 
Q 2906 1366 2734 1584 
Q 2563 1803 2427 1890 
Q 2291 1978 2150 2013 
Q 2047 2034 1813 2034 
L 1109 2034 
L 1109 0 
L 503 0 
z
M 1109 2559 
L 2413 2559 
Q 2828 2559 3062 2645 
Q 3297 2731 3419 2920 
Q 3541 3109 3541 3331 
Q 3541 3656 3305 3865 
Q 3069 4075 2559 4075 
L 1109 4075 
L 1109 2559 
z
" transform="scale(0.015625)"/>
       <path id="ArialMT-77" d="M 1034 0 
L 19 3319 
L 600 3319 
L 1128 1403 
L 1325 691 
Q 1338 744 1497 1375 
L 2025 3319 
L 2603 3319 
L 3100 1394 
L 3266 759 
L 3456 1400 
L 4025 3319 
L 4572 3319 
L 3534 0 
L 2950 0 
L 2422 1988 
L 2294 2553 
L 1622 0 
L 1034 0 
z
" transform="scale(0.015625)"/>
       <path id="ArialMT-61" d="M 2588 409 
Q 2275 144 1986 34 
Q 1697 -75 1366 -75 
Q 819 -75 525 192 
Q 231 459 231 875 
Q 231 1119 342 1320 
Q 453 1522 633 1644 
Q 813 1766 1038 1828 
Q 1203 1872 1538 1913 
Q 2219 1994 2541 2106 
Q 2544 2222 2544 2253 
Q 2544 2597 2384 2738 
Q 2169 2928 1744 2928 
Q 1347 2928 1158 2789 
Q 969 2650 878 2297 
L 328 2372 
Q 403 2725 575 2942 
Q 747 3159 1072 3276 
Q 1397 3394 1825 3394 
Q 2250 3394 2515 3294 
Q 2781 3194 2906 3042 
Q 3031 2891 3081 2659 
Q 3109 2516 3109 2141 
L 3109 1391 
Q 3109 606 3145 398 
Q 3181 191 3288 0 
L 2700 0 
Q 2613 175 2588 409 
z
M 2541 1666 
Q 2234 1541 1622 1453 
Q 1275 1403 1131 1340 
Q 988 1278 909 1158 
Q 831 1038 831 891 
Q 831 666 1001 516 
Q 1172 366 1500 366 
Q 1825 366 2078 508 
Q 2331 650 2450 897 
Q 2541 1088 2541 1459 
L 2541 1666 
z
" transform="scale(0.015625)"/>
       <path id="ArialMT-72" d="M 416 0 
L 416 3319 
L 922 3319 
L 922 2816 
Q 1116 3169 1280 3281 
Q 1444 3394 1641 3394 
Q 1925 3394 2219 3213 
L 2025 2691 
Q 1819 2813 1613 2813 
Q 1428 2813 1281 2702 
Q 1134 2591 1072 2394 
Q 978 2094 978 1738 
L 978 0 
L 416 0 
z
" transform="scale(0.015625)"/>
      </defs>
      <use xlink:href="#ArialMT-52"/>
      <use xlink:href="#ArialMT-65" x="72.216797"/>
      <use xlink:href="#ArialMT-77" x="127.832031"/>
      <use xlink:href="#ArialMT-61" x="200.048828"/>
      <use xlink:href="#ArialMT-72" x="255.664062"/>
      <use xlink:href="#ArialMT-64" x="288.964844"/>
     </g>
    </g>
   </g>
   <g id="PolyCollection_1">
    <path d="M 164.671457 306.028075 
L 164.671457 594.793125 
L 165.668309 572.067059 
L 166.665161 551.187231 
L 167.662013 532.046722 
L 168.658865 514.538611 
L 169.655717 498.555981 
L 170.652569 483.991913 
L 171.649421 470.739487 
L 172.646273 458.691784 
L 173.643125 447.741886 
L 174.639977 434.003321 
L 175.636829 424.704113 
L 176.633681 415.98069 
L 177.630533 408.214654 
L 178.627385 400.498085 
L 179.624237 393.094111 
L 180.621089 392.647395 
L 181.617941 385.481219 
L 182.614793 384.170438 
L 183.611645 378.302022 
L 184.608497 379.748008 
L 185.605349 374.898458 
L 186.602201 370.061692 
L 187.599053 363.880901 
L 188.595905 364.837388 
L 189.592757 361.664558 
L 190.589609 360.523628 
L 191.586461 355.709365 
L 192.583313 354.122213 
L 193.580165 349.73933 
L 194.577017 342.841536 
L 195.573869 341.78101 
L 196.570721 339.651865 
L 197.567573 333.90409 
L 198.564425 330.216977 
L 199.561277 324.901375 
L 200.558129 320.432551 
L 201.554981 319.873806 
L 202.551833 317.441711 
L 203.548685 315.772192 
L 204.545537 310.725427 
L 205.542389 307.389632 
L 206.539241 303.834256 
L 207.536093 301.224314 
L 208.532945 300.381307 
L 209.529797 299.643232 
L 210.526649 298.472024 
L 211.523501 297.048905 
L 212.520353 295.320735 
L 213.517205 294.115499 
L 214.514057 294.138533 
L 215.510909 292.894475 
L 216.507761 292.923676 
L 217.504613 292.255254 
L 218.501465 293.306281 
L 219.498317 293.071076 
L 220.495169 294.367823 
L 221.492021 292.73862 
L 222.488873 291.670313 
L 223.485725 290.608212 
L 224.482577 289.589023 
L 225.479429 287.987198 
L 226.476281 287.229911 
L 227.473133 288.167268 
L 228.469985 286.631312 
L 229.466837 285.666795 
L 230.463689 282.60372 
L 231.460541 281.759923 
L 232.457393 278.629441 
L 233.454245 276.728832 
L 234.451097 275.38738 
L 235.447949 274.419898 
L 236.444801 271.590652 
L 237.441652 271.860179 
L 238.438504 269.675228 
L 239.435356 269.050554 
L 240.432208 268.413826 
L 241.42906 269.663052 
L 242.425912 267.925026 
L 243.422764 267.552566 
L 244.419616 266.274799 
L 245.416468 267.684374 
L 246.41332 267.354529 
L 247.410172 266.261214 
L 248.407024 265.728083 
L 249.403876 264.463365 
L 250.400728 263.355197 
L 251.39758 261.43837 
L 252.394432 260.242945 
L 253.391284 259.225495 
L 254.388136 257.98431 
L 255.384988 259.09564 
L 256.38184 259.985532 
L 257.378692 259.421152 
L 258.375544 259.679355 
L 259.372396 259.562529 
L 260.369248 259.252576 
L 261.3661 257.878214 
L 262.362952 258.386391 
L 263.359804 258.725985 
L 264.356656 260.026652 
L 265.353508 259.339549 
L 266.35036 259.622559 
L 267.347212 260.46158 
L 268.344064 258.225614 
L 269.340916 256.730692 
L 270.337768 256.13545 
L 271.33462 252.777351 
L 272.331472 251.411716 
L 273.328324 251.224091 
L 274.325176 251.465821 
L 275.322028 249.988423 
L 276.31888 250.676963 
L 277.315732 249.576332 
L 278.312584 248.149178 
L 279.309436 247.815868 
L 280.306288 248.376519 
L 281.30314 250.361094 
L 282.299992 251.366775 
L 283.296844 251.334438 
L 284.293696 250.847803 
L 285.290548 251.042529 
L 286.2874 250.08199 
L 287.284252 246.857266 
L 288.281104 246.062126 
L 289.277956 244.51407 
L 290.274808 242.346248 
L 291.27166 242.154712 
L 292.268512 241.465384 
L 293.265364 240.491517 
L 294.262216 240.28252 
L 295.259068 239.269808 
L 296.25592 236.186963 
L 297.252772 235.859791 
L 298.249624 235.528643 
L 299.246476 236.79846 
L 300.243328 237.330556 
L 301.24018 237.556438 
L 302.237032 237.842726 
L 303.233884 237.628271 
L 304.230736 236.549396 
L 305.227588 235.616527 
L 306.22444 234.511624 
L 307.221292 236.432873 
L 308.218144 237.426756 
L 309.214996 239.739111 
L 310.211848 239.81636 
L 311.2087 239.506335 
L 312.205552 239.388425 
L 313.202404 238.402866 
L 314.199256 236.950731 
L 315.196108 236.410402 
L 316.19296 237.884157 
L 317.189812 238.564709 
L 318.186664 238.817612 
L 319.183516 236.504483 
L 320.180368 237.105147 
L 321.17722 237.539826 
L 322.174072 236.64511 
L 323.170924 236.034515 
L 324.167776 237.166566 
L 325.164628 237.735278 
L 326.16148 239.776135 
L 327.158332 240.552855 
L 328.155184 240.103574 
L 329.152036 239.706567 
L 330.148888 239.236938 
L 331.14574 237.058743 
L 332.142592 234.797763 
L 333.139444 233.783705 
L 334.136296 231.855737 
L 335.133148 231.898954 
L 336.13 230.12282 
L 337.126852 228.06883 
L 338.123704 227.321708 
L 339.120556 230.260157 
L 340.117408 231.158544 
L 341.11426 230.901681 
L 342.111112 230.923536 
L 343.107964 231.156983 
L 344.104816 232.359005 
L 345.101668 234.145583 
L 346.098519 235.323866 
L 347.095371 235.278323 
L 348.092223 237.278211 
L 349.089075 235.136119 
L 350.085927 234.750813 
L 351.082779 234.688327 
L 352.079631 234.872575 
L 353.076483 233.679157 
L 354.073335 233.819198 
L 355.070187 233.199467 
L 356.067039 233.788162 
L 357.063891 234.145765 
L 358.060743 233.429253 
L 359.057595 232.71401 
L 360.054447 231.714059 
L 361.051299 229.757229 
L 362.048151 228.434476 
L 363.045003 230.910225 
L 364.041855 232.071411 
L 365.038707 231.329811 
L 366.035559 229.460219 
L 367.032411 230.221398 
L 368.029263 230.310111 
L 369.026115 233.297287 
L 370.022967 233.517797 
L 371.019819 232.612166 
L 372.016671 231.987147 
L 373.013523 231.801087 
L 374.010375 232.791415 
L 375.007227 232.414319 
L 376.004079 229.392301 
L 377.000931 228.115051 
L 377.997783 229.949329 
L 378.994635 229.270676 
L 379.991487 228.395831 
L 380.988339 229.954305 
L 381.985191 232.297258 
L 382.982043 234.125022 
L 383.978895 232.795183 
L 384.975747 234.015047 
L 385.972599 235.790663 
L 386.969451 236.309755 
L 387.966303 238.661115 
L 388.963155 238.245027 
L 389.960007 238.525346 
L 390.956859 238.801613 
L 391.953711 240.128588 
L 392.950563 240.623535 
L 393.947415 237.831571 
L 394.944267 236.828281 
L 395.941119 237.031604 
L 396.937971 237.405842 
L 397.934823 234.253237 
L 398.931675 236.060449 
L 399.928527 237.082917 
L 400.925379 237.476888 
L 401.922231 237.051334 
L 402.919083 234.99507 
L 403.915935 235.561024 
L 404.912787 235.079464 
L 405.909639 235.361824 
L 406.906491 236.209663 
L 407.903343 234.018297 
L 408.900195 234.591428 
L 409.897047 234.575258 
L 410.893899 235.854852 
L 411.890751 235.37076 
L 412.887603 232.989412 
L 413.884455 231.392932 
L 414.881307 229.43652 
L 415.878159 228.196025 
L 416.875011 228.824103 
L 417.871863 231.132745 
L 418.868715 232.02716 
L 419.865567 231.54377 
L 420.862419 230.897664 
L 421.859271 231.909206 
L 422.856123 233.200543 
L 423.852975 233.33719 
L 424.849827 232.991623 
L 425.846679 232.003872 
L 426.843531 231.397514 
L 427.840383 231.312825 
L 428.837235 230.723254 
L 429.834087 231.482126 
L 430.830939 230.990514 
L 431.827791 229.074098 
L 432.824643 230.690222 
L 433.821495 232.552634 
L 434.818347 233.23203 
L 435.815199 235.87187 
L 436.812051 236.076068 
L 437.808903 238.171852 
L 438.805755 237.163572 
L 439.802607 238.88971 
L 440.799459 240.118644 
L 441.796311 239.386128 
L 442.793163 239.617924 
L 443.790015 238.874442 
L 444.786867 237.9665 
L 445.783719 236.895038 
L 446.780571 236.935927 
L 447.777423 238.058765 
L 448.774275 238.520223 
L 449.771127 237.164879 
L 450.767979 236.993286 
L 451.764831 237.586949 
L 452.761683 236.782506 
L 453.758535 236.404962 
L 454.755386 237.083653 
L 455.752238 235.609519 
L 456.74909 234.242138 
L 457.745942 234.32132 
L 458.742794 235.15255 
L 459.739646 233.511261 
L 460.736498 233.425521 
L 461.73335 235.61834 
L 462.730202 234.677175 
L 463.727054 235.297542 
L 464.723906 235.138381 
L 465.720758 237.306419 
L 466.71761 237.732714 
L 467.714462 237.676118 
L 468.711314 237.783083 
L 469.708166 240.250975 
L 470.705018 241.697131 
L 471.70187 243.957638 
L 472.698722 243.506241 
L 473.695574 244.017344 
L 474.692426 243.53942 
L 475.689278 242.851504 
L 476.68613 244.26328 
L 477.682982 243.445242 
L 478.679834 242.868429 
L 479.676686 242.865396 
L 480.673538 241.665888 
L 481.67039 241.366927 
L 482.667242 241.207118 
L 483.664094 240.957685 
L 484.660946 240.893859 
L 485.657798 239.769375 
L 486.65465 239.379827 
L 487.651502 239.653554 
L 488.648354 241.342112 
L 489.645206 241.011077 
L 490.642058 239.780364 
L 491.63891 239.647284 
L 492.635762 240.171864 
L 493.632614 239.775396 
L 494.629466 238.242322 
L 495.626318 238.948783 
L 496.62317 240.363275 
L 497.620022 239.719557 
L 498.616874 238.68936 
L 499.613726 240.007113 
L 500.610578 240.463894 
L 501.60743 239.700453 
L 502.604282 239.16917 
L 503.601134 237.186695 
L 504.597986 235.522041 
L 505.594838 236.319081 
L 506.59169 237.516934 
L 507.588542 238.336977 
L 508.585394 238.94143 
L 509.582246 238.944244 
L 510.579098 241.340943 
L 511.57595 241.065173 
L 512.572802 241.986198 
L 513.569654 242.469839 
L 514.566506 244.66742 
L 515.563358 244.998687 
L 516.56021 243.662091 
L 517.557062 244.275781 
L 518.553914 244.926694 
L 519.550766 242.921367 
L 520.547618 243.873416 
L 521.54447 242.839661 
L 522.541322 241.592061 
L 523.538174 242.364551 
L 524.535026 243.227251 
L 525.531878 245.007902 
L 526.52873 244.810661 
L 527.525582 244.789273 
L 528.522434 244.09453 
L 529.519286 244.16926 
L 530.516138 244.274833 
L 531.51299 244.154465 
L 532.509842 242.991936 
L 533.506694 240.840615 
L 534.503546 238.129695 
L 535.500398 239.235547 
L 536.49725 240.431172 
L 537.494102 240.78169 
L 538.490954 238.842931 
L 539.487806 240.028417 
L 540.484658 239.585405 
L 541.48151 241.293278 
L 542.478362 241.630196 
L 543.475214 242.97249 
L 544.472066 244.336206 
L 545.468918 244.065359 
L 546.46577 244.501418 
L 547.462622 243.978939 
L 548.459474 244.9616 
L 549.456326 245.385843 
L 550.453178 243.604546 
L 551.45003 241.767811 
L 552.446882 239.31933 
L 553.443734 239.059796 
L 554.440586 241.006216 
L 555.437438 240.343296 
L 556.43429 238.101605 
L 557.431142 237.403995 
L 558.427994 238.24471 
L 559.424846 238.758607 
L 560.421698 238.94052 
L 561.41855 238.563728 
L 562.415402 240.150713 
L 563.412253 238.345527 
L 564.409105 238.985816 
L 565.405957 239.201901 
L 566.402809 237.941018 
L 567.399661 238.618907 
L 568.396513 238.42352 
L 569.393365 236.429476 
L 570.390217 235.430061 
L 571.387069 233.925651 
L 572.383921 234.044085 
L 573.380773 233.843472 
L 574.377625 235.428242 
L 575.374477 237.482855 
L 576.371329 239.134512 
L 577.368181 239.760727 
L 578.365033 240.974856 
L 579.361885 240.440756 
L 580.358737 241.262168 
L 581.355589 242.176112 
L 582.352441 242.319407 
L 583.349293 244.910263 
L 584.346145 245.556708 
L 585.342997 245.265937 
L 586.339849 244.712266 
L 587.336701 244.1215 
L 588.333553 242.60718 
L 589.330405 241.012197 
L 590.327257 239.587341 
L 591.324109 238.548014 
L 592.320961 238.860088 
L 593.317813 241.127068 
L 594.314665 240.89673 
L 595.311517 239.434323 
L 596.308369 239.29787 
L 597.305221 238.37047 
L 598.302073 236.480131 
L 599.298925 236.958382 
L 600.295777 238.451789 
L 601.292629 238.395343 
L 602.289481 238.804857 
L 603.286333 239.649074 
L 604.283185 240.536697 
L 605.280037 240.551046 
L 606.276889 241.359972 
L 607.273741 241.552948 
L 608.270593 240.311136 
L 609.267445 240.764438 
L 610.264297 239.640124 
L 611.261149 240.384061 
L 612.258001 238.749589 
L 613.254853 237.90373 
L 614.251705 237.369499 
L 615.248557 237.015646 
L 616.245409 236.275484 
L 617.242261 234.89179 
L 618.239113 235.171159 
L 619.235965 235.832519 
L 620.232817 234.321495 
L 621.229669 233.858528 
L 622.226521 234.100412 
L 623.223373 232.731956 
L 624.220225 230.094907 
L 625.217077 228.838859 
L 626.213929 227.068987 
L 627.210781 226.831652 
L 628.207633 226.48743 
L 629.204485 225.430307 
L 630.201337 226.016225 
L 631.198189 224.774152 
L 632.195041 227.0666 
L 633.191893 228.515193 
L 634.188745 228.661455 
L 635.185597 229.438011 
L 636.182449 230.497765 
L 637.179301 229.987701 
L 638.176153 230.070083 
L 639.173005 229.545315 
L 640.169857 228.871358 
L 641.166709 228.911809 
L 642.163561 226.288471 
L 643.160413 225.726778 
L 644.157265 226.192197 
L 645.154117 225.923828 
L 646.150969 225.972293 
L 647.147821 225.143466 
L 648.144673 224.351362 
L 649.141525 225.252963 
L 650.138377 224.237089 
L 651.135229 224.722719 
L 652.132081 223.39979 
L 653.128933 222.498192 
L 654.125785 221.062309 
L 655.122637 219.655211 
L 656.119489 218.355312 
L 657.116341 217.241029 
L 658.113193 216.390778 
L 659.110045 215.882976 
L 660.106897 215.796038 
L 661.103749 216.208382 
L 662.100601 217.198423 
L 662.100601 130.758731 
L 662.100601 130.758731 
L 661.103749 128.88147 
L 660.106897 127.592694 
L 659.110045 126.813933 
L 658.113193 126.466717 
L 657.116341 126.472576 
L 656.119489 126.753042 
L 655.122637 127.229643 
L 654.125785 127.82391 
L 653.128933 128.457374 
L 652.132081 128.566914 
L 651.135229 129.108091 
L 650.138377 127.850962 
L 649.141525 128.105537 
L 648.144673 126.452782 
L 647.147821 126.503824 
L 646.150969 126.601629 
L 645.154117 125.832128 
L 644.157265 125.389392 
L 643.160413 124.222748 
L 642.163561 124.093041 
L 641.166709 126.034751 
L 640.169857 125.32239 
L 639.173005 125.334103 
L 638.176153 125.206238 
L 637.179301 124.480782 
L 636.182449 124.357275 
L 635.185597 122.673403 
L 634.188745 121.282126 
L 633.191893 120.530488 
L 632.195041 118.485809 
L 631.198189 115.606514 
L 630.201337 116.270924 
L 629.204485 115.116473 
L 628.207633 115.614141 
L 627.210781 115.407931 
L 626.213929 115.103805 
L 625.217077 116.341133 
L 624.220225 117.0735 
L 623.223373 119.195679 
L 622.226521 120.058021 
L 621.229669 119.318726 
L 620.232817 119.292932 
L 619.235965 120.323791 
L 618.239113 119.19081 
L 617.242261 118.448309 
L 616.245409 119.377306 
L 615.248557 119.671155 
L 614.251705 119.587024 
L 613.254853 119.691547 
L 612.258001 120.11592 
L 611.261149 121.337074 
L 610.264297 120.187935 
L 609.267445 120.91511 
L 608.270593 120.072677 
L 607.273741 120.933313 
L 606.276889 120.367062 
L 605.280037 119.19271 
L 604.283185 118.82073 
L 603.286333 117.583216 
L 602.289481 116.396798 
L 601.292629 115.652717 
L 600.295777 115.382176 
L 599.298925 113.569311 
L 598.302073 112.779075 
L 597.305221 114.364851 
L 596.308369 114.995054 
L 595.311517 114.841625 
L 594.314665 116.02141 
L 593.317813 115.976334 
L 592.320961 113.441093 
L 591.324109 112.867857 
L 590.327257 113.65307 
L 589.330405 114.830805 
L 588.333553 116.185607 
L 587.336701 117.466632 
L 586.339849 117.830937 
L 585.342997 118.164926 
L 584.346145 118.242741 
L 583.349293 117.390012 
L 582.352441 114.599493 
L 581.355589 114.263099 
L 580.358737 113.162569 
L 579.361885 112.161031 
L 578.365033 112.521409 
L 577.368181 111.139911 
L 576.371329 110.352626 
L 575.374477 108.546143 
L 574.377625 106.342896 
L 573.380773 104.615632 
L 572.383921 104.679834 
L 571.387069 104.431021 
L 570.390217 105.81103 
L 569.393365 106.69197 
L 568.396513 108.573408 
L 567.399661 108.662008 
L 566.402809 107.883096 
L 565.405957 109.048667 
L 564.409105 108.742927 
L 563.412253 108.018587 
L 562.415402 109.745273 
L 561.41855 108.085285 
L 560.421698 108.394518 
L 559.424846 108.150436 
L 558.427994 107.579706 
L 557.431142 106.687443 
L 556.43429 107.338733 
L 555.437438 109.539281 
L 554.440586 110.166182 
L 553.443734 108.188813 
L 552.446882 108.422413 
L 551.45003 110.849924 
L 550.453178 112.670597 
L 549.456326 114.440688 
L 548.459474 114.010042 
L 547.462622 113.025727 
L 546.46577 113.551248 
L 545.468918 113.122872 
L 544.472066 113.405992 
L 543.475214 112.059083 
L 542.478362 110.738079 
L 541.48151 110.426879 
L 540.484658 108.749099 
L 539.487806 109.226526 
L 538.490954 108.079722 
L 537.494102 110.061378 
L 536.49725 109.757919 
L 535.500398 108.61346 
L 534.503546 107.562829 
L 533.506694 110.33297 
L 532.509842 112.54746 
L 531.51299 113.777052 
L 530.516138 113.968324 
L 529.519286 113.937442 
L 528.522434 113.941137 
L 527.525582 114.717986 
L 526.52873 114.825105 
L 525.531878 115.111652 
L 524.535026 113.423825 
L 523.538174 112.657417 
L 522.541322 111.984633 
L 521.54447 113.335298 
L 520.547618 114.475424 
L 519.550766 113.632999 
L 518.553914 115.751149 
L 517.557062 115.216206 
L 516.56021 114.721577 
L 515.563358 116.180274 
L 514.566506 115.974094 
L 513.569654 113.904533 
L 512.572802 113.551789 
L 511.57595 112.764487 
L 510.579098 113.176751 
L 509.582246 110.919267 
L 508.585394 111.058331 
L 507.588542 110.598368 
L 506.59169 109.925373 
L 505.594838 108.877074 
L 504.597986 108.232037 
L 503.601134 110.051093 
L 502.604282 112.190316 
L 501.60743 112.880636 
L 500.610578 113.805353 
L 499.613726 113.512031 
L 498.616874 112.359868 
L 497.620022 113.557732 
L 496.62317 114.371141 
L 495.626318 113.128311 
L 494.629466 112.595428 
L 493.632614 114.303944 
L 492.635762 114.877664 
L 491.63891 114.532093 
L 490.642058 114.845886 
L 489.645206 116.25896 
L 488.648354 116.773953 
L 487.651502 115.270897 
L 486.65465 115.18416 
L 485.657798 115.762134 
L 484.660946 117.076427 
L 483.664094 117.331392 
L 482.667242 117.773239 
L 481.67039 118.126685 
L 480.673538 118.620451 
L 479.676686 120.01588 
L 478.679834 120.215896 
L 477.682982 120.990699 
L 476.68613 122.007684 
L 475.689278 120.795756 
L 474.692426 121.684368 
L 473.695574 122.363783 
L 472.698722 122.054912 
L 471.70187 122.70923 
L 470.705018 120.652278 
L 469.708166 119.410258 
L 468.711314 117.14703 
L 467.714462 117.245203 
L 466.71761 117.507357 
L 465.720758 117.286988 
L 464.723906 115.32519 
L 463.727054 115.690852 
L 462.730202 115.277192 
L 461.73335 116.425218 
L 460.736498 114.439361 
L 459.739646 114.732109 
L 458.742794 116.580398 
L 457.745942 115.95611 
L 456.74909 116.083755 
L 455.752238 117.657796 
L 454.755386 119.33837 
L 453.758535 118.865845 
L 452.761683 119.449228 
L 451.764831 120.459129 
L 450.767979 120.07049 
L 449.771127 120.446619 
L 448.774275 122.005958 
L 447.777423 121.747901 
L 446.780571 120.827816 
L 445.783719 120.988978 
L 444.786867 122.261737 
L 443.790015 123.370167 
L 442.793163 124.313276 
L 441.796311 124.280191 
L 440.799459 125.21045 
L 439.802607 124.178237 
L 438.805755 122.647744 
L 437.808903 123.850541 
L 436.812051 121.948092 
L 435.815199 121.935993 
L 434.818347 119.486962 
L 433.821495 118.997033 
L 432.824643 117.322692 
L 431.827791 115.893189 
L 430.830939 117.994724 
L 429.834087 118.669899 
L 428.837235 118.092979 
L 427.840383 118.862839 
L 426.843531 119.1261 
L 425.846679 119.909261 
L 424.849827 121.071991 
L 423.852975 121.59066 
L 422.856123 121.625185 
L 421.859271 120.503036 
L 420.862419 119.658644 
L 419.865567 120.469811 
L 418.868715 121.116117 
L 417.871863 120.38242 
L 416.875011 118.232245 
L 415.878159 117.76033 
L 414.881307 119.15463 
L 413.884455 121.262437 
L 412.887603 123.007845 
L 411.890751 125.535604 
L 410.893899 126.163536 
L 409.897047 125.025156 
L 408.900195 125.179861 
L 407.903343 124.742534 
L 406.906491 127.066918 
L 405.909639 126.34926 
L 404.912787 126.194187 
L 403.915935 126.800089 
L 402.919083 126.355478 
L 401.922231 128.530032 
L 400.925379 129.070771 
L 399.928527 128.788824 
L 398.931675 127.875168 
L 397.934823 126.173502 
L 396.937971 129.428333 
L 395.941119 129.152948 
L 394.944267 129.045052 
L 393.947415 130.140288 
L 392.950563 133.020665 
L 391.953711 132.610544 
L 390.956859 131.364755 
L 389.960007 131.16598 
L 388.963155 130.959406 
L 387.966303 131.445438 
L 386.969451 129.160168 
L 385.972599 128.703259 
L 384.975747 126.985865 
L 383.978895 125.820209 
L 382.982043 127.200188 
L 381.985191 125.418442 
L 380.988339 123.117333 
L 379.991487 121.596474 
L 378.994635 122.504654 
L 377.997783 123.212306 
L 377.000931 121.402639 
L 376.004079 122.700057 
L 375.007227 125.737749 
L 374.010375 126.125971 
L 373.013523 125.142165 
L 372.016671 125.330092 
L 371.019819 125.95227 
L 370.022967 126.850297 
L 369.026115 126.617366 
L 368.029263 123.612901 
L 367.032411 123.501976 
L 366.035559 122.713609 
L 365.038707 124.550983 
L 364.041855 125.255282 
L 363.045003 124.051658 
L 362.048151 121.528282 
L 361.051299 122.798165 
L 360.054447 124.696827 
L 359.057595 125.63326 
L 358.060743 126.279582 
L 357.063891 126.921715 
L 356.067039 126.484223 
L 355.070187 125.810075 
L 354.073335 126.338735 
L 353.076483 126.101954 
L 352.079631 127.192906 
L 351.082779 126.900414 
L 350.085927 126.848825 
L 349.089075 127.114173 
L 348.092223 129.130368 
L 347.095371 126.998591 
L 346.098519 126.9062 
L 345.101668 125.583886 
L 344.104816 123.647124 
L 343.107964 122.288714 
L 342.111112 121.892619 
L 341.11426 121.701805 
L 340.117408 121.783343 
L 339.120556 120.703212 
L 338.123704 117.576547 
L 337.126852 118.128927 
L 336.13 119.981595 
L 335.133148 121.549775 
L 334.136296 121.291919 
L 333.139444 122.998507 
L 332.142592 123.784392 
L 331.14574 125.810353 
L 330.148888 127.746629 
L 329.152036 127.967386 
L 328.155184 128.108514 
L 327.158332 128.294856 
L 326.16148 127.248083 
L 325.164628 124.930007 
L 324.167776 124.076855 
L 323.170924 122.653089 
L 322.174072 122.964643 
L 321.17722 123.552936 
L 320.180368 122.804401 
L 319.183516 121.882393 
L 318.186664 123.866636 
L 317.189812 123.277254 
L 316.19296 122.252575 
L 315.196108 120.42699 
L 314.199256 120.607736 
L 313.202404 121.692479 
L 312.205552 122.302784 
L 311.2087 122.037525 
L 310.211848 121.956413 
L 309.214996 121.480004 
L 308.218144 118.760414 
L 307.221292 117.351167 
L 306.22444 115.006373 
L 305.227588 115.679493 
L 304.230736 116.172292 
L 303.233884 116.802754 
L 302.237032 116.560398 
L 301.24018 115.808851 
L 300.243328 115.109207 
L 299.246476 114.094793 
L 298.249624 112.334049 
L 297.252772 112.165605 
L 296.25592 111.984469 
L 295.259068 114.550236 
L 294.262216 115.037046 
L 293.265364 114.711265 
L 292.268512 115.141423 
L 291.27166 115.278058 
L 290.274808 114.907864 
L 289.277956 116.504865 
L 288.281104 117.472956 
L 287.284252 117.678933 
L 286.2874 120.305244 
L 285.290548 120.658065 
L 284.293696 119.846264 
L 283.296844 119.706411 
L 282.299992 119.102796 
L 281.30314 117.451645 
L 280.306288 114.812028 
L 279.309436 113.586711 
L 278.312584 113.245676 
L 277.315732 113.988752 
L 276.31888 114.395521 
L 275.322028 113.00328 
L 274.325176 113.767084 
L 273.328324 112.801815 
L 272.331472 112.255902 
L 271.33462 112.877946 
L 270.337768 115.482348 
L 269.340916 115.313734 
L 268.344064 116.034587 
L 267.347212 117.486218 
L 266.35036 115.852541 
L 265.353508 114.764503 
L 264.356656 114.636152 
L 263.359804 112.50955 
L 262.362952 111.333488 
L 261.3661 109.978255 
L 260.369248 110.494922 
L 259.372396 109.936485 
L 258.375544 109.174176 
L 257.378692 108.026035 
L 256.38184 107.689624 
L 255.384988 105.888034 
L 254.388136 103.854044 
L 253.391284 104.161555 
L 252.394432 104.234264 
L 251.39758 104.473826 
L 250.400728 105.423615 
L 249.403876 105.553517 
L 248.407024 105.828688 
L 247.410172 105.360937 
L 246.41332 105.441981 
L 245.416468 104.748113 
L 244.419616 102.30333 
L 243.422764 102.534342 
L 242.425912 101.848442 
L 241.42906 102.516454 
L 240.432208 100.185505 
L 239.435356 99.728747 
L 238.438504 99.248119 
L 237.441652 100.315899 
L 236.444801 98.917279 
L 235.447949 100.605454 
L 234.451097 100.419837 
L 233.454245 100.596106 
L 232.457393 101.319397 
L 231.460541 103.260369 
L 230.463689 102.902413 
L 229.466837 104.751439 
L 228.469985 104.489556 
L 227.473133 104.786709 
L 226.476281 102.598092 
L 225.479429 102.091608 
L 224.482577 102.417098 
L 223.485725 102.147334 
L 222.488873 101.907812 
L 221.492021 101.661772 
L 220.495169 101.96385 
L 219.498317 99.327145 
L 218.501465 98.20951 
L 217.504613 95.792704 
L 216.507761 95.082355 
L 215.510909 93.661339 
L 214.514057 93.500483 
L 213.517205 92.059383 
L 212.520353 91.833348 
L 211.523501 92.116989 
L 210.526649 92.082266 
L 209.529797 91.782268 
L 208.532945 91.035716 
L 207.536093 90.380625 
L 206.539241 91.478942 
L 205.542389 93.509115 
L 204.545537 95.306074 
L 203.548685 98.800316 
L 202.551833 98.903573 
L 201.554981 99.755614 
L 200.558129 98.720457 
L 199.561277 101.58148 
L 198.564425 105.275328 
L 197.567573 107.326679 
L 196.570721 111.424633 
L 195.573869 111.889843 
L 194.577017 111.272267 
L 193.580165 116.477738 
L 192.583313 119.154025 
L 191.586461 119.020252 
L 190.589609 122.099211 
L 189.592757 121.490402 
L 188.595905 122.899006 
L 187.599053 120.163751 
L 186.602201 124.551179 
L 185.605349 127.579935 
L 184.608497 130.606774 
L 183.611645 127.323321 
L 182.614793 131.339463 
L 181.617941 130.783108 
L 180.621089 136.067231 
L 179.624237 134.616928 
L 178.627385 140.108859 
L 177.630533 145.898311 
L 176.633681 151.722101 
L 175.636829 158.488095 
L 174.639977 165.814638 
L 173.643125 177.56525 
L 172.646273 186.511852 
L 171.649421 196.540862 
L 170.652569 207.759146 
L 169.655717 220.27357 
L 168.658865 234.190998 
L 167.662013 249.618298 
L 166.665161 266.662333 
L 165.668309 285.42997 
L 164.671457 306.028075 
z
" clip-path="url(#p056895d25e)" style="fill: #1f77b4; fill-opacity: 0.5"/>
   </g>
   <g id="line2d_27">
    <path d="M 164.671457 450.4106 
L 166.665161 408.924782 
L 168.658865 374.364805 
L 170.652569 345.875529 
L 172.646273 322.601818 
L 173.643125 312.653568 
L 174.639977 299.90898 
L 176.633681 283.851395 
L 179.624237 263.85552 
L 180.621089 264.357313 
L 181.617941 258.132163 
L 182.614793 257.75495 
L 183.611645 252.812672 
L 184.608497 255.177391 
L 186.602201 247.306436 
L 187.599053 242.022326 
L 188.595905 243.868197 
L 189.592757 241.57748 
L 190.589609 241.311419 
L 191.586461 237.364808 
L 192.583313 236.638119 
L 193.580165 233.108534 
L 194.577017 227.056901 
L 195.573869 226.835426 
L 196.570721 225.538249 
L 197.567573 220.615384 
L 198.564425 217.746152 
L 199.561277 213.241428 
L 200.558129 209.576504 
L 201.554981 209.81471 
L 202.551833 208.172642 
L 203.548685 207.286254 
L 204.545537 203.01575 
L 206.539241 197.656599 
L 207.536093 195.80247 
L 209.529797 195.71275 
L 210.526649 195.277145 
L 211.523501 194.582947 
L 212.520353 193.577042 
L 213.517205 193.087441 
L 214.514057 193.819508 
L 215.510909 193.277907 
L 216.507761 194.003015 
L 217.504613 194.023979 
L 218.501465 195.757896 
L 219.498317 196.199111 
L 220.495169 198.165836 
L 221.492021 197.200196 
L 224.482577 196.00306 
L 225.479429 195.039403 
L 226.476281 194.914002 
L 227.473133 196.476989 
L 228.469985 195.560434 
L 229.466837 195.209117 
L 230.463689 192.753067 
L 231.460541 192.510146 
L 232.457393 189.974419 
L 233.454245 188.662469 
L 234.451097 187.903608 
L 235.447949 187.512676 
L 236.444801 185.253966 
L 237.441652 186.088039 
L 238.438504 184.461673 
L 240.432208 184.299665 
L 241.42906 186.089753 
L 242.425912 184.886734 
L 243.422764 185.043454 
L 244.419616 184.289065 
L 245.416468 186.216243 
L 246.41332 186.398255 
L 247.410172 185.811075 
L 248.407024 185.778385 
L 249.403876 185.008441 
L 250.400728 184.389406 
L 251.39758 182.956098 
L 252.394432 182.238605 
L 253.391284 181.693525 
L 254.388136 180.919177 
L 255.384988 182.491837 
L 256.38184 183.837578 
L 257.378692 183.723594 
L 258.375544 184.426765 
L 259.372396 184.749507 
L 260.369248 184.873749 
L 261.3661 183.928235 
L 262.362952 184.859939 
L 263.359804 185.617768 
L 264.356656 187.331402 
L 265.353508 187.052026 
L 266.35036 187.73755 
L 267.347212 188.973899 
L 268.344064 187.1301 
L 269.340916 186.022213 
L 270.337768 185.808899 
L 271.33462 182.827648 
L 272.331472 181.833809 
L 273.328324 182.012953 
L 274.325176 182.616452 
L 275.322028 181.495851 
L 276.31888 182.536242 
L 277.315732 181.782542 
L 278.312584 180.697427 
L 279.309436 180.70129 
L 280.306288 181.594274 
L 281.30314 183.90637 
L 282.299992 185.234785 
L 283.296844 185.520425 
L 284.293696 185.347033 
L 285.290548 185.850297 
L 286.2874 185.193617 
L 287.284252 182.2681 
L 288.281104 181.767541 
L 289.277956 180.509468 
L 290.274808 178.627056 
L 291.27166 178.716385 
L 292.268512 178.303403 
L 293.265364 177.601391 
L 294.262216 177.659783 
L 295.259068 176.910022 
L 296.25592 174.085716 
L 298.249624 173.931346 
L 299.246476 175.446626 
L 300.243328 176.219882 
L 302.237032 177.201562 
L 303.233884 177.215512 
L 306.22444 174.758998 
L 307.221292 176.89202 
L 308.218144 178.093585 
L 309.214996 180.609557 
L 310.211848 180.886386 
L 311.2087 180.77193 
L 312.205552 180.845605 
L 313.202404 180.047672 
L 314.199256 178.779234 
L 315.196108 178.418696 
L 316.19296 180.068366 
L 317.189812 180.920981 
L 318.186664 181.342124 
L 319.183516 179.193438 
L 320.180368 179.954774 
L 321.17722 180.546381 
L 322.174072 179.804876 
L 323.170924 179.343802 
L 324.167776 180.621711 
L 325.164628 181.332642 
L 326.16148 183.512109 
L 327.158332 184.423856 
L 330.148888 183.491784 
L 332.142592 179.291077 
L 333.139444 178.391106 
L 334.136296 176.573828 
L 335.133148 176.724364 
L 336.13 175.052207 
L 337.126852 173.098879 
L 338.123704 172.449127 
L 339.120556 175.481684 
L 340.117408 176.470944 
L 341.11426 176.301743 
L 342.111112 176.408077 
L 343.107964 176.722849 
L 344.104816 178.003065 
L 345.101668 179.864734 
L 346.098519 181.115033 
L 347.095371 181.138457 
L 348.092223 183.204289 
L 349.089075 181.125146 
L 350.085927 180.799819 
L 351.082779 180.794371 
L 352.079631 181.03274 
L 353.076483 179.890555 
L 354.073335 180.078967 
L 355.070187 179.504771 
L 356.067039 180.136193 
L 357.063891 180.53374 
L 359.057595 179.173635 
L 360.054447 178.205443 
L 361.051299 176.277697 
L 362.048151 174.981379 
L 363.045003 177.480942 
L 364.041855 178.663346 
L 365.038707 177.940397 
L 366.035559 176.086914 
L 367.032411 176.861687 
L 368.029263 176.961506 
L 369.026115 179.957326 
L 370.022967 180.184047 
L 371.019819 179.282218 
L 372.016671 178.658619 
L 373.013523 178.471626 
L 374.010375 179.458693 
L 375.007227 179.076034 
L 376.004079 176.046179 
L 377.000931 174.758845 
L 377.997783 176.580817 
L 378.994635 175.887665 
L 379.991487 174.996152 
L 380.988339 176.535819 
L 381.985191 178.85785 
L 382.982043 180.662605 
L 383.978895 179.307696 
L 384.975747 180.500456 
L 385.972599 182.246961 
L 386.969451 182.734962 
L 387.966303 185.053276 
L 388.963155 184.602217 
L 390.956859 185.083184 
L 391.953711 186.369566 
L 392.950563 186.8221 
L 393.947415 183.985929 
L 394.944267 182.936666 
L 395.941119 183.092276 
L 396.937971 183.417088 
L 397.934823 180.21337 
L 398.931675 181.967809 
L 399.928527 182.935871 
L 400.925379 183.273829 
L 401.922231 182.790683 
L 402.919083 180.675274 
L 403.915935 181.180557 
L 404.912787 180.636825 
L 405.909639 180.855542 
L 406.906491 181.638291 
L 407.903343 179.380416 
L 408.900195 179.885645 
L 409.897047 179.800207 
L 410.893899 181.009194 
L 411.890751 180.453182 
L 412.887603 177.998629 
L 413.884455 176.327684 
L 414.881307 174.295575 
L 415.878159 172.978177 
L 416.875011 173.528174 
L 417.871863 175.757582 
L 418.868715 176.571638 
L 419.865567 176.00679 
L 420.862419 175.278154 
L 421.859271 176.206121 
L 422.856123 177.412864 
L 423.852975 177.463925 
L 424.849827 177.031807 
L 425.846679 175.956567 
L 426.843531 175.261807 
L 427.840383 175.087832 
L 428.837235 174.408116 
L 429.834087 175.076013 
L 430.830939 174.492619 
L 431.827791 172.483644 
L 432.824643 174.006457 
L 433.821495 175.774834 
L 434.818347 176.359496 
L 435.815199 178.903932 
L 436.812051 179.01208 
L 437.808903 181.011197 
L 438.805755 179.905658 
L 439.802607 181.533973 
L 440.799459 182.664547 
L 441.796311 181.83316 
L 442.793163 181.9656 
L 443.790015 181.122305 
L 444.786867 180.114119 
L 445.783719 178.942008 
L 446.780571 178.881872 
L 447.777423 179.903333 
L 448.774275 180.26309 
L 449.771127 178.805749 
L 450.767979 178.531888 
L 451.764831 179.023039 
L 452.761683 178.115867 
L 453.758535 177.635403 
L 454.755386 178.211012 
L 456.74909 175.162947 
L 457.745942 175.138715 
L 458.742794 175.866474 
L 459.739646 174.121685 
L 460.736498 173.932441 
L 461.73335 176.021779 
L 462.730202 174.977184 
L 463.727054 175.494197 
L 464.723906 175.231786 
L 465.720758 177.296704 
L 466.71761 177.620035 
L 467.714462 177.46066 
L 468.711314 177.465056 
L 469.708166 179.830617 
L 470.705018 181.174705 
L 471.70187 183.333434 
L 472.698722 182.780576 
L 473.695574 183.190564 
L 474.692426 182.611894 
L 475.689278 181.82363 
L 476.68613 183.135482 
L 477.682982 182.217971 
L 478.679834 181.542162 
L 479.676686 181.440638 
L 480.673538 180.143169 
L 481.67039 179.746806 
L 484.660946 178.985143 
L 485.657798 177.765754 
L 486.65465 177.281993 
L 487.651502 177.462225 
L 488.648354 179.058033 
L 489.645206 178.635018 
L 490.642058 177.313125 
L 491.63891 177.089689 
L 492.635762 177.524764 
L 493.632614 177.03967 
L 494.629466 175.418875 
L 495.626318 176.038547 
L 496.62317 177.367208 
L 497.620022 176.638644 
L 498.616874 175.524614 
L 499.613726 176.759572 
L 500.610578 177.134624 
L 501.60743 176.290545 
L 502.604282 175.679743 
L 503.601134 173.618894 
L 504.597986 171.877039 
L 505.594838 172.598077 
L 506.59169 173.721154 
L 507.588542 174.467673 
L 508.585394 174.999881 
L 509.582246 174.931756 
L 510.579098 177.258847 
L 511.57595 176.91483 
L 512.572802 177.768994 
L 513.569654 178.187186 
L 514.566506 180.320757 
L 515.563358 180.58948 
L 516.56021 179.191834 
L 518.553914 180.338921 
L 519.550766 178.277183 
L 520.547618 179.17442 
L 521.54447 178.08748 
L 522.541322 176.788347 
L 524.535026 178.325538 
L 525.531878 180.059777 
L 526.52873 179.817883 
L 527.525582 179.753629 
L 528.522434 179.017833 
L 530.516138 179.121578 
L 531.51299 178.965759 
L 532.509842 177.769698 
L 533.506694 175.586793 
L 534.503546 172.846262 
L 536.49725 175.094546 
L 537.494102 175.421534 
L 538.490954 173.461326 
L 539.487806 174.627472 
L 540.484658 174.167252 
L 541.48151 175.860079 
L 542.478362 176.184137 
L 544.472066 178.871099 
L 545.468918 178.594115 
L 546.46577 179.026333 
L 547.462622 178.502333 
L 548.459474 179.485821 
L 549.456326 179.913266 
L 551.45003 176.308868 
L 552.446882 173.870872 
L 553.443734 173.624305 
L 554.440586 175.586199 
L 555.437438 174.941289 
L 556.43429 172.720169 
L 557.431142 172.045719 
L 558.427994 172.912208 
L 559.424846 173.454522 
L 560.421698 173.667519 
L 561.41855 173.324506 
L 562.415402 174.947993 
L 563.412253 173.182057 
L 564.409105 173.864372 
L 565.405957 174.125284 
L 566.402809 172.912057 
L 567.399661 173.640458 
L 568.396513 173.498464 
L 569.393365 171.560723 
L 570.390217 170.620546 
L 571.387069 169.178336 
L 572.383921 169.361959 
L 573.380773 169.229552 
L 574.377625 170.885569 
L 575.374477 173.014499 
L 576.371329 174.743569 
L 577.368181 175.450319 
L 578.365033 176.748133 
L 579.361885 176.300893 
L 581.355589 178.219605 
L 582.352441 178.45945 
L 583.349293 181.150137 
L 584.346145 181.899724 
L 585.342997 181.715432 
L 587.336701 180.794066 
L 590.327257 176.620206 
L 591.324109 175.707935 
L 592.320961 176.150591 
L 593.317813 178.551701 
L 594.314665 178.45907 
L 595.311517 177.137974 
L 596.308369 177.146462 
L 597.305221 176.36766 
L 598.302073 174.629603 
L 599.298925 175.263846 
L 600.295777 176.916982 
L 601.292629 177.02403 
L 602.289481 177.600827 
L 604.283185 179.678714 
L 605.280037 179.871878 
L 606.276889 180.863517 
L 607.273741 181.243131 
L 608.270593 180.191907 
L 609.267445 180.839774 
L 610.264297 179.914029 
L 611.261149 180.860568 
L 612.258001 179.432754 
L 613.254853 178.797638 
L 614.251705 178.478261 
L 615.248557 178.3434 
L 616.245409 177.826395 
L 617.242261 176.670049 
L 618.239113 177.180984 
L 619.235965 178.078155 
L 620.232817 176.807213 
L 621.229669 176.588627 
L 622.226521 177.079217 
L 623.223373 175.963818 
L 624.220225 173.584204 
L 625.217077 172.589996 
L 626.213929 171.086396 
L 628.207633 171.050786 
L 629.204485 170.27339 
L 630.201337 171.143574 
L 631.198189 170.190333 
L 632.195041 172.776205 
L 633.191893 174.522841 
L 634.188745 174.971791 
L 635.185597 176.055707 
L 636.182449 177.42752 
L 637.179301 177.234242 
L 638.176153 177.63816 
L 639.173005 177.439709 
L 640.169857 177.096874 
L 641.166709 177.47328 
L 642.163561 175.190756 
L 643.160413 174.974763 
L 644.157265 175.790795 
L 645.154117 175.877978 
L 646.150969 176.286961 
L 648.144673 175.402072 
L 649.141525 176.67925 
L 650.138377 176.044026 
L 651.135229 176.915405 
L 652.132081 175.983352 
L 653.128933 175.477783 
L 655.122637 173.442427 
L 656.119489 172.554177 
L 657.116341 171.856803 
L 658.113193 171.428747 
L 659.110045 171.348454 
L 660.106897 171.694366 
L 661.103749 172.544926 
L 662.100601 173.978577 
L 662.100601 173.978577 
" clip-path="url(#p056895d25e)" style="fill: none; stroke: #1f77b4; stroke-width: 1.5; stroke-linecap: round"/>
   </g>
   <g id="patch_3">
    <path d="M 139.8 620.01375 
L 139.8 65.16 
" style="fill: none; stroke: #cccccc; stroke-linejoin: miter; stroke-linecap: square"/>
   </g>
   <g id="patch_4">
    <path d="M 686.972058 620.01375 
L 686.972058 65.16 
" style="fill: none; stroke: #cccccc; stroke-linejoin: miter; stroke-linecap: square"/>
   </g>
   <g id="patch_5">
    <path d="M 139.8 620.01375 
L 686.972058 620.01375 
" style="fill: none; stroke: #cccccc; stroke-linejoin: miter; stroke-linecap: square"/>
   </g>
   <g id="patch_6">
    <path d="M 139.8 65.16 
L 686.972058 65.16 
" style="fill: none; stroke: #cccccc; stroke-linejoin: miter; stroke-linecap: square"/>
   </g>
   <g id="text_16">
    <!-- Interaction Training -->
    <g style="fill: #262626" transform="translate(264.559466 57.793594)scale(0.35 -0.35)">
     <defs>
      <path id="ArialMT-49" d="M 597 0 
L 597 4581 
L 1203 4581 
L 1203 0 
L 597 0 
z
" transform="scale(0.015625)"/>
      <path id="ArialMT-6e" d="M 422 0 
L 422 3319 
L 928 3319 
L 928 2847 
Q 1294 3394 1984 3394 
Q 2284 3394 2536 3286 
Q 2788 3178 2913 3003 
Q 3038 2828 3088 2588 
Q 3119 2431 3119 2041 
L 3119 0 
L 2556 0 
L 2556 2019 
Q 2556 2363 2490 2533 
Q 2425 2703 2258 2804 
Q 2091 2906 1866 2906 
Q 1506 2906 1245 2678 
Q 984 2450 984 1813 
L 984 0 
L 422 0 
z
" transform="scale(0.015625)"/>
      <path id="ArialMT-74" d="M 1650 503 
L 1731 6 
Q 1494 -44 1306 -44 
Q 1000 -44 831 53 
Q 663 150 594 308 
Q 525 466 525 972 
L 525 2881 
L 113 2881 
L 113 3319 
L 525 3319 
L 525 4141 
L 1084 4478 
L 1084 3319 
L 1650 3319 
L 1650 2881 
L 1084 2881 
L 1084 941 
Q 1084 700 1114 631 
Q 1144 563 1211 522 
Q 1278 481 1403 481 
Q 1497 481 1650 503 
z
" transform="scale(0.015625)"/>
      <path id="ArialMT-63" d="M 2588 1216 
L 3141 1144 
Q 3050 572 2676 248 
Q 2303 -75 1759 -75 
Q 1078 -75 664 370 
Q 250 816 250 1647 
Q 250 2184 428 2587 
Q 606 2991 970 3192 
Q 1334 3394 1763 3394 
Q 2303 3394 2647 3120 
Q 2991 2847 3088 2344 
L 2541 2259 
Q 2463 2594 2264 2762 
Q 2066 2931 1784 2931 
Q 1359 2931 1093 2626 
Q 828 2322 828 1663 
Q 828 994 1084 691 
Q 1341 388 1753 388 
Q 2084 388 2306 591 
Q 2528 794 2588 1216 
z
" transform="scale(0.015625)"/>
      <path id="ArialMT-54" d="M 1659 0 
L 1659 4041 
L 150 4041 
L 150 4581 
L 3781 4581 
L 3781 4041 
L 2266 4041 
L 2266 0 
L 1659 0 
z
" transform="scale(0.015625)"/>
      <path id="ArialMT-67" d="M 319 -275 
L 866 -356 
Q 900 -609 1056 -725 
Q 1266 -881 1628 -881 
Q 2019 -881 2231 -725 
Q 2444 -569 2519 -288 
Q 2563 -116 2559 434 
Q 2191 0 1641 0 
Q 956 0 581 494 
Q 206 988 206 1678 
Q 206 2153 378 2554 
Q 550 2956 876 3175 
Q 1203 3394 1644 3394 
Q 2231 3394 2613 2919 
L 2613 3319 
L 3131 3319 
L 3131 450 
Q 3131 -325 2973 -648 
Q 2816 -972 2473 -1159 
Q 2131 -1347 1631 -1347 
Q 1038 -1347 672 -1080 
Q 306 -813 319 -275 
z
M 784 1719 
Q 784 1066 1043 766 
Q 1303 466 1694 466 
Q 2081 466 2343 764 
Q 2606 1063 2606 1700 
Q 2606 2309 2336 2618 
Q 2066 2928 1684 2928 
Q 1309 2928 1046 2623 
Q 784 2319 784 1719 
z
" transform="scale(0.015625)"/>
     </defs>
     <use xlink:href="#ArialMT-49"/>
     <use xlink:href="#ArialMT-6e" x="27.783203"/>
     <use xlink:href="#ArialMT-74" x="83.398438"/>
     <use xlink:href="#ArialMT-65" x="111.181641"/>
     <use xlink:href="#ArialMT-72" x="166.796875"/>
     <use xlink:href="#ArialMT-61" x="200.097656"/>
     <use xlink:href="#ArialMT-63" x="255.712891"/>
     <use xlink:href="#ArialMT-74" x="305.712891"/>
     <use xlink:href="#ArialMT-69" x="333.496094"/>
     <use xlink:href="#ArialMT-6f" x="355.712891"/>
     <use xlink:href="#ArialMT-6e" x="411.328125"/>
     <use xlink:href="#ArialMT-20" x="466.943359"/>
     <use xlink:href="#ArialMT-54" x="492.976562"/>
     <use xlink:href="#ArialMT-72" x="550.310547"/>
     <use xlink:href="#ArialMT-61" x="583.611328"/>
     <use xlink:href="#ArialMT-69" x="639.226562"/>
     <use xlink:href="#ArialMT-6e" x="661.443359"/>
     <use xlink:href="#ArialMT-69" x="717.058594"/>
     <use xlink:href="#ArialMT-6e" x="739.275391"/>
     <use xlink:href="#ArialMT-67" x="794.890625"/>
    </g>
   </g>
   <g id="legend_1">
    <g id="line2d_28">
     <path d="M 297.49237 340.025156 
L 327.49237 340.025156 
L 357.49237 340.025156 
" style="fill: none; stroke: #1f77b4; stroke-width: 1.5; stroke-linecap: round"/>
    </g>
    <g id="text_17">
     <!-- Episode Mean Score -->
     <g style="fill: #262626" transform="translate(381.49237 350.525156)scale(0.3 -0.3)">
      <defs>
       <path id="ArialMT-4d" d="M 475 0 
L 475 4581 
L 1388 4581 
L 2472 1338 
Q 2622 884 2691 659 
Q 2769 909 2934 1394 
L 4031 4581 
L 4847 4581 
L 4847 0 
L 4263 0 
L 4263 3834 
L 2931 0 
L 2384 0 
L 1059 3900 
L 1059 0 
L 475 0 
z
" transform="scale(0.015625)"/>
       <path id="ArialMT-53" d="M 288 1472 
L 859 1522 
Q 900 1178 1048 958 
Q 1197 738 1509 602 
Q 1822 466 2213 466 
Q 2559 466 2825 569 
Q 3091 672 3220 851 
Q 3350 1031 3350 1244 
Q 3350 1459 3225 1620 
Q 3100 1781 2813 1891 
Q 2628 1963 1997 2114 
Q 1366 2266 1113 2400 
Q 784 2572 623 2826 
Q 463 3081 463 3397 
Q 463 3744 659 4045 
Q 856 4347 1234 4503 
Q 1613 4659 2075 4659 
Q 2584 4659 2973 4495 
Q 3363 4331 3572 4012 
Q 3781 3694 3797 3291 
L 3216 3247 
Q 3169 3681 2898 3903 
Q 2628 4125 2100 4125 
Q 1550 4125 1298 3923 
Q 1047 3722 1047 3438 
Q 1047 3191 1225 3031 
Q 1400 2872 2139 2705 
Q 2878 2538 3153 2413 
Q 3553 2228 3743 1945 
Q 3934 1663 3934 1294 
Q 3934 928 3725 604 
Q 3516 281 3123 101 
Q 2731 -78 2241 -78 
Q 1619 -78 1198 103 
Q 778 284 539 648 
Q 300 1013 288 1472 
z
" transform="scale(0.015625)"/>
      </defs>
      <use xlink:href="#ArialMT-45"/>
      <use xlink:href="#ArialMT-70" x="66.699219"/>
      <use xlink:href="#ArialMT-69" x="122.314453"/>
      <use xlink:href="#ArialMT-73" x="144.53125"/>
      <use xlink:href="#ArialMT-6f" x="194.53125"/>
      <use xlink:href="#ArialMT-64" x="250.146484"/>
      <use xlink:href="#ArialMT-65" x="305.761719"/>
      <use xlink:href="#ArialMT-20" x="361.376953"/>
      <use xlink:href="#ArialMT-4d" x="389.160156"/>
      <use xlink:href="#ArialMT-65" x="472.460938"/>
      <use xlink:href="#ArialMT-61" x="528.076172"/>
      <use xlink:href="#ArialMT-6e" x="583.691406"/>
      <use xlink:href="#ArialMT-20" x="639.306641"/>
      <use xlink:href="#ArialMT-53" x="667.089844"/>
      <use xlink:href="#ArialMT-63" x="733.789062"/>
      <use xlink:href="#ArialMT-6f" x="783.789062"/>
      <use xlink:href="#ArialMT-72" x="839.404297"/>
      <use xlink:href="#ArialMT-65" x="872.705078"/>
     </g>
    </g>
   </g>
  </g>
 </g>
 <defs>
  <clipPath id="p056895d25e">
   <rect x="139.8" y="65.16" width="547.172058" height="554.85375"/>
  </clipPath>
 </defs>
</svg>
